SplineFontDB: 3.0
FontName: Lohit-Gujarati
FullName: Lohit Gujarati
FamilyName: Lohit Gujarati
Weight: Book
Copyright: Copyright (c) 2003, Automatic Control Equipments, Pune, INDIA.\n  Copyright 2006 Modular Infotech Pvt Ltd.\n  Copyright 2009 Red Hat, Inc.\n\n  Licensed under the GNU General Public License, version 2 (see file COPYING) along with the following exception:\n\n  As a special exception, if you create a document which uses this font, and embed this font or unaltered portions of this font into the document, this font does not by itself cause the resulting document to be covered by the GNU General Public License. This exception does not however invalidate any other reasons why the document might be covered by the GNU General Public License. If you modify this font, you may extend this exception to your version of the font, but you are not obligated to do so. If you do not wish to do so, delete this exception statement from your version.
Version: 2.4.3
ItalicAngle: 0
UnderlinePosition: -300
UnderlineWidth: 20
Ascent: 666
Descent: 167
LayerCount: 2
Layer: 0 1 "Back"  1
Layer: 1 1 "Fore"  0
NeedsXUIDChange: 1
XUID: [1021 648 100124046 12582592]
FSType: 0
OS2Version: 1
OS2_WeightWidthSlopeOnly: 0
OS2_UseTypoMetrics: 1
CreationTime: 1101340800
ModificationTime: 1256617446
PfmFamily: 17
TTFWeight: 400
TTFWidth: 5
LineGap: 200
VLineGap: 0
Panose: 2 0 6 0 0 0 0 0 0 0
OS2TypoAscent: 84
OS2TypoAOffset: 1
OS2TypoDescent: -107
OS2TypoDOffset: 1
OS2TypoLinegap: 0
OS2WinAscent: 0
OS2WinAOffset: 1
OS2WinDescent: 0
OS2WinDOffset: 1
HheadAscent: 0
HheadAOffset: 1
HheadDescent: 0
HheadDOffset: 1
OS2SubXSize: 700
OS2SubYSize: 650
OS2SubXOff: 0
OS2SubYOff: 200
OS2SupXSize: 700
OS2SupYSize: 650
OS2SupXOff: 0
OS2SupYOff: 500
OS2StrikeYSize: 50
OS2StrikeYPos: 250
OS2Vendor: 'ACE '
Lookup: 4 0 0 "'akhn' Akhand in Gujarati lookup 0"  {"'akhn' Akhand in Gujarati lookup 0 subtable"  } ['akhn' ('gujr' <'dflt' > ) ]

StartChar: .notdef
Encoding: 65536 -1 0
Width: 800
GlyphClass: 2
Flags: W
LayerCount: 2
Fore
SplineSet
100 0 m 1,0,-1
 100 700 l 1,1,-1
 700 700 l 1,2,-1
 700 0 l 1,3,-1
 100 0 l 1,4,-1
 100 0 l 1,0,-1
150 50 m 1,5,-1
 650 50 l 1,6,-1
 650 650 l 1,7,-1
 150 650 l 1,8,-1
 150 50 l 1,9,-1
 150 50 l 1,5,-1
EndSplineSet
EndChar

StartChar: exclam
Encoding: 33 33 4
Width: 290
GlyphClass: 2
Flags: W
LayerCount: 2
Fore
SplineSet
155 180 m 1,0,-1
 125 180 l 1,1,-1
 100 500 l 1,2,-1
 100 580 l 1,3,-1
 180 580 l 1,4,-1
 180 500 l 1,5,-1
 155 180 l 1,6,-1
 155 180 l 1,0,-1
150 5 m 1,7,8
 125 5 125 5 107.5 18 c 128,-1,9
 90 31 90 31 90 50 c 0,10,11
 90 77 90 77 106 96 c 128,-1,12
 122 115 122 115 145 115 c 256,13,14
 168 115 168 115 184 99 c 128,-1,15
 200 83 200 83 200 60 c 256,16,17
 200 37 200 37 185.5 21 c 128,-1,18
 171 5 171 5 150 5 c 1,19,-1
 150 5 l 1,7,8
EndSplineSet
EndChar

StartChar: quotedbl
Encoding: 34 34 5
Width: 376
GlyphClass: 2
Flags: W
LayerCount: 2
Fore
SplineSet
141 499 m 1,0,-1
 104 499 l 1,1,-1
 90 657 l 1,2,-1
 150 657 l 1,3,-1
 141 499 l 1,4,-1
 141 499 l 1,0,-1
271 499 m 1,5,-1
 234 499 l 1,6,-1
 220 657 l 1,7,-1
 280 657 l 1,8,-1
 271 499 l 1,9,-1
 271 499 l 1,5,-1
EndSplineSet
EndChar

StartChar: quotesingle
Encoding: 39 39 6
Width: 246
GlyphClass: 2
Flags: W
LayerCount: 2
Fore
SplineSet
90 657 m 1,0,-1
 150 657 l 1,1,-1
 136 499 l 1,2,-1
 99 499 l 1,3,-1
 90 657 l 1,4,-1
 90 657 l 1,0,-1
EndSplineSet
EndChar

StartChar: parenleft
Encoding: 40 40 7
Width: 465
GlyphClass: 2
Flags: W
LayerCount: 2
Fore
SplineSet
345 -250 m 1,0,1
 227 -182 227 -182 158.5 -48 c 128,-1,2
 90 86 90 86 90 250 c 0,3,4
 90 385 90 385 154.5 513.5 c 128,-1,5
 219 642 219 642 335 740 c 1,6,-1
 375 720 l 1,7,8
 270 632 270 632 212.5 509 c 128,-1,9
 155 386 155 386 155 250 c 0,10,11
 155 91 155 91 214 -35 c 128,-1,12
 273 -161 273 -161 375 -220 c 1,13,-1
 345 -250 l 1,14,-1
 345 -250 l 1,0,1
EndSplineSet
EndChar

StartChar: parenright
Encoding: 41 41 8
Width: 450
GlyphClass: 2
Flags: W
LayerCount: 2
Fore
SplineSet
130 -245 m 1,0,-1
 90 -220 l 1,1,2
 190 -136 190 -136 245 -13 c 128,-1,3
 300 110 300 110 300 250 c 0,4,5
 300 404 300 404 244.5 530 c 128,-1,6
 189 656 189 656 90 725 c 1,7,-1
 125 745 l 1,8,9
 235 668 235 668 297.5 536.5 c 128,-1,10
 360 405 360 405 360 250 c 0,11,12
 360 123 360 123 300 -6 c 128,-1,13
 240 -135 240 -135 130 -245 c 1,14,-1
 130 -245 l 1,0,-1
EndSplineSet
EndChar

StartChar: comma
Encoding: 44 44 9
Width: 355
GlyphClass: 2
Flags: W
LayerCount: 2
Fore
SplineSet
120 -135 m 1,0,-1
 90 -100 l 1,1,2
 138 -78 138 -78 166.5 -50.5 c 128,-1,3
 195 -23 195 -23 195 0 c 1,4,5
 193 -4 193 -4 179 -2 c 128,-1,6
 165 0 165 0 155 0 c 0,7,8
 134 0 134 0 119.5 20.5 c 128,-1,9
 105 41 105 41 105 70 c 0,10,11
 105 93 105 93 127 109 c 128,-1,12
 149 125 149 125 180 125 c 0,13,14
 215 125 215 125 240 97 c 128,-1,15
 265 69 265 69 265 30 c 0,16,17
 265 -15 265 -15 225.5 -59.5 c 128,-1,18
 186 -104 186 -104 120 -135 c 1,19,-1
 120 -135 l 1,0,-1
EndSplineSet
EndChar

StartChar: hyphen
Encoding: 45 45 10
Width: 620
GlyphClass: 2
Flags: W
LayerCount: 2
Fore
SplineSet
90 250 m 1,0,-1
 90 305 l 1,1,-1
 530 305 l 1,2,-1
 530 250 l 1,3,-1
 90 250 l 1,4,-1
 90 250 l 1,0,-1
EndSplineSet
EndChar

StartChar: period
Encoding: 46 46 11
Width: 290
GlyphClass: 2
Flags: W
LayerCount: 2
Fore
SplineSet
145 -10 m 1,0,1
 122 -10 122 -10 106 4.5 c 128,-1,2
 90 19 90 19 90 40 c 0,3,4
 90 65 90 65 107.5 82.5 c 128,-1,5
 125 100 125 100 150 100 c 0,6,7
 171 100 171 100 185.5 84 c 128,-1,8
 200 68 200 68 200 45 c 256,9,10
 200 22 200 22 184 6 c 128,-1,11
 168 -10 168 -10 145 -10 c 1,12,-1
 145 -10 l 1,0,1
EndSplineSet
EndChar

StartChar: colon
Encoding: 58 58 12
Width: 310
GlyphClass: 2
Flags: W
LayerCount: 2
Fore
SplineSet
155 -5 m 1,0,1
 128 -5 128 -5 109 11 c 128,-1,2
 90 27 90 27 90 50 c 0,3,4
 90 77 90 77 110.5 96 c 128,-1,5
 131 115 131 115 160 115 c 0,6,7
 185 115 185 115 202.5 96 c 128,-1,8
 220 77 220 77 220 50 c 0,9,10
 220 27 220 27 201 11 c 128,-1,11
 182 -5 182 -5 155 -5 c 1,12,-1
 155 -5 l 1,0,1
155 355 m 1,13,14
 128 355 128 355 109 372.5 c 128,-1,15
 90 390 90 390 90 415 c 256,16,17
 90 440 90 440 109 457.5 c 128,-1,18
 128 475 128 475 155 475 c 0,19,20
 180 475 180 475 197.5 457.5 c 128,-1,21
 215 440 215 440 215 415 c 256,22,23
 215 390 215 390 197.5 372.5 c 128,-1,24
 180 355 180 355 155 355 c 1,25,-1
 155 355 l 1,13,14
EndSplineSet
EndChar

StartChar: semicolon
Encoding: 59 59 13
Width: 340
GlyphClass: 2
Flags: W
LayerCount: 2
Fore
SplineSet
120 -135 m 1,0,-1
 90 -100 l 1,1,2
 138 -78 138 -78 166.5 -50.5 c 128,-1,3
 195 -23 195 -23 195 0 c 1,4,5
 193 -4 193 -4 179 -2 c 128,-1,6
 165 0 165 0 155 0 c 0,7,8
 134 0 134 0 119.5 16 c 128,-1,9
 105 32 105 32 105 55 c 256,10,11
 105 78 105 78 127 94 c 128,-1,12
 149 110 149 110 180 110 c 0,13,14
 209 110 209 110 229.5 82 c 128,-1,15
 250 54 250 54 250 15 c 0,16,17
 250 -26 250 -26 214.5 -66.5 c 128,-1,18
 179 -107 179 -107 120 -135 c 1,19,-1
 120 -135 l 1,0,-1
170 255 m 1,20,21
 145 255 145 255 127.5 272.5 c 128,-1,22
 110 290 110 290 110 315 c 0,23,24
 110 342 110 342 129 361 c 128,-1,25
 148 380 148 380 175 380 c 0,26,27
 200 380 200 380 217.5 362.5 c 128,-1,28
 235 345 235 345 235 320 c 0,29,30
 235 293 235 293 216 274 c 128,-1,31
 197 255 197 255 170 255 c 1,32,-1
 170 255 l 1,20,21
EndSplineSet
EndChar

StartChar: question
Encoding: 63 63 14
Width: 506
GlyphClass: 2
Flags: W
LayerCount: 2
Fore
SplineSet
270 5 m 1,0,1
 245 5 245 5 227.5 19.5 c 128,-1,2
 210 34 210 34 210 55 c 0,3,4
 210 80 210 80 227.5 97.5 c 128,-1,5
 245 115 245 115 270 115 c 0,6,7
 291 115 291 115 305.5 99 c 128,-1,8
 320 83 320 83 320 60 c 256,9,10
 320 37 320 37 305.5 21 c 128,-1,11
 291 5 291 5 270 5 c 1,12,-1
 270 5 l 1,0,1
300 170 m 1,13,-1
 245 170 l 1,14,15
 235 182 235 182 230 196 c 128,-1,16
 225 210 225 210 225 225 c 0,17,18
 225 260 225 260 242 292 c 128,-1,19
 259 324 259 324 290 345 c 0,20,21
 320 362 320 362 337.5 386.5 c 128,-1,22
 355 411 355 411 355 435 c 0,23,24
 355 468 355 468 325.5 491.5 c 128,-1,25
 296 515 296 515 255 515 c 0,26,27
 212 515 212 515 181 487 c 128,-1,28
 150 459 150 459 150 420 c 0,29,30
 150 418 150 418 152 410 c 128,-1,31
 154 402 154 402 155 395 c 1,32,-1
 100 370 l 1,33,34
 95 384 95 384 92.5 396.5 c 128,-1,35
 90 409 90 409 90 420 c 0,36,37
 90 478 90 478 141.5 519 c 128,-1,38
 193 560 193 560 265 560 c 0,39,40
 327 560 327 560 371 523.5 c 128,-1,41
 415 487 415 487 415 435 c 1,42,43
 420 404 420 404 396.5 372 c 128,-1,44
 373 340 373 340 330 320 c 0,45,46
 307 307 307 307 293.5 281.5 c 128,-1,47
 280 256 280 256 280 225 c 0,48,49
 280 210 280 210 285 196 c 128,-1,50
 290 182 290 182 300 170 c 1,51,-1
 300 170 l 1,13,-1
EndSplineSet
EndChar

StartChar: underscore
Encoding: 95 95 15
Width: 715
GlyphClass: 2
Flags: W
LayerCount: 2
Fore
SplineSet
90 -248 m 1,0,-1
 90 -197 l 1,1,-1
 625 -197 l 1,2,-1
 625 -248 l 1,3,-1
 90 -248 l 1,4,-1
 90 -248 l 1,0,-1
EndSplineSet
EndChar

StartChar: grave
Encoding: 96 96 16
Width: 286
GlyphClass: 2
Flags: W
LayerCount: 2
Fore
SplineSet
196 499 m 1,0,-1
 159 499 l 1,1,-1
 90 657 l 1,2,-1
 155 657 l 1,3,-1
 196 499 l 1,4,-1
 196 499 l 1,0,-1
EndSplineSet
EndChar

StartChar: u0A81
Encoding: 2404 2404 17
Width: 240
GlyphClass: 2
Flags: W
LayerCount: 2
Fore
SplineSet
150 -25 m 1,0,-1
 90 -25 l 1,1,-1
 90 525 l 1,2,-1
 150 525 l 1,3,-1
 150 -25 l 1,4,-1
 150 -25 l 1,0,-1
EndSplineSet
EndChar

StartChar: u0A82
Encoding: 2405 2405 18
Width: 420
GlyphClass: 2
Flags: W
LayerCount: 2
Fore
SplineSet
330 -25 m 1,0,-1
 270 -25 l 1,1,-1
 270 525 l 1,2,-1
 330 525 l 1,3,-1
 330 -25 l 1,4,-1
 330 -25 l 1,0,-1
150 -25 m 1,5,-1
 90 -25 l 1,6,-1
 90 525 l 1,7,-1
 150 525 l 1,8,-1
 150 -25 l 1,9,-1
 150 -25 l 1,5,-1
EndSplineSet
EndChar

StartChar: u0A83
Encoding: 2689 2689 19
Width: 0
GlyphClass: 4
Flags: W
AnchorPoint: "Anchor-0" -114 -16 mark 0
LayerCount: 2
Fore
SplineSet
-120 550 m 1,0,1
 -190 550 -190 550 -249 582 c 128,-1,2
 -308 614 -308 614 -340 670 c 1,3,-1
 -300 705 l 1,4,5
 -272 656 -272 656 -225 628 c 128,-1,6
 -178 600 -178 600 -125 600 c 0,7,8
 -73 600 -73 600 -26 629.5 c 128,-1,9
 21 659 21 659 50 710 c 1,10,-1
 85 685 l 1,11,12
 56 623 56 623 0.5 586.5 c 128,-1,13
 -55 550 -55 550 -120 550 c 1,14,-1
 -120 550 l 1,0,1
-120 660 m 1,15,16
 -145 660 -145 660 -162.5 673 c 128,-1,17
 -180 686 -180 686 -180 705 c 256,18,19
 -180 724 -180 724 -162.5 737 c 128,-1,20
 -145 750 -145 750 -120 750 c 0,21,22
 -97 750 -97 750 -81 737 c 128,-1,23
 -65 724 -65 724 -65 705 c 256,24,25
 -65 686 -65 686 -81 673 c 128,-1,26
 -97 660 -97 660 -120 660 c 1,27,-1
 -120 660 l 1,15,16
EndSplineSet
EndChar

StartChar: u0A85
Encoding: 2690 2690 20
Width: 0
GlyphClass: 4
Flags: W
AnchorPoint: "Anchor-0" -116 60 mark 0
LayerCount: 2
Fore
SplineSet
-120 630 m 1,0,1
 -143 630 -143 630 -159 646 c 128,-1,2
 -175 662 -175 662 -175 685 c 0,3,4
 -175 710 -175 710 -159 727.5 c 128,-1,5
 -143 745 -143 745 -120 745 c 256,6,7
 -97 745 -97 745 -81 729 c 128,-1,8
 -65 713 -65 713 -65 690 c 0,9,10
 -65 665 -65 665 -81 647.5 c 128,-1,11
 -97 630 -97 630 -120 630 c 1,12,-1
 -120 630 l 1,0,1
EndSplineSet
EndChar

StartChar: u0A86
Encoding: 2691 2691 21
Width: 305
GlyphClass: 2
Flags: W
LayerCount: 2
Fore
SplineSet
150 70 m 1,0,1
 125 70 125 70 107.5 87.5 c 128,-1,2
 90 105 90 105 90 130 c 256,3,4
 90 155 90 155 110.5 172.5 c 128,-1,5
 131 190 131 190 160 190 c 0,6,7
 183 190 183 190 199 171 c 128,-1,8
 215 152 215 152 215 125 c 0,9,10
 215 102 215 102 196 86 c 128,-1,11
 177 70 177 70 150 70 c 1,12,-1
 150 70 l 1,0,1
150 310 m 1,13,14
 125 310 125 310 107.5 326 c 128,-1,15
 90 342 90 342 90 365 c 0,16,17
 90 392 90 392 107.5 411 c 128,-1,18
 125 430 125 430 150 430 c 0,19,20
 177 430 177 430 196 414 c 128,-1,21
 215 398 215 398 215 375 c 0,22,23
 215 348 215 348 196 329 c 128,-1,24
 177 310 177 310 150 310 c 1,25,-1
 150 310 l 1,13,14
EndSplineSet
EndChar

StartChar: u0A87
Encoding: 2693 2693 22
Width: 731
GlyphClass: 2
Flags: W
LayerCount: 2
Fore
SplineSet
26 280 m 1,0,1
 40 275 40 275 61 272.5 c 128,-1,2
 82 270 82 270 111 270 c 0,3,4
 172 270 172 270 209 298.5 c 128,-1,5
 246 327 246 327 246 375 c 0,6,7
 246 406 246 406 215 428 c 128,-1,8
 184 450 184 450 141 450 c 0,9,10
 113 450 113 450 87.5 443.5 c 128,-1,11
 62 437 62 437 41 425 c 1,12,-1
 21 470 l 1,13,14
 42 485 42 485 72.5 492.5 c 128,-1,15
 103 500 103 500 141 500 c 0,16,17
 209 500 209 500 257.5 463.5 c 128,-1,18
 306 427 306 427 306 375 c 0,19,20
 306 317 306 317 270.5 273.5 c 128,-1,21
 235 230 235 230 181 220 c 1,22,23
 181 181 181 181 212 153 c 128,-1,24
 243 125 243 125 286 125 c 0,25,26
 334 125 334 125 362.5 159 c 128,-1,27
 391 193 391 193 391 250 c 2,28,-1
 391 380 l 1,29,-1
 451 380 l 1,30,-1
 451 285 l 1,31,-1
 581 285 l 1,32,-1
 581 500 l 1,33,-1
 641 500 l 1,34,-1
 641 0 l 1,35,-1
 581 0 l 1,36,-1
 581 235 l 1,37,-1
 451 235 l 1,38,39
 451 169 451 169 402.5 122 c 128,-1,40
 354 75 354 75 286 75 c 256,41,42
 218 75 218 75 169.5 116 c 128,-1,43
 121 157 121 157 121 215 c 1,44,45
 102 215 102 215 78 217.5 c 128,-1,46
 54 220 54 220 26 225 c 1,47,-1
 26 280 l 1,48,-1
 26 280 l 1,0,1
EndSplineSet
EndChar

StartChar: u0A88
Encoding: 2694 2694 23
Width: 971
GlyphClass: 2
Flags: W
LayerCount: 2
Fore
SplineSet
26 280 m 1,0,1
 40 275 40 275 61 272.5 c 128,-1,2
 82 270 82 270 111 270 c 0,3,4
 172 270 172 270 209 298.5 c 128,-1,5
 246 327 246 327 246 375 c 0,6,7
 246 406 246 406 215 428 c 128,-1,8
 184 450 184 450 141 450 c 0,9,10
 107 450 107 450 81 443.5 c 128,-1,11
 55 437 55 437 41 425 c 1,12,-1
 21 470 l 1,13,14
 33 484 33 484 64.5 492 c 128,-1,15
 96 500 96 500 141 500 c 0,16,17
 209 500 209 500 257.5 463.5 c 128,-1,18
 306 427 306 427 306 375 c 256,19,20
 306 323 306 323 272.5 281 c 128,-1,21
 239 239 239 239 186 225 c 1,22,23
 186 184 186 184 215.5 154.5 c 128,-1,24
 245 125 245 125 286 125 c 0,25,26
 334 125 334 125 362.5 159 c 128,-1,27
 391 193 391 193 391 250 c 2,28,-1
 391 380 l 1,29,-1
 451 380 l 1,30,-1
 451 285 l 1,31,-1
 581 285 l 1,32,-1
 581 500 l 1,33,-1
 641 500 l 1,34,-1
 641 0 l 1,35,-1
 581 0 l 1,36,-1
 581 235 l 1,37,-1
 446 235 l 1,38,39
 446 166 446 166 400.5 120.5 c 128,-1,40
 355 75 355 75 286 75 c 0,41,42
 211 75 211 75 166 113 c 128,-1,43
 121 151 121 151 121 215 c 1,44,45
 102 215 102 215 78 217.5 c 128,-1,46
 54 220 54 220 26 225 c 1,47,-1
 26 280 l 1,48,-1
 26 280 l 1,0,1
821 500 m 1,49,-1
 881 500 l 1,50,-1
 881 0 l 1,51,-1
 821 0 l 1,52,-1
 821 500 l 1,53,-1
 821 500 l 1,49,-1
EndSplineSet
EndChar

StartChar: u0A89
Encoding: 2695 2695 24
Width: 529
GlyphClass: 2
Flags: W
LayerCount: 2
Fore
SplineSet
257 -10 m 1,0,1
 176 -10 176 -10 119 34 c 128,-1,2
 62 78 62 78 62 140 c 0,3,4
 62 185 62 185 85.5 220.5 c 128,-1,5
 109 256 109 256 147 270 c 1,6,7
 110 277 110 277 86 306.5 c 128,-1,8
 62 336 62 336 62 375 c 0,9,10
 62 424 62 424 107.5 459.5 c 128,-1,11
 153 495 153 495 217 495 c 0,12,13
 239 495 239 495 255 492.5 c 128,-1,14
 271 490 271 490 282 485 c 1,15,-1
 272 435 l 1,16,17
 258 440 258 440 244.5 442.5 c 128,-1,18
 231 445 231 445 217 445 c 0,19,20
 178 445 178 445 150 424.5 c 128,-1,21
 122 404 122 404 122 375 c 0,22,23
 122 342 122 342 157 318.5 c 128,-1,24
 192 295 192 295 242 295 c 2,25,-1
 277 295 l 1,26,-1
 277 245 l 1,27,-1
 242 245 l 2,28,29
 183 245 183 245 152.5 218.5 c 128,-1,30
 122 192 122 192 122 140 c 0,31,32
 122 99 122 99 161.5 69.5 c 128,-1,33
 201 40 201 40 257 40 c 0,34,35
 318 40 318 40 357.5 91 c 128,-1,36
 397 142 397 142 397 220 c 0,37,38
 397 259 397 259 392 337.5 c 128,-1,39
 387 416 387 416 387 455 c 0,40,41
 387 540 387 540 431 600 c 128,-1,42
 475 660 475 660 537 660 c 1,43,-1
 537 610 l 1,44,45
 497 599 497 599 472 556 c 128,-1,46
 447 513 447 513 447 455 c 0,47,48
 447 416 447 416 452 337.5 c 128,-1,49
 457 259 457 259 457 220 c 0,50,51
 457 125 457 125 398.5 57.5 c 128,-1,52
 340 -10 340 -10 257 -10 c 1,53,-1
 257 -10 l 1,0,1
EndSplineSet
EndChar

StartChar: u0A8A
Encoding: 2696 2696 25
Width: 532
GlyphClass: 2
Flags: W
LayerCount: 2
Fore
SplineSet
260 -10 m 1,0,1
 177 -10 177 -10 118.5 34 c 128,-1,2
 60 78 60 78 60 140 c 0,3,4
 60 181 60 181 83 216.5 c 128,-1,5
 106 252 106 252 145 270 c 1,6,7
 109 283 109 283 87 313.5 c 128,-1,8
 65 344 65 344 65 380 c 0,9,10
 65 427 65 427 107.5 461 c 128,-1,11
 150 495 150 495 210 495 c 0,12,13
 236 495 236 495 255 492.5 c 128,-1,14
 274 490 274 490 285 485 c 1,15,-1
 275 440 l 1,16,17
 261 445 261 445 245 447.5 c 128,-1,18
 229 450 229 450 210 450 c 0,19,20
 175 450 175 450 150 429.5 c 128,-1,21
 125 409 125 409 125 380 c 0,22,23
 125 343 125 343 157 316.5 c 128,-1,24
 189 290 189 290 235 290 c 2,25,-1
 280 290 l 1,26,-1
 280 245 l 1,27,-1
 235 245 l 2,28,29
 178 245 178 245 149 218.5 c 128,-1,30
 120 192 120 192 120 140 c 0,31,32
 120 99 120 99 161 69.5 c 128,-1,33
 202 40 202 40 260 40 c 0,34,35
 321 40 321 40 360.5 91 c 128,-1,36
 400 142 400 142 400 220 c 0,37,38
 400 258 400 258 395 335 c 128,-1,39
 390 412 390 412 390 450 c 0,40,41
 390 537 390 537 429.5 598.5 c 128,-1,42
 469 660 469 660 525 660 c 0,43,44
 571 660 571 660 603 620.5 c 128,-1,45
 635 581 635 581 635 525 c 1,46,-1
 580 525 l 1,47,48
 580 560 580 560 564 585 c 128,-1,49
 548 610 548 610 525 610 c 0,50,51
 494 610 494 610 472 563 c 128,-1,52
 450 516 450 516 450 450 c 0,53,54
 450 412 450 412 455 335 c 128,-1,55
 460 258 460 258 460 220 c 0,56,57
 460 125 460 125 401.5 57.5 c 128,-1,58
 343 -10 343 -10 260 -10 c 1,59,-1
 260 -10 l 1,0,1
EndSplineSet
EndChar

StartChar: u0A8B
Encoding: 2697 2697 26
Width: 550
GlyphClass: 2
Flags: W
LayerCount: 2
Fore
SplineSet
314 -10 m 1,0,1
 208 -10 208 -10 133.5 86.5 c 128,-1,2
 59 183 59 183 59 320 c 0,3,4
 59 470 59 470 145.5 579.5 c 128,-1,5
 232 689 232 689 359 700 c 1,6,-1
 359 650 l 1,7,8
 260 650 260 650 189.5 553.5 c 128,-1,9
 119 457 119 457 119 320 c 0,10,11
 119 204 119 204 176 122 c 128,-1,12
 233 40 233 40 314 40 c 0,13,14
 364 40 364 40 399 73.5 c 128,-1,15
 434 107 434 107 434 155 c 0,16,17
 434 201 434 201 394.5 233 c 128,-1,18
 355 265 355 265 299 265 c 2,19,-1
 259 265 l 1,20,-1
 259 315 l 1,21,-1
 299 315 l 2,22,23
 347 315 347 315 380.5 340 c 128,-1,24
 414 365 414 365 414 400 c 0,25,26
 414 429 414 429 386 449.5 c 128,-1,27
 358 470 358 470 319 470 c 0,28,29
 297 470 297 470 279 465 c 128,-1,30
 261 460 261 460 249 450 c 1,31,-1
 229 495 l 1,32,33
 250 507 250 507 273 513.5 c 128,-1,34
 296 520 296 520 319 520 c 0,35,36
 383 520 383 520 428.5 485 c 128,-1,37
 474 450 474 450 474 400 c 0,38,39
 474 363 474 363 453.5 332.5 c 128,-1,40
 433 302 433 302 399 290 c 1,41,42
 442 274 442 274 468 237 c 128,-1,43
 494 200 494 200 494 155 c 0,44,45
 494 87 494 87 441.5 38.5 c 128,-1,46
 389 -10 389 -10 314 -10 c 1,47,-1
 314 -10 l 1,0,1
EndSplineSet
EndChar

StartChar: u0A8C
Encoding: 2698 2698 27
Width: 735
GlyphClass: 2
Flags: W
LayerCount: 2
Fore
SplineSet
320 -10 m 1,0,1
 212 -10 212 -10 136 88 c 128,-1,2
 60 186 60 186 60 325 c 0,3,4
 60 509 60 509 149 619.5 c 128,-1,5
 238 730 238 730 385 730 c 0,6,7
 493 730 493 730 569 662.5 c 128,-1,8
 645 595 645 595 645 500 c 2,9,-1
 645 0 l 1,10,-1
 585 0 l 1,11,-1
 585 500 l 2,12,13
 585 575 585 575 526.5 627.5 c 128,-1,14
 468 680 468 680 385 680 c 0,15,16
 265 680 265 680 192.5 583 c 128,-1,17
 120 486 120 486 120 325 c 0,18,19
 120 207 120 207 178.5 123.5 c 128,-1,20
 237 40 237 40 320 40 c 0,21,22
 370 40 370 40 405 72 c 128,-1,23
 440 104 440 104 440 150 c 0,24,25
 440 198 440 198 402 231.5 c 128,-1,26
 364 265 364 265 310 265 c 2,27,-1
 270 265 l 1,28,-1
 270 315 l 1,29,-1
 310 315 l 2,30,31
 349 315 349 315 377 340 c 128,-1,32
 405 365 405 365 405 400 c 0,33,34
 405 427 405 427 383 446 c 128,-1,35
 361 465 361 465 330 465 c 0,36,37
 304 465 304 465 283 458.5 c 128,-1,38
 262 452 262 452 250 440 c 1,39,-1
 225 485 l 1,40,41
 249 502 249 502 276 511 c 128,-1,42
 303 520 303 520 330 520 c 0,43,44
 386 520 386 520 425.5 485 c 128,-1,45
 465 450 465 450 465 400 c 0,46,47
 465 361 465 361 447 332 c 128,-1,48
 429 303 429 303 400 295 c 1,49,50
 445 279 445 279 472.5 239 c 128,-1,51
 500 199 500 199 500 150 c 0,52,53
 500 84 500 84 447.5 37 c 128,-1,54
 395 -10 395 -10 320 -10 c 1,55,-1
 320 -10 l 1,0,1
EndSplineSet
EndChar

StartChar: u0A8D
Encoding: 2699 2699 28
Width: 879
GlyphClass: 2
Flags: W
LayerCount: 2
Fore
SplineSet
428 500 m 1,0,-1
 488 500 l 1,1,-1
 488 385 l 1,2,3
 498 358 498 358 527 341.5 c 128,-1,4
 556 325 556 325 593 325 c 0,5,6
 626 325 626 325 649.5 329 c 128,-1,7
 673 333 673 333 683 340 c 1,8,9
 669 350 669 350 661 364.5 c 128,-1,10
 653 379 653 379 653 395 c 0,11,12
 653 420 653 420 670.5 437.5 c 128,-1,13
 688 455 688 455 713 455 c 0,14,15
 740 455 740 455 759 437.5 c 128,-1,16
 778 420 778 420 778 395 c 0,17,18
 778 378 778 378 770 361 c 128,-1,19
 762 344 762 344 748 330 c 1,20,21
 788 296 788 296 810.5 251.5 c 128,-1,22
 833 207 833 207 833 160 c 0,23,24
 833 100 833 100 795 57.5 c 128,-1,25
 757 15 757 15 703 15 c 0,26,27
 686 15 686 15 671 19 c 128,-1,28
 656 23 656 23 643 30 c 1,29,-1
 658 80 l 1,30,31
 672 75 672 75 683 72.5 c 128,-1,32
 694 70 694 70 703 70 c 0,33,34
 732 70 732 70 752.5 96.5 c 128,-1,35
 773 123 773 123 773 160 c 0,36,37
 773 201 773 201 756 237.5 c 128,-1,38
 739 274 739 274 708 300 c 1,39,40
 687 288 687 288 657.5 281.5 c 128,-1,41
 628 275 628 275 593 275 c 0,42,43
 562 275 562 275 535 284 c 128,-1,44
 508 293 508 293 488 310 c 1,45,-1
 488 0 l 1,46,-1
 428 0 l 1,47,-1
 428 250 l 1,48,-1
 118 60 l 1,49,-1
 88 110 l 1,50,-1
 338 260 l 1,51,52
 329 310 329 310 293.5 342.5 c 128,-1,53
 258 375 258 375 213 375 c 0,54,55
 182 375 182 375 139.5 353 c 128,-1,56
 97 331 97 331 48 290 c 1,57,-1
 13 330 l 1,58,59
 61 378 61 378 113 404 c 128,-1,60
 165 430 165 430 213 430 c 0,61,62
 269 430 269 430 317 391.5 c 128,-1,63
 365 353 365 353 388 290 c 1,64,-1
 428 315 l 1,65,-1
 428 500 l 1,66,-1
 428 500 l 1,0,-1
EndSplineSet
EndChar

StartChar: u0A8F
Encoding: 2700 2700 29
Width: 610
GlyphClass: 2
Flags: W
LayerCount: 2
Fore
SplineSet
38 305 m 1,0,1
 38 369 38 369 82 414.5 c 128,-1,2
 126 460 126 460 188 460 c 0,3,4
 220 460 220 460 248.5 439.5 c 128,-1,5
 277 419 277 419 293 385 c 1,6,7
 305 419 305 419 339.5 439.5 c 128,-1,8
 374 460 374 460 418 460 c 0,9,10
 474 460 474 460 513.5 420.5 c 128,-1,11
 553 381 553 381 553 325 c 0,12,13
 553 279 553 279 528 239.5 c 128,-1,14
 503 200 503 200 461 177 c 0,15,16
 437 164 437 164 422.5 142 c 128,-1,17
 408 120 408 120 408 95 c 0,18,19
 408 68 408 68 424 49 c 128,-1,20
 440 30 440 30 463 30 c 256,21,22
 486 30 486 30 502 49 c 128,-1,23
 518 68 518 68 518 95 c 1,24,-1
 568 95 l 1,25,26
 568 47 568 47 537 13.5 c 128,-1,27
 506 -20 506 -20 463 -20 c 256,28,29
 420 -20 420 -20 389 12 c 128,-1,30
 358 44 358 44 358 90 c 0,31,32
 358 128 358 128 377.5 160.5 c 128,-1,33
 397 193 397 193 431 210 c 0,34,35
 464 227 464 227 483.5 256.5 c 128,-1,36
 503 286 503 286 503 320 c 0,37,38
 503 357 503 357 478 383.5 c 128,-1,39
 453 410 453 410 418 410 c 0,40,41
 377 410 377 410 347.5 379 c 128,-1,42
 318 348 318 348 318 305 c 2,43,-1
 318 200 l 1,44,-1
 268 200 l 1,45,-1
 268 305 l 2,46,47
 268 348 268 348 244.5 379 c 128,-1,48
 221 410 221 410 188 410 c 0,49,50
 147 410 147 410 117.5 379 c 128,-1,51
 88 348 88 348 88 305 c 0,52,53
 88 270 88 270 107 239.5 c 128,-1,54
 126 209 126 209 158 193 c 1,55,-1
 121 154 l 1,56,57
 82 177 82 177 60 217.5 c 128,-1,58
 38 258 38 258 38 305 c 1,59,-1
 38 305 l 1,0,1
EndSplineSet
EndChar

StartChar: u0A90
Encoding: 2701 2701 30
Width: 731
GlyphClass: 2
Flags: W
LayerCount: 2
Fore
SplineSet
26 280 m 1,0,1
 40 275 40 275 61 272.5 c 128,-1,2
 82 270 82 270 111 270 c 0,3,4
 172 270 172 270 209 298.5 c 128,-1,5
 246 327 246 327 246 375 c 0,6,7
 246 406 246 406 215 428 c 128,-1,8
 184 450 184 450 141 450 c 0,9,10
 107 450 107 450 81 443.5 c 128,-1,11
 55 437 55 437 41 425 c 1,12,-1
 21 470 l 1,13,14
 33 484 33 484 64.5 492 c 128,-1,15
 96 500 96 500 141 500 c 0,16,17
 209 500 209 500 257.5 463.5 c 128,-1,18
 306 427 306 427 306 375 c 256,19,20
 306 323 306 323 272.5 281 c 128,-1,21
 239 239 239 239 186 225 c 1,22,23
 186 184 186 184 215.5 154.5 c 128,-1,24
 245 125 245 125 286 125 c 0,25,26
 334 125 334 125 362.5 159 c 128,-1,27
 391 193 391 193 391 250 c 2,28,-1
 391 380 l 1,29,-1
 451 380 l 1,30,-1
 451 285 l 1,31,-1
 581 285 l 1,32,-1
 581 500 l 1,33,-1
 641 500 l 1,34,-1
 641 0 l 1,35,-1
 581 0 l 1,36,-1
 581 235 l 1,37,-1
 446 235 l 1,38,39
 446 166 446 166 400.5 120.5 c 128,-1,40
 355 75 355 75 286 75 c 0,41,42
 211 75 211 75 166 113 c 128,-1,43
 121 151 121 151 121 215 c 1,44,45
 102 215 102 215 78 217.5 c 128,-1,46
 54 220 54 220 26 225 c 1,47,-1
 26 280 l 1,48,-1
 26 280 l 1,0,1
606 505 m 1,49,50
 556 505 556 505 474 559.5 c 128,-1,51
 392 614 392 614 291 715 c 1,52,-1
 326 745 l 1,53,54
 417 654 417 654 491 604.5 c 128,-1,55
 565 555 565 555 611 555 c 0,56,57
 637 555 637 555 663 569.5 c 128,-1,58
 689 584 689 584 711 610 c 1,59,-1
 746 580 l 1,60,61
 726 545 726 545 688.5 525 c 128,-1,62
 651 505 651 505 606 505 c 1,63,-1
 606 505 l 1,49,50
EndSplineSet
EndChar

StartChar: u0A91
Encoding: 2703 2703 31
Width: 731
GlyphClass: 2
Flags: W
LayerCount: 2
Fore
SplineSet
26 280 m 1,0,1
 40 275 40 275 61 272.5 c 128,-1,2
 82 270 82 270 111 270 c 0,3,4
 172 270 172 270 209 298.5 c 128,-1,5
 246 327 246 327 246 375 c 0,6,7
 246 406 246 406 215 428 c 128,-1,8
 184 450 184 450 141 450 c 0,9,10
 107 450 107 450 81 443.5 c 128,-1,11
 55 437 55 437 41 425 c 1,12,-1
 21 470 l 1,13,14
 33 484 33 484 64.5 492 c 128,-1,15
 96 500 96 500 141 500 c 0,16,17
 209 500 209 500 257.5 463.5 c 128,-1,18
 306 427 306 427 306 375 c 256,19,20
 306 323 306 323 272.5 281 c 128,-1,21
 239 239 239 239 186 225 c 1,22,23
 186 184 186 184 215.5 154.5 c 128,-1,24
 245 125 245 125 286 125 c 0,25,26
 334 125 334 125 362.5 159 c 128,-1,27
 391 193 391 193 391 250 c 2,28,-1
 391 380 l 1,29,-1
 451 380 l 1,30,-1
 451 285 l 1,31,-1
 581 285 l 1,32,-1
 581 500 l 1,33,-1
 641 500 l 1,34,-1
 641 0 l 1,35,-1
 581 0 l 1,36,-1
 581 235 l 1,37,-1
 446 235 l 1,38,39
 446 166 446 166 400.5 120.5 c 128,-1,40
 355 75 355 75 286 75 c 0,41,42
 211 75 211 75 166 113 c 128,-1,43
 121 151 121 151 121 215 c 1,44,45
 102 215 102 215 78 217.5 c 128,-1,46
 54 220 54 220 26 225 c 1,47,-1
 26 280 l 1,48,-1
 26 280 l 1,0,1
286 710 m 1,49,-1
 286 755 l 1,50,51
 339 755 339 755 399.5 728 c 128,-1,52
 460 701 460 701 521 650 c 2,53,-1
 646 540 l 1,54,-1
 611 505 l 1,55,-1
 491 605 l 2,56,57
 430 656 430 656 377.5 683 c 128,-1,58
 325 710 325 710 286 710 c 1,59,-1
 286 710 l 1,49,-1
EndSplineSet
EndChar

StartChar: u0A93
Encoding: 2704 2704 32
Width: 731
GlyphClass: 2
Flags: W
LayerCount: 2
Fore
SplineSet
26 280 m 1,0,1
 40 275 40 275 61 272.5 c 128,-1,2
 82 270 82 270 111 270 c 0,3,4
 172 270 172 270 209 298.5 c 128,-1,5
 246 327 246 327 246 375 c 0,6,7
 246 406 246 406 215 428 c 128,-1,8
 184 450 184 450 141 450 c 0,9,10
 107 450 107 450 81 443.5 c 128,-1,11
 55 437 55 437 41 425 c 1,12,-1
 21 470 l 1,13,14
 33 484 33 484 64.5 492 c 128,-1,15
 96 500 96 500 141 500 c 0,16,17
 209 500 209 500 257.5 463.5 c 128,-1,18
 306 427 306 427 306 375 c 256,19,20
 306 323 306 323 272.5 281 c 128,-1,21
 239 239 239 239 186 225 c 1,22,23
 186 184 186 184 215.5 154.5 c 128,-1,24
 245 125 245 125 286 125 c 0,25,26
 334 125 334 125 362.5 159 c 128,-1,27
 391 193 391 193 391 250 c 2,28,-1
 391 380 l 1,29,-1
 451 380 l 1,30,-1
 451 285 l 1,31,-1
 581 285 l 1,32,-1
 581 500 l 1,33,-1
 641 500 l 1,34,-1
 641 0 l 1,35,-1
 581 0 l 1,36,-1
 581 235 l 1,37,-1
 446 235 l 1,38,39
 446 166 446 166 400.5 120.5 c 128,-1,40
 355 75 355 75 286 75 c 0,41,42
 211 75 211 75 166 113 c 128,-1,43
 121 151 121 151 121 215 c 1,44,45
 102 215 102 215 78 217.5 c 128,-1,46
 54 220 54 220 26 225 c 1,47,-1
 26 280 l 1,48,-1
 26 280 l 1,0,1
656 500 m 1,49,-1
 591 600 l 2,50,51
 556 649 556 649 522 677 c 128,-1,52
 488 705 488 705 461 705 c 1,53,-1
 461 750 l 1,54,55
 498 750 498 750 539.5 718 c 128,-1,56
 581 686 581 686 616 630 c 2,57,-1
 686 515 l 1,58,-1
 656 500 l 1,59,-1
 656 500 l 1,49,-1
226 705 m 1,60,-1
 226 750 l 1,61,62
 282 750 282 750 340.5 723 c 128,-1,63
 399 696 399 696 451 645 c 2,64,-1
 576 525 l 1,65,-1
 551 500 l 1,66,-1
 436 600 l 2,67,68
 375 651 375 651 321 678 c 128,-1,69
 267 705 267 705 226 705 c 1,70,-1
 226 705 l 1,60,-1
EndSplineSet
EndChar

StartChar: u0A94
Encoding: 2705 2705 33
Width: 968
GlyphClass: 2
Flags: W
LayerCount: 2
Fore
SplineSet
26 280 m 1,0,1
 40 275 40 275 61 272.5 c 128,-1,2
 82 270 82 270 111 270 c 0,3,4
 172 270 172 270 209 298.5 c 128,-1,5
 246 327 246 327 246 375 c 0,6,7
 246 406 246 406 215 428 c 128,-1,8
 184 450 184 450 141 450 c 0,9,10
 107 450 107 450 81 443.5 c 128,-1,11
 55 437 55 437 41 425 c 1,12,-1
 21 470 l 1,13,14
 33 484 33 484 64.5 492 c 128,-1,15
 96 500 96 500 141 500 c 0,16,17
 209 500 209 500 257.5 463.5 c 128,-1,18
 306 427 306 427 306 375 c 256,19,20
 306 323 306 323 272.5 281 c 128,-1,21
 239 239 239 239 186 225 c 1,22,23
 186 184 186 184 215.5 154.5 c 128,-1,24
 245 125 245 125 286 125 c 0,25,26
 334 125 334 125 362.5 159 c 128,-1,27
 391 193 391 193 391 250 c 2,28,-1
 391 380 l 1,29,-1
 451 380 l 1,30,-1
 451 285 l 1,31,-1
 581 285 l 1,32,-1
 581 500 l 1,33,-1
 641 500 l 1,34,-1
 641 0 l 1,35,-1
 581 0 l 1,36,-1
 581 235 l 1,37,-1
 446 235 l 1,38,39
 446 166 446 166 400.5 120.5 c 128,-1,40
 355 75 355 75 286 75 c 0,41,42
 211 75 211 75 166 113 c 128,-1,43
 121 151 121 151 121 215 c 1,44,45
 102 215 102 215 78 217.5 c 128,-1,46
 54 220 54 220 26 225 c 1,47,-1
 26 280 l 1,48,-1
 26 280 l 1,0,1
851 530 m 1,49,50
 785 530 785 530 702.5 585 c 128,-1,51
 620 640 620 640 536 740 c 1,52,-1
 576 770 l 1,53,54
 654 677 654 677 727.5 626 c 128,-1,55
 801 575 801 575 856 575 c 0,56,57
 878 575 878 575 900.5 587 c 128,-1,58
 923 599 923 599 941 620 c 1,59,-1
 976 585 l 1,60,61
 961 559 961 559 927.5 544.5 c 128,-1,62
 894 530 894 530 851 530 c 1,63,-1
 851 530 l 1,49,50
821 520 m 1,64,-1
 881 520 l 1,65,-1
 881 20 l 1,66,-1
 821 20 l 1,67,-1
 821 520 l 1,68,-1
 821 520 l 1,64,-1
EndSplineSet
EndChar

StartChar: u0A95
Encoding: 2707 2707 34
Width: 971
GlyphClass: 2
Flags: W
LayerCount: 2
Fore
SplineSet
26 280 m 1,0,1
 40 275 40 275 61 272.5 c 128,-1,2
 82 270 82 270 111 270 c 0,3,4
 172 270 172 270 209 298.5 c 128,-1,5
 246 327 246 327 246 375 c 0,6,7
 246 406 246 406 215 428 c 128,-1,8
 184 450 184 450 141 450 c 0,9,10
 107 450 107 450 81 443.5 c 128,-1,11
 55 437 55 437 41 425 c 1,12,-1
 21 470 l 1,13,14
 33 484 33 484 64.5 492 c 128,-1,15
 96 500 96 500 141 500 c 0,16,17
 209 500 209 500 257.5 463.5 c 128,-1,18
 306 427 306 427 306 375 c 256,19,20
 306 323 306 323 272.5 281 c 128,-1,21
 239 239 239 239 186 225 c 1,22,23
 186 184 186 184 215.5 154.5 c 128,-1,24
 245 125 245 125 286 125 c 0,25,26
 334 125 334 125 362.5 159 c 128,-1,27
 391 193 391 193 391 250 c 2,28,-1
 391 380 l 1,29,-1
 451 380 l 1,30,-1
 451 285 l 1,31,-1
 581 285 l 1,32,-1
 581 500 l 1,33,-1
 641 500 l 1,34,-1
 641 0 l 1,35,-1
 581 0 l 1,36,-1
 581 235 l 1,37,-1
 446 235 l 1,38,39
 446 166 446 166 400.5 120.5 c 128,-1,40
 355 75 355 75 286 75 c 0,41,42
 211 75 211 75 166 113 c 128,-1,43
 121 151 121 151 121 215 c 1,44,45
 102 215 102 215 78 217.5 c 128,-1,46
 54 220 54 220 26 225 c 1,47,-1
 26 280 l 1,48,-1
 26 280 l 1,0,1
521 710 m 1,49,-1
 521 755 l 1,50,51
 574 755 574 755 634.5 728 c 128,-1,52
 695 701 695 701 756 650 c 2,53,-1
 881 540 l 1,54,-1
 846 505 l 1,55,-1
 726 605 l 2,56,57
 665 656 665 656 612.5 683 c 128,-1,58
 560 710 560 710 521 710 c 1,59,-1
 521 710 l 1,49,-1
821 500 m 1,60,-1
 881 500 l 1,61,-1
 881 0 l 1,62,-1
 821 0 l 1,63,-1
 821 500 l 1,64,-1
 821 500 l 1,60,-1
EndSplineSet
EndChar

StartChar: u0A96
Encoding: 2708 2708 35
Width: 969
GlyphClass: 2
Flags: W
LayerCount: 2
Fore
SplineSet
26 280 m 1,0,1
 40 275 40 275 61 272.5 c 128,-1,2
 82 270 82 270 111 270 c 0,3,4
 172 270 172 270 209 298.5 c 128,-1,5
 246 327 246 327 246 375 c 0,6,7
 246 406 246 406 215 428 c 128,-1,8
 184 450 184 450 141 450 c 0,9,10
 107 450 107 450 81 443.5 c 128,-1,11
 55 437 55 437 41 425 c 1,12,-1
 21 470 l 1,13,14
 33 484 33 484 64.5 492 c 128,-1,15
 96 500 96 500 141 500 c 0,16,17
 209 500 209 500 257.5 463.5 c 128,-1,18
 306 427 306 427 306 375 c 256,19,20
 306 323 306 323 272.5 281 c 128,-1,21
 239 239 239 239 186 225 c 1,22,23
 186 184 186 184 215.5 154.5 c 128,-1,24
 245 125 245 125 286 125 c 0,25,26
 334 125 334 125 362.5 159 c 128,-1,27
 391 193 391 193 391 250 c 2,28,-1
 391 380 l 1,29,-1
 451 380 l 1,30,-1
 451 285 l 1,31,-1
 581 285 l 1,32,-1
 581 500 l 1,33,-1
 641 500 l 1,34,-1
 641 0 l 1,35,-1
 581 0 l 1,36,-1
 581 235 l 1,37,-1
 446 235 l 1,38,39
 446 166 446 166 400.5 120.5 c 128,-1,40
 355 75 355 75 286 75 c 0,41,42
 211 75 211 75 166 113 c 128,-1,43
 121 151 121 151 121 215 c 1,44,45
 102 215 102 215 78 217.5 c 128,-1,46
 54 220 54 220 26 225 c 1,47,-1
 26 280 l 1,48,-1
 26 280 l 1,0,1
851 515 m 1,49,-1
 786 615 l 2,50,51
 751 664 751 664 717 692 c 128,-1,52
 683 720 683 720 656 720 c 1,53,-1
 656 765 l 1,54,55
 700 765 700 765 746.5 730.5 c 128,-1,56
 793 696 793 696 831 635 c 2,57,-1
 891 540 l 1,58,-1
 851 515 l 1,59,-1
 851 515 l 1,49,-1
391 715 m 1,60,-1
 391 760 l 1,61,62
 444 760 444 760 504.5 733 c 128,-1,63
 565 706 565 706 626 655 c 2,64,-1
 751 545 l 1,65,-1
 716 510 l 1,66,-1
 596 610 l 2,67,68
 535 661 535 661 482.5 688 c 128,-1,69
 430 715 430 715 391 715 c 1,70,-1
 391 715 l 1,60,-1
821 510 m 1,71,-1
 881 510 l 1,72,-1
 881 10 l 1,73,-1
 821 10 l 1,74,-1
 821 510 l 1,75,-1
 821 510 l 1,71,-1
EndSplineSet
EndChar

StartChar: u0A97
Encoding: 2709 2709 36
Width: 474
GlyphClass: 2
Flags: W
AnchorPoint: "Anchor-2" 224 0 basechar 0
AnchorPoint: "Anchor-1" 234 -12 basechar 0
AnchorPoint: "Anchor-0" 260 0 basechar 0
LayerCount: 2
Fore
SplineSet
232 -10 m 1,0,1
 168 -10 168 -10 115 14 c 128,-1,2
 62 38 62 38 32 80 c 1,3,-1
 72 110 l 1,4,5
 100 77 100 77 142 58.5 c 128,-1,6
 184 40 184 40 232 40 c 0,7,8
 284 40 284 40 320.5 65 c 128,-1,9
 357 90 357 90 357 125 c 0,10,11
 357 155 357 155 326 187.5 c 128,-1,12
 295 220 295 220 242 245 c 1,13,-1
 52 180 l 1,14,-1
 32 225 l 1,15,-1
 187 280 l 1,16,17
 134 305 134 305 103 337.5 c 128,-1,18
 72 370 72 370 72 400 c 0,19,20
 72 446 72 446 127.5 478 c 128,-1,21
 183 510 183 510 262 510 c 0,22,23
 302 510 302 510 336.5 503.5 c 128,-1,24
 371 497 371 497 397 485 c 1,25,-1
 382 435 l 1,26,27
 356 447 356 447 326.5 453.5 c 128,-1,28
 297 460 297 460 267 460 c 0,29,30
 211 460 211 460 171.5 442.5 c 128,-1,31
 132 425 132 425 132 400 c 0,32,33
 132 377 132 377 165 351 c 128,-1,34
 198 325 198 325 252 305 c 1,35,-1
 412 360 l 1,36,-1
 437 315 l 1,37,-1
 302 270 l 1,38,39
 360 243 360 243 392 201 c 128,-1,40
 424 159 424 159 417 120 c 1,41,42
 417 66 417 66 363 28 c 128,-1,43
 309 -10 309 -10 232 -10 c 1,44,-1
 232 -10 l 1,0,1
EndSplineSet
EndChar

StartChar: u0A98
Encoding: 2710 2710 37
Width: 636
GlyphClass: 2
Flags: W
AnchorPoint: "Anchor-2" 228 42 basechar 0
LayerCount: 2
Fore
SplineSet
91 235 m 1,0,-1
 91 400 l 2,1,2
 91 421 91 421 82 435.5 c 128,-1,3
 73 450 73 450 61 450 c 2,4,-1
 21 450 l 1,5,-1
 21 500 l 1,6,-1
 86 500 l 2,7,8
 113 500 113 500 132 479.5 c 128,-1,9
 151 459 151 459 151 430 c 2,10,-1
 151 235 l 2,11,12
 151 198 151 198 174.5 171.5 c 128,-1,13
 198 145 198 145 231 145 c 0,14,15
 262 145 262 145 284 168.5 c 128,-1,16
 306 192 306 192 306 225 c 2,17,-1
 306 395 l 1,18,-1
 366 395 l 1,19,-1
 366 325 l 1,20,-1
 486 325 l 1,21,-1
 486 500 l 1,22,-1
 546 500 l 1,23,-1
 546 0 l 1,24,-1
 486 0 l 1,25,-1
 486 270 l 1,26,-1
 366 270 l 1,27,-1
 366 215 l 2,28,29
 366 163 366 163 325 126.5 c 128,-1,30
 284 90 284 90 226 90 c 0,31,32
 170 90 170 90 130.5 132.5 c 128,-1,33
 91 175 91 175 91 235 c 1,34,-1
 91 235 l 1,0,-1
EndSplineSet
EndChar

StartChar: u0A99
Encoding: 2711 2711 38
Width: 578
GlyphClass: 2
Flags: W
AnchorPoint: "Anchor-2" 178 100 basechar 0
LayerCount: 2
Fore
SplineSet
428 500 m 1,0,-1
 488 500 l 1,1,-1
 488 0 l 1,2,-1
 428 0 l 1,3,-1
 428 500 l 1,4,-1
 428 500 l 1,0,-1
173 145 m 1,5,6
 128 145 128 145 87 167.5 c 128,-1,7
 46 190 46 190 18 230 c 1,8,-1
 53 265 l 1,9,10
 70 235 70 235 102.5 217.5 c 128,-1,11
 135 200 135 200 173 200 c 0,12,13
 225 200 225 200 261.5 236.5 c 128,-1,14
 298 273 298 273 298 325 c 0,15,16
 298 375 298 375 263 410 c 128,-1,17
 228 445 228 445 178 445 c 0,18,19
 152 445 152 445 129.5 437 c 128,-1,20
 107 429 107 429 93 415 c 1,21,-1
 53 450 l 1,22,23
 77 474 77 474 111 487 c 128,-1,24
 145 500 145 500 183 500 c 0,25,26
 255 500 255 500 306.5 448.5 c 128,-1,27
 358 397 358 397 358 325 c 0,28,29
 358 250 358 250 304 197.5 c 128,-1,30
 250 145 250 145 173 145 c 1,31,-1
 173 145 l 1,5,6
EndSplineSet
EndChar

StartChar: u0A9A
Encoding: 2712 2712 39
Width: 560
GlyphClass: 2
Flags: W
AnchorPoint: "Anchor-2" 152 32 basechar 0
LayerCount: 2
Fore
SplineSet
410 500 m 1,0,-1
 470 500 l 1,1,-1
 470 0 l 1,2,-1
 410 0 l 1,3,-1
 410 120 l 1,4,5
 384 82 384 82 336 61 c 128,-1,6
 288 40 288 40 230 40 c 0,7,8
 160 40 160 40 110 81 c 128,-1,9
 60 122 60 122 60 180 c 0,10,11
 60 216 60 216 77.5 246 c 128,-1,12
 95 276 95 276 125 290 c 1,13,14
 95 304 95 304 77.5 331 c 128,-1,15
 60 358 60 358 60 390 c 0,16,17
 60 436 60 436 96.5 468 c 128,-1,18
 133 500 133 500 185 500 c 2,19,-1
 275 500 l 1,20,-1
 275 450 l 1,21,-1
 205 450 l 2,22,23
 170 450 170 450 145 431.5 c 128,-1,24
 120 413 120 413 120 387 c 256,25,26
 120 361 120 361 145 343 c 128,-1,27
 170 325 170 325 205 325 c 2,28,-1
 285 325 l 1,29,-1
 285 275 l 1,30,-1
 210 275 l 2,31,32
 173 275 173 275 146.5 247 c 128,-1,33
 120 219 120 219 120 180 c 0,34,35
 120 143 120 143 152 116.5 c 128,-1,36
 184 90 184 90 230 90 c 0,37,38
 282 90 282 90 329.5 116.5 c 128,-1,39
 377 143 377 143 410 190 c 1,40,-1
 410 500 l 1,41,-1
 410 500 l 1,0,-1
EndSplineSet
EndChar

StartChar: u0A9B
Encoding: 2713 2713 40
Width: 539
GlyphClass: 2
Flags: W
AnchorPoint: "Anchor-2" 264 0 basechar 0
AnchorPoint: "Anchor-1" 262 0 basechar 0
AnchorPoint: "Anchor-0" 288 -8 basechar 0
LayerCount: 2
Fore
SplineSet
261 -10 m 1,0,1
 173 -10 173 -10 106.5 41 c 128,-1,2
 40 92 40 92 26 170 c 1,3,-1
 71 185 l 1,4,5
 89 119 89 119 142 77 c 128,-1,6
 195 35 195 35 261 35 c 0,7,8
 319 35 319 35 360 70 c 128,-1,9
 401 105 401 105 401 155 c 0,10,11
 401 194 401 194 373 222 c 128,-1,12
 345 250 345 250 306 250 c 2,13,-1
 216 250 l 2,14,15
 160 250 160 250 120.5 283.5 c 128,-1,16
 81 317 81 317 81 365 c 0,17,18
 81 421 81 421 125 460.5 c 128,-1,19
 169 500 169 500 231 500 c 2,20,-1
 396 500 l 1,21,-1
 396 450 l 1,22,-1
 226 450 l 2,23,24
 191 450 191 450 166 426.5 c 128,-1,25
 141 403 141 403 141 370 c 0,26,27
 141 341 141 341 163 320.5 c 128,-1,28
 185 300 185 300 216 300 c 2,29,-1
 316 300 l 2,30,31
 376 300 376 300 418.5 257.5 c 128,-1,32
 461 215 461 215 461 155 c 0,33,34
 461 87 461 87 402.5 38.5 c 128,-1,35
 344 -10 344 -10 261 -10 c 1,36,-1
 261 -10 l 1,0,1
461 315 m 1,37,38
 440 315 440 315 425.5 329.5 c 128,-1,39
 411 344 411 344 411 365 c 0,40,41
 411 388 411 388 427 404 c 128,-1,42
 443 420 443 420 466 420 c 0,43,44
 485 420 485 420 498 405.5 c 128,-1,45
 511 391 511 391 511 370 c 0,46,47
 511 347 511 347 496.5 331 c 128,-1,48
 482 315 482 315 461 315 c 1,49,-1
 461 315 l 1,37,38
EndSplineSet
EndChar

StartChar: u0A9C
Encoding: 2714 2714 41
Width: 638
GlyphClass: 2
Flags: W
AnchorPoint: "Anchor-2" 290 58 basechar 0
LayerCount: 2
Fore
SplineSet
33 265 m 1,0,-1
 118 265 l 2,1,2
 186 265 186 265 227 293.5 c 128,-1,3
 268 322 268 322 268 370 c 0,4,5
 268 409 268 409 233 437 c 128,-1,6
 198 465 198 465 148 465 c 0,7,8
 120 465 120 465 94 456 c 128,-1,9
 68 447 68 447 48 430 c 1,10,-1
 18 470 l 1,11,12
 40 492 40 492 75 503.5 c 128,-1,13
 110 515 110 515 153 515 c 0,14,15
 225 515 225 515 276.5 471 c 128,-1,16
 328 427 328 427 328 365 c 0,17,18
 328 307 328 307 285 264 c 128,-1,19
 242 221 242 221 178 215 c 1,20,21
 178 169 178 169 213 137 c 128,-1,22
 248 105 248 105 298 105 c 0,23,24
 352 105 352 105 404.5 157 c 128,-1,25
 457 209 457 209 488 295 c 1,26,-1
 488 500 l 1,27,-1
 548 500 l 1,28,-1
 548 0 l 1,29,-1
 488 0 l 1,30,-1
 488 180 l 1,31,32
 455 122 455 122 404 88.5 c 128,-1,33
 353 55 353 55 298 55 c 0,34,35
 220 55 220 55 169 100.5 c 128,-1,36
 118 146 118 146 118 215 c 1,37,-1
 33 215 l 1,38,-1
 33 265 l 1,39,-1
 33 265 l 1,0,-1
EndSplineSet
EndChar

StartChar: u0A9D
Encoding: 2715 2715 42
Width: 622
GlyphClass: 2
Flags: W
AnchorPoint: "Anchor-2" 296 0 basechar 0
AnchorPoint: "Anchor-1" 288 -6 basechar 0
AnchorPoint: "Anchor-0" 430 -6 basechar 0
LayerCount: 2
Fore
SplineSet
292 -5 m 1,0,1
 197 -5 197 -5 129.5 42 c 128,-1,2
 62 89 62 89 62 155 c 0,3,4
 62 198 62 198 84 232.5 c 128,-1,5
 106 267 106 267 142 280 c 1,6,7
 107 289 107 289 84.5 318.5 c 128,-1,8
 62 348 62 348 62 385 c 0,9,10
 62 435 62 435 106 470 c 128,-1,11
 150 505 150 505 212 505 c 2,12,-1
 262 505 l 1,13,-1
 262 455 l 1,14,-1
 232 455 l 2,15,16
 180 455 180 455 151 436.5 c 128,-1,17
 122 418 122 418 122 385 c 0,18,19
 122 354 122 354 153 332 c 128,-1,20
 184 310 184 310 227 310 c 2,21,-1
 272 310 l 1,22,-1
 272 260 l 1,23,-1
 232 260 l 2,24,25
 186 260 186 260 154 229 c 128,-1,26
 122 198 122 198 122 155 c 0,27,28
 122 103 122 103 168.5 71.5 c 128,-1,29
 215 40 215 40 292 40 c 0,30,31
 376 40 376 40 437.5 99 c 128,-1,32
 499 158 499 158 507 245 c 1,33,34
 493 233 493 233 474.5 226.5 c 128,-1,35
 456 220 456 220 437 220 c 0,36,37
 381 220 381 220 341.5 259.5 c 128,-1,38
 302 299 302 299 302 355 c 0,39,40
 302 415 302 415 343 457.5 c 128,-1,41
 384 500 384 500 442 500 c 0,42,43
 494 500 494 500 530.5 450 c 128,-1,44
 567 400 567 400 567 330 c 0,45,46
 567 178 567 178 492 86.5 c 128,-1,47
 417 -5 417 -5 292 -5 c 1,48,-1
 292 -5 l 1,0,1
437 265 m 1,49,50
 468 265 468 265 490 293 c 128,-1,51
 512 321 512 321 512 360 c 0,52,53
 512 397 512 397 491.5 423.5 c 128,-1,54
 471 450 471 450 442 450 c 0,55,56
 409 450 409 450 385.5 422 c 128,-1,57
 362 394 362 394 362 355 c 0,58,59
 362 318 362 318 384 291.5 c 128,-1,60
 406 265 406 265 437 265 c 1,61,-1
 437 265 l 1,49,50
EndSplineSet
EndChar

StartChar: u0A9E
Encoding: 2716 2716 43
Width: 594
GlyphClass: 2
Flags: W
AnchorPoint: "Anchor-2" 368 4 basechar 0
AnchorPoint: "Anchor-1" 372 0 basechar 0
AnchorPoint: "Anchor-0" 526 0 basechar 0
LayerCount: 2
Fore
SplineSet
367 0 m 1,0,1
 317 0 317 0 282 31 c 128,-1,2
 247 62 247 62 247 105 c 0,3,4
 247 146 247 146 271.5 192.5 c 128,-1,5
 296 239 296 239 342 285 c 1,6,7
 283 369 283 369 235.5 414.5 c 128,-1,8
 188 460 188 460 157 460 c 0,9,10
 130 460 130 460 111 436.5 c 128,-1,11
 92 413 92 413 92 380 c 0,12,13
 92 351 92 351 109.5 330.5 c 128,-1,14
 127 310 127 310 152 310 c 0,15,16
 172 310 172 310 188.5 319.5 c 128,-1,17
 205 329 205 329 212 345 c 1,18,-1
 252 315 l 1,19,20
 237 289 237 289 210.5 274.5 c 128,-1,21
 184 260 184 260 152 260 c 0,22,23
 102 260 102 260 67 295 c 128,-1,24
 32 330 32 330 32 380 c 0,25,26
 32 434 32 434 68.5 472 c 128,-1,27
 105 510 105 510 157 510 c 0,28,29
 208 510 208 510 267 459 c 128,-1,30
 326 408 326 408 377 320 c 1,31,32
 413 363 413 363 466 429.5 c 128,-1,33
 519 496 519 496 542 510 c 1,34,-1
 582 480 l 1,35,36
 530 428 530 428 486 376.5 c 128,-1,37
 442 325 442 325 407 275 c 1,38,39
 441 226 441 226 459 182.5 c 128,-1,40
 477 139 477 139 477 105 c 0,41,42
 477 62 477 62 445 31 c 128,-1,43
 413 0 413 0 367 0 c 1,44,-1
 367 0 l 1,0,1
367 50 m 1,45,46
 388 50 388 50 402.5 66 c 128,-1,47
 417 82 417 82 417 105 c 0,48,49
 417 131 417 131 404 163 c 128,-1,50
 391 195 391 195 367 230 c 1,51,52
 338 188 338 188 322.5 156 c 128,-1,53
 307 124 307 124 307 105 c 0,54,55
 307 82 307 82 324.5 66 c 128,-1,56
 342 50 342 50 367 50 c 1,57,-1
 367 50 l 1,45,46
EndSplineSet
EndChar

StartChar: u0A9F
Encoding: 2717 2717 44
Width: 620
GlyphClass: 2
Flags: W
AnchorPoint: "Anchor-2" 148 356 basechar 0
LayerCount: 2
Fore
SplineSet
420 -10 m 1,0,1
 381 -10 381 -10 351 0.5 c 128,-1,2
 321 11 321 11 305 30 c 1,3,-1
 335 65 l 1,4,5
 361 50 361 50 380 42.5 c 128,-1,6
 399 35 399 35 410 35 c 0,7,8
 456 35 456 35 488 68 c 128,-1,9
 520 101 520 101 520 147 c 0,10,11
 520 194 520 194 488 227 c 128,-1,12
 456 260 456 260 410 260 c 0,13,14
 391 260 391 260 373 253.5 c 128,-1,15
 355 247 355 247 341 235 c 1,16,17
 334 152 334 152 274.5 96 c 128,-1,18
 215 40 215 40 135 40 c 0,19,20
 102 40 102 40 72.5 50.5 c 128,-1,21
 43 61 43 61 20 80 c 1,22,-1
 40 120 l 1,23,24
 57 105 57 105 81.5 97.5 c 128,-1,25
 106 90 106 90 135 90 c 0,26,27
 197 90 197 90 241 142.5 c 128,-1,28
 285 195 285 195 285 270 c 0,29,30
 285 342 285 342 247 393.5 c 128,-1,31
 209 445 209 445 155 445 c 0,32,33
 131 445 131 445 105 436 c 128,-1,34
 79 427 79 427 55 410 c 1,35,-1
 30 445 l 1,36,37
 59 469 59 469 91 482 c 128,-1,38
 123 495 123 495 155 495 c 0,39,40
 216 495 216 495 266.5 452 c 128,-1,41
 317 409 317 409 335 340 c 1,42,-1
 525 510 l 1,43,-1
 560 475 l 1,44,-1
 355 300 l 1,45,46
 366 305 366 305 379.5 307.5 c 128,-1,47
 393 310 393 310 410 310 c 0,48,49
 478 310 478 310 526.5 262 c 128,-1,50
 575 214 575 214 575 146 c 0,51,52
 575 81 575 81 529.5 35.5 c 128,-1,53
 484 -10 484 -10 420 -10 c 1,54,-1
 420 -10 l 1,0,1
EndSplineSet
EndChar

StartChar: u0AA0
Encoding: 2718 2718 45
Width: 673
GlyphClass: 2
Flags: W
AnchorPoint: "Anchor-2" 322 142 basechar 0
LayerCount: 2
Fore
SplineSet
23 230 m 1,0,-1
 63 260 l 1,1,2
 88 216 88 216 125.5 190.5 c 128,-1,3
 163 165 163 165 203 165 c 0,4,5
 255 165 255 165 291.5 204.5 c 128,-1,6
 328 244 328 244 328 300 c 256,7,8
 328 356 328 356 291.5 395.5 c 128,-1,9
 255 435 255 435 203 435 c 0,10,11
 170 435 170 435 137 418 c 128,-1,12
 104 401 104 401 78 370 c 1,13,-1
 43 410 l 1,14,15
 75 448 75 448 117 469 c 128,-1,16
 159 490 159 490 203 490 c 0,17,18
 281 490 281 490 335 441 c 128,-1,19
 389 392 389 392 383 325 c 1,20,-1
 523 325 l 1,21,-1
 523 500 l 1,22,-1
 583 500 l 1,23,-1
 583 0 l 1,24,-1
 523 0 l 1,25,-1
 523 275 l 1,26,-1
 383 275 l 1,27,28
 377 207 377 207 325 161 c 128,-1,29
 273 115 273 115 203 115 c 0,30,31
 150 115 150 115 102 146 c 128,-1,32
 54 177 54 177 23 230 c 1,33,-1
 23 230 l 1,0,-1
EndSplineSet
EndChar

StartChar: u0AA1
Encoding: 2719 2719 46
Width: 442
GlyphClass: 2
Flags: W
AnchorPoint: "Anchor-2" 216 0 basechar 0
AnchorPoint: "Anchor-1" 236 -12 basechar 0
AnchorPoint: "Anchor-0" 238 0 basechar 0
LayerCount: 2
Fore
SplineSet
226 -10 m 1,0,1
 147 -10 147 -10 91.5 35.5 c 128,-1,2
 36 81 36 81 36 145 c 0,3,4
 36 195 36 195 77.5 239 c 128,-1,5
 119 283 119 283 186 305 c 0,6,7
 240 325 240 325 273 349.5 c 128,-1,8
 306 374 306 374 306 395 c 0,9,10
 306 424 306 424 282.5 444.5 c 128,-1,11
 259 465 259 465 226 465 c 0,12,13
 204 465 204 465 176 451 c 128,-1,14
 148 437 148 437 116 410 c 1,15,-1
 86 445 l 1,16,17
 117 476 117 476 153.5 493 c 128,-1,18
 190 510 190 510 226 510 c 0,19,20
 284 510 284 510 325 478 c 128,-1,21
 366 446 366 446 366 400 c 0,22,23
 366 359 366 359 323 321 c 128,-1,24
 280 283 280 283 211 265 c 0,25,26
 159 246 159 246 127.5 213 c 128,-1,27
 96 180 96 180 96 145 c 0,28,29
 96 99 96 99 134 67 c 128,-1,30
 172 35 172 35 226 35 c 0,31,32
 268 35 268 35 310 64.5 c 128,-1,33
 352 94 352 94 381 145 c 1,34,-1
 421 120 l 1,35,36
 393 61 393 61 340 25.5 c 128,-1,37
 287 -10 287 -10 226 -10 c 1,38,-1
 226 -10 l 1,0,1
EndSplineSet
EndChar

StartChar: u0AA2
Encoding: 2720 2720 47
Width: 495
GlyphClass: 2
Flags: W
AnchorPoint: "Anchor-2" 256 -16 basechar 0
AnchorPoint: "Anchor-1" 248 -12 basechar 0
AnchorPoint: "Anchor-0" 272 -8 basechar 0
LayerCount: 2
Fore
SplineSet
256 -15 m 1,0,1
 170 -15 170 -15 109 36.5 c 128,-1,2
 48 88 48 88 48 160 c 0,3,4
 48 207 48 207 77.5 251.5 c 128,-1,5
 107 296 107 296 158 325 c 1,6,7
 124 337 124 337 103.5 359 c 128,-1,8
 83 381 83 381 83 405 c 0,9,10
 83 444 83 444 119.5 472 c 128,-1,11
 156 500 156 500 208 500 c 2,12,-1
 398 500 l 1,13,-1
 398 450 l 1,14,-1
 218 450 l 2,15,16
 187 450 187 450 165 438.5 c 128,-1,17
 143 427 143 427 143 410 c 0,18,19
 143 384 143 384 176.5 366 c 128,-1,20
 210 348 210 348 257 348 c 0,21,22
 338 348 338 348 395.5 296 c 128,-1,23
 453 244 453 244 453 170 c 0,24,25
 453 93 453 93 395.5 39 c 128,-1,26
 338 -15 338 -15 256 -15 c 1,27,-1
 256 -15 l 1,0,1
253 25 m 1,28,29
 311 25 311 25 352 66 c 128,-1,30
 393 107 393 107 393 165 c 0,31,32
 393 221 393 221 353.5 260.5 c 128,-1,33
 314 300 314 300 258 300 c 0,34,35
 196 300 196 300 152 259 c 128,-1,36
 108 218 108 218 108 160 c 0,37,38
 108 104 108 104 150.5 64.5 c 128,-1,39
 193 25 193 25 253 25 c 1,40,-1
 253 25 l 1,28,29
EndSplineSet
EndChar

StartChar: u0AA3
Encoding: 2721 2721 48
Width: 498
GlyphClass: 2
Flags: W
AnchorPoint: "Anchor-2" 264 -8 basechar 0
AnchorPoint: "Anchor-1" 268 -12 basechar 0
AnchorPoint: "Anchor-0" 272 -8 basechar 0
LayerCount: 2
Fore
SplineSet
265 -10 m 1,0,1
 176 -10 176 -10 108.5 41 c 128,-1,2
 41 92 41 92 27 170 c 1,3,-1
 72 185 l 1,4,5
 90 119 90 119 143 77 c 128,-1,6
 196 35 196 35 262 35 c 0,7,8
 320 35 320 35 361 70 c 128,-1,9
 402 105 402 105 402 155 c 0,10,11
 402 192 402 192 371 218.5 c 128,-1,12
 340 245 340 245 297 245 c 2,13,-1
 217 245 l 2,14,15
 159 245 159 245 118 281.5 c 128,-1,16
 77 318 77 318 77 370 c 0,17,18
 77 424 77 424 122.5 462 c 128,-1,19
 168 500 168 500 232 500 c 2,20,-1
 397 500 l 1,21,-1
 397 450 l 1,22,-1
 227 450 l 2,23,24
 190 450 190 450 163.5 426.5 c 128,-1,25
 137 403 137 403 137 370 c 256,26,27
 137 337 137 337 162 313.5 c 128,-1,28
 187 290 187 290 222 290 c 2,29,-1
 317 290 l 2,30,31
 377 290 377 290 419.5 250.5 c 128,-1,32
 462 211 462 211 462 155 c 0,33,34
 462 87 462 87 404.5 38.5 c 128,-1,35
 347 -10 347 -10 265 -10 c 1,36,-1
 265 -10 l 1,0,1
EndSplineSet
EndChar

StartChar: u0AA4
Encoding: 2722 2722 49
Width: 478
GlyphClass: 2
Flags: W
AnchorPoint: "Anchor-2" 240 -8 basechar 0
AnchorPoint: "Anchor-1" 238 -12 basechar 0
AnchorPoint: "Anchor-0" 264 0 basechar 0
LayerCount: 2
Fore
SplineSet
239 -10 m 1,0,1
 154 -10 154 -10 94 37 c 128,-1,2
 34 84 34 84 34 150 c 0,3,4
 34 208 34 208 83.5 255 c 128,-1,5
 133 302 133 302 209 315 c 0,6,7
 262 329 262 329 295.5 353 c 128,-1,8
 329 377 329 377 329 400 c 0,9,10
 329 427 329 427 301 446 c 128,-1,11
 273 465 273 465 234 465 c 0,12,13
 212 465 212 465 187.5 456 c 128,-1,14
 163 447 163 447 139 430 c 1,15,-1
 104 465 l 1,16,17
 130 487 130 487 165 498.5 c 128,-1,18
 200 510 200 510 239 510 c 0,19,20
 301 510 301 510 345 479 c 128,-1,21
 389 448 389 448 389 405 c 0,22,23
 389 369 389 369 348 332 c 128,-1,24
 307 295 307 295 239 270 c 1,25,26
 176 259 176 259 135 225 c 128,-1,27
 94 191 94 191 94 150 c 0,28,29
 94 102 94 102 136 68 c 128,-1,30
 178 34 178 34 237 34 c 0,31,32
 249 34 249 34 261 35.5 c 128,-1,33
 273 37 273 37 284 40 c 1,34,35
 256 56 256 56 240 80 c 128,-1,36
 224 104 224 104 224 130 c 0,37,38
 224 171 224 171 257.5 200.5 c 128,-1,39
 291 230 291 230 339 230 c 0,40,41
 382 230 382 230 413 200.5 c 128,-1,42
 444 171 444 171 444 130 c 0,43,44
 444 72 444 72 384 31 c 128,-1,45
 324 -10 324 -10 239 -10 c 1,46,-1
 239 -10 l 1,0,1
339 60 m 1,47,48
 358 60 358 60 371 80.5 c 128,-1,49
 384 101 384 101 384 130 c 0,50,51
 384 155 384 155 371 172.5 c 128,-1,52
 358 190 358 190 339 190 c 0,53,54
 316 190 316 190 300 171 c 128,-1,55
 284 152 284 152 284 125 c 256,56,57
 284 98 284 98 300 79 c 128,-1,58
 316 60 316 60 339 60 c 1,59,-1
 339 60 l 1,47,48
EndSplineSet
EndChar

StartChar: u0AA5
Encoding: 2723 2723 50
Width: 758
GlyphClass: 2
Flags: W
AnchorPoint: "Anchor-2" 314 -30 basechar 0
LayerCount: 2
Fore
SplineSet
538 20 m 1,0,1
 500 -7 500 -7 446 -21 c 128,-1,2
 392 -35 392 -35 328 -35 c 0,3,4
 224 -35 224 -35 151 30.5 c 128,-1,5
 78 96 78 96 78 189 c 2,6,-1
 78 500 l 1,7,-1
 138 500 l 1,8,-1
 138 190 l 2,9,10
 138 118 138 118 193.5 66.5 c 128,-1,11
 249 15 249 15 328 15 c 0,12,13
 387 15 387 15 434.5 26.5 c 128,-1,14
 482 38 482 38 513 60 c 1,15,-1
 538 20 l 1,16,-1
 538 20 l 1,0,1
323 160 m 1,17,18
 303 160 303 160 281 166.5 c 128,-1,19
 259 173 259 173 238 185 c 1,20,-1
 258 230 l 1,21,22
 272 220 272 220 288.5 215 c 128,-1,23
 305 210 305 210 323 210 c 0,24,25
 375 210 375 210 411.5 248 c 128,-1,26
 448 286 448 286 448 340 c 0,27,28
 448 390 448 390 417 425 c 128,-1,29
 386 460 386 460 343 460 c 0,30,31
 324 460 324 460 305.5 453.5 c 128,-1,32
 287 447 287 447 273 435 c 1,33,-1
 243 475 l 1,34,35
 264 490 264 490 289.5 497.5 c 128,-1,36
 315 505 315 505 343 505 c 0,37,38
 411 505 411 505 459.5 456.5 c 128,-1,39
 508 408 508 408 508 340 c 0,40,41
 508 265 508 265 454 212.5 c 128,-1,42
 400 160 400 160 323 160 c 1,43,-1
 323 160 l 1,17,18
608 500 m 1,44,-1
 668 500 l 1,45,-1
 668 0 l 1,46,-1
 608 0 l 1,47,-1
 608 500 l 1,48,-1
 608 500 l 1,44,-1
EndSplineSet
EndChar

StartChar: u0AA6
Encoding: 2724 2724 51
Width: 561
GlyphClass: 2
Flags: W
AnchorPoint: "Anchor-2" 64 16 basechar 0
LayerCount: 2
Fore
SplineSet
41 210 m 1,0,1
 41 293 41 293 111.5 351.5 c 128,-1,2
 182 410 182 410 281 410 c 2,3,-1
 411 410 l 1,4,-1
 411 500 l 1,5,-1
 471 500 l 1,6,-1
 471 0 l 1,7,-1
 411 0 l 1,8,-1
 411 360 l 1,9,-1
 281 360 l 2,10,11
 206 360 206 360 153.5 316 c 128,-1,12
 101 272 101 272 101 210 c 0,13,14
 101 140 101 140 153.5 90 c 128,-1,15
 206 40 206 40 281 40 c 1,16,-1
 271 -5 l 1,17,18
 176 -5 176 -5 108.5 58 c 128,-1,19
 41 121 41 121 41 210 c 1,20,-1
 41 210 l 1,0,1
EndSplineSet
EndChar

StartChar: u0AA7
Encoding: 2725 2725 52
Width: 594
GlyphClass: 2
Flags: W
AnchorPoint: "Anchor-2" 86 96 basechar 0
LayerCount: 2
Fore
SplineSet
39 305 m 1,0,-1
 89 305 l 2,1,2
 115 305 115 305 136.5 309 c 128,-1,3
 158 313 158 313 174 320 c 1,4,5
 127 337 127 337 98 373 c 128,-1,6
 69 409 69 409 69 450 c 0,7,8
 69 500 69 500 110 535 c 128,-1,9
 151 570 151 570 209 570 c 0,10,11
 265 570 265 570 304.5 535 c 128,-1,12
 344 500 344 500 344 450 c 0,13,14
 344 369 344 369 272 312 c 128,-1,15
 200 255 200 255 99 255 c 1,16,17
 110 194 110 194 156.5 154.5 c 128,-1,18
 203 115 203 115 264 115 c 0,19,20
 314 115 314 115 361.5 143 c 128,-1,21
 409 171 409 171 444 220 c 1,22,-1
 444 500 l 1,23,-1
 504 500 l 1,24,-1
 504 0 l 1,25,-1
 444 0 l 1,26,-1
 444 145 l 1,27,28
 412 107 412 107 363.5 86 c 128,-1,29
 315 65 315 65 259 65 c 0,30,31
 168 65 168 65 103.5 135.5 c 128,-1,32
 39 206 39 206 39 305 c 1,33,-1
 39 305 l 1,0,-1
224 350 m 1,34,35
 252 366 252 366 268 393 c 128,-1,36
 284 420 284 420 284 450 c 0,37,38
 284 481 284 481 263.5 503 c 128,-1,39
 243 525 243 525 214 525 c 0,40,41
 179 525 179 525 154 503 c 128,-1,42
 129 481 129 481 129 450 c 0,43,44
 129 417 129 417 155.5 389 c 128,-1,45
 182 361 182 361 224 350 c 1,46,-1
 224 350 l 1,34,35
EndSplineSet
EndChar

StartChar: u0AA8
Encoding: 2726 2726 53
Width: 465
GlyphClass: 2
Flags: W
AnchorPoint: "Anchor-2" 256 -8 basechar 0
LayerCount: 2
Fore
SplineSet
256 -10 m 1,0,1
 171 -10 171 -10 111 38.5 c 128,-1,2
 51 87 51 87 51 155 c 0,3,4
 51 199 51 199 77 237 c 128,-1,5
 103 275 103 275 146 295 c 1,6,7
 117 306 117 306 99 330.5 c 128,-1,8
 81 355 81 355 81 385 c 0,9,10
 81 435 81 435 122 470 c 128,-1,11
 163 505 163 505 221 505 c 2,12,-1
 361 505 l 1,13,-1
 361 455 l 1,14,-1
 216 455 l 2,15,16
 185 455 185 455 163 435 c 128,-1,17
 141 415 141 415 141 387 c 256,18,19
 141 359 141 359 163 339.5 c 128,-1,20
 185 320 185 320 216 320 c 2,21,-1
 321 320 l 1,22,-1
 321 270 l 1,23,-1
 246 270 l 2,24,25
 190 270 190 270 150.5 236.5 c 128,-1,26
 111 203 111 203 111 155 c 256,27,28
 111 107 111 107 153.5 73.5 c 128,-1,29
 196 40 196 40 256 40 c 0,30,31
 312 40 312 40 353.5 65 c 128,-1,32
 395 90 395 90 406 130 c 1,33,-1
 451 110 l 1,34,35
 437 57 437 57 382.5 23.5 c 128,-1,36
 328 -10 328 -10 256 -10 c 1,37,-1
 256 -10 l 1,0,1
EndSplineSet
EndChar

StartChar: u0AAA
Encoding: 2727 2727 54
Width: 596
GlyphClass: 2
Flags: W
AnchorPoint: "Anchor-2" 224 56 basechar 0
LayerCount: 2
Fore
SplineSet
226 50 m 1,0,1
 158 50 158 50 109.5 91 c 128,-1,2
 61 132 61 132 61 190 c 0,3,4
 61 226 61 226 84.5 256 c 128,-1,5
 108 286 108 286 146 300 c 1,6,7
 104 311 104 311 77.5 339 c 128,-1,8
 51 367 51 367 51 400 c 0,9,10
 51 450 51 450 123 495 c 128,-1,11
 195 540 195 540 306 560 c 1,12,-1
 321 515 l 1,13,14
 230 499 230 499 170.5 466.5 c 128,-1,15
 111 434 111 434 111 400 c 256,16,17
 111 366 111 366 156 345.5 c 128,-1,18
 201 325 201 325 276 325 c 1,19,-1
 276 275 l 1,20,21
 212 275 212 275 166.5 250 c 128,-1,22
 121 225 121 225 121 190 c 0,23,24
 121 153 121 153 152 126.5 c 128,-1,25
 183 100 183 100 226 100 c 0,26,27
 288 100 288 100 347 140 c 128,-1,28
 406 180 406 180 446 250 c 1,29,-1
 446 500 l 1,30,-1
 506 500 l 1,31,-1
 506 0 l 1,32,-1
 446 0 l 1,33,-1
 446 170 l 1,34,35
 407 114 407 114 348.5 82 c 128,-1,36
 290 50 290 50 226 50 c 1,37,-1
 226 50 l 1,0,1
EndSplineSet
EndChar

StartChar: u0AAB
Encoding: 2728 2728 55
Width: 587
GlyphClass: 2
Flags: W
AnchorPoint: "Anchor-2" 198 60 basechar 0
LayerCount: 2
Fore
SplineSet
37 215 m 1,0,1
 37 283 37 283 84 331.5 c 128,-1,2
 131 380 131 380 197 380 c 2,3,-1
 437 380 l 1,4,-1
 437 500 l 1,5,-1
 497 500 l 1,6,-1
 497 0 l 1,7,-1
 437 0 l 1,8,-1
 437 330 l 1,9,-1
 297 330 l 1,10,11
 321 310 321 310 334 280 c 128,-1,12
 347 250 347 250 347 215 c 0,13,14
 347 151 347 151 301.5 105.5 c 128,-1,15
 256 60 256 60 192 60 c 256,16,17
 128 60 128 60 82.5 105.5 c 128,-1,18
 37 151 37 151 37 215 c 1,19,-1
 37 215 l 1,0,1
192 105 m 1,20,21
 231 105 231 105 259 136 c 128,-1,22
 287 167 287 167 287 210 c 0,23,24
 287 260 287 260 259 295 c 128,-1,25
 231 330 231 330 192 330 c 256,26,27
 153 330 153 330 125 295 c 128,-1,28
 97 260 97 260 97 210 c 0,29,30
 97 167 97 167 125 136 c 128,-1,31
 153 105 153 105 192 105 c 1,32,-1
 192 105 l 1,20,21
EndSplineSet
EndChar

StartChar: u0AAC
Encoding: 2730 2730 56
Width: 562
GlyphClass: 2
Flags: W
AnchorPoint: "Anchor-2" 226 112 basechar 0
LayerCount: 2
Fore
SplineSet
97 390 m 1,0,1
 97 415 97 415 86.5 432.5 c 128,-1,2
 76 450 76 450 62 450 c 2,3,-1
 12 450 l 1,4,-1
 12 500 l 1,5,-1
 72 500 l 2,6,7
 109 500 109 500 135.5 470.5 c 128,-1,8
 162 441 162 441 162 400 c 2,9,-1
 162 270 l 2,10,11
 162 227 162 227 197 196 c 128,-1,12
 232 165 232 165 282 165 c 0,13,14
 328 165 328 165 364 193 c 128,-1,15
 400 221 400 221 412 265 c 1,16,-1
 412 500 l 1,17,-1
 472 500 l 1,18,-1
 472 0 l 1,19,-1
 412 0 l 1,20,-1
 412 170 l 1,21,22
 386 144 386 144 352 129.5 c 128,-1,23
 318 115 318 115 282 115 c 0,24,25
 205 115 205 115 151 160.5 c 128,-1,26
 97 206 97 206 97 270 c 2,27,-1
 97 390 l 1,28,-1
 97 390 l 1,0,1
EndSplineSet
EndChar

StartChar: u0AAD
Encoding: 2731 2731 57
Width: 444
GlyphClass: 2
Flags: W
AnchorPoint: "Anchor-2" 142 -12 basechar 0
AnchorPoint: "Anchor-1" 258 -88 basechar 0
AnchorPoint: "Anchor-0" 244 0 basechar 0
LayerCount: 2
Fore
SplineSet
36 75 m 1,0,-1
 66 105 l 1,1,2
 98 78 98 78 135.5 64 c 128,-1,3
 173 50 173 50 211 50 c 0,4,5
 261 50 261 50 296 76.5 c 128,-1,6
 331 103 331 103 331 140 c 0,7,8
 331 162 331 162 298.5 190.5 c 128,-1,9
 266 219 266 219 211 245 c 1,10,-1
 51 190 l 1,11,-1
 31 230 l 1,12,-1
 156 280 l 1,13,14
 117 303 117 303 94 332.5 c 128,-1,15
 71 362 71 362 71 390 c 0,16,17
 71 438 71 438 122.5 471.5 c 128,-1,18
 174 505 174 505 246 505 c 0,19,20
 289 505 289 505 322 498.5 c 128,-1,21
 355 492 355 492 376 480 c 1,22,-1
 361 435 l 1,23,24
 327 447 327 447 299.5 453.5 c 128,-1,25
 272 460 272 460 251 460 c 0,26,27
 203 460 203 460 169.5 439.5 c 128,-1,28
 136 419 136 419 136 390 c 0,29,30
 136 370 136 370 157.5 345.5 c 128,-1,31
 179 321 179 321 216 300 c 1,32,-1
 381 360 l 1,33,-1
 401 320 l 1,34,-1
 271 270 l 1,35,36
 328 243 328 243 362 208 c 128,-1,37
 396 173 396 173 396 140 c 0,38,39
 396 88 396 88 353 49.5 c 128,-1,40
 310 11 310 11 246 5 c 1,41,42
 259 -31 259 -31 290.5 -53 c 128,-1,43
 322 -75 322 -75 361 -75 c 1,44,-1
 346 -120 l 1,45,46
 293 -115 293 -115 249 -83 c 128,-1,47
 205 -51 205 -51 181 0 c 1,48,49
 144 3 144 3 106.5 22.5 c 128,-1,50
 69 42 69 42 36 75 c 1,51,-1
 36 75 l 1,0,-1
EndSplineSet
EndChar

StartChar: u0AAE
Encoding: 2732 2732 58
Width: 664
GlyphClass: 2
Flags: W
AnchorPoint: "Anchor-2" 240 90 basechar 0
LayerCount: 2
Fore
SplineSet
44 300 m 1,0,1
 44 395 44 395 100.5 447.5 c 128,-1,2
 157 500 157 500 259 500 c 2,3,-1
 299 500 l 1,4,-1
 299 450 l 1,5,-1
 264 450 l 2,6,7
 188 450 188 450 146 410.5 c 128,-1,8
 104 371 104 371 104 300 c 0,9,10
 104 238 104 238 143.5 194 c 128,-1,11
 183 150 183 150 239 150 c 0,12,13
 274 150 274 150 299 173.5 c 128,-1,14
 324 197 324 197 324 230 c 2,15,-1
 324 350 l 1,16,-1
 384 350 l 1,17,-1
 384 295 l 1,18,-1
 514 295 l 1,19,-1
 514 500 l 1,20,-1
 574 500 l 1,21,-1
 574 0 l 1,22,-1
 514 0 l 1,23,-1
 514 245 l 1,24,-1
 384 245 l 1,25,26
 384 177 384 177 344.5 136 c 128,-1,27
 305 95 305 95 239 95 c 0,28,29
 158 95 158 95 101 155 c 128,-1,30
 44 215 44 215 44 300 c 1,31,-1
 44 300 l 1,0,1
EndSplineSet
EndChar

StartChar: u0AAF
Encoding: 2733 2733 59
Width: 695
GlyphClass: 2
Flags: W
AnchorPoint: "Anchor-2" 364 128 basechar 0
LayerCount: 2
Fore
SplineSet
50 290 m 1,0,1
 50 379 50 379 108.5 442 c 128,-1,2
 167 505 167 505 250 505 c 0,3,4
 314 505 314 505 359.5 468.5 c 128,-1,5
 405 432 405 432 405 380 c 2,6,-1
 405 285 l 1,7,-1
 545 285 l 1,8,-1
 545 500 l 1,9,-1
 605 500 l 1,10,-1
 605 0 l 1,11,-1
 545 0 l 1,12,-1
 545 235 l 1,13,-1
 405 235 l 1,14,15
 405 208 405 208 387.5 189 c 128,-1,16
 370 170 370 170 345 170 c 256,17,18
 320 170 320 170 302.5 186 c 128,-1,19
 285 202 285 202 285 225 c 0,20,21
 285 250 285 250 302.5 267.5 c 128,-1,22
 320 285 320 285 345 285 c 1,23,-1
 345 375 l 1,24,25
 339 410 339 410 313.5 432.5 c 128,-1,26
 288 455 288 455 255 455 c 0,27,28
 195 455 195 455 152.5 408 c 128,-1,29
 110 361 110 361 110 295 c 0,30,31
 110 212 110 212 153.5 143 c 128,-1,32
 197 74 197 74 270 40 c 1,33,-1
 245 -5 l 1,34,35
 156 37 156 37 103 117 c 128,-1,36
 50 197 50 197 50 290 c 1,37,-1
 50 290 l 1,0,1
EndSplineSet
EndChar

StartChar: u0AB0
Encoding: 2734 2734 60
Width: 566
GlyphClass: 2
Flags: W
AnchorPoint: "Anchor-2" 280 100 basechar 0
LayerCount: 2
Fore
SplineSet
36 160 m 1,0,1
 36 206 36 206 69.5 238 c 128,-1,2
 103 270 103 270 151 270 c 2,3,-1
 186 270 l 1,4,-1
 186 370 l 2,5,6
 186 401 186 401 170 423 c 128,-1,7
 154 445 154 445 131 445 c 2,8,-1
 66 445 l 1,9,-1
 66 500 l 1,10,-1
 132 500 l 2,11,12
 179 500 179 500 212.5 462 c 128,-1,13
 246 424 246 424 246 370 c 2,14,-1
 246 270 l 1,15,-1
 416 270 l 1,16,-1
 416 500 l 1,17,-1
 476 500 l 1,18,-1
 476 0 l 1,19,-1
 416 0 l 1,20,-1
 416 225 l 1,21,-1
 246 225 l 1,22,-1
 246 140 l 2,23,24
 246 103 246 103 218 76.5 c 128,-1,25
 190 50 190 50 151 50 c 0,26,27
 103 50 103 50 69.5 82 c 128,-1,28
 36 114 36 114 36 160 c 1,29,-1
 36 160 l 1,0,1
151 100 m 1,30,31
 166 103 166 103 176 115.5 c 128,-1,32
 186 128 186 128 186 145 c 2,33,-1
 186 225 l 1,34,-1
 156 225 l 2,35,36
 131 225 131 225 113.5 206 c 128,-1,37
 96 187 96 187 96 160 c 0,38,39
 96 135 96 135 112 117.5 c 128,-1,40
 128 100 128 100 151 100 c 1,41,-1
 151 100 l 1,30,31
EndSplineSet
EndChar

StartChar: u0AB2
Encoding: 2735 2735 61
Width: 554
GlyphClass: 2
Flags: W
AnchorPoint: "Anchor-2" 90 90 basechar 0
LayerCount: 2
Fore
SplineSet
34 280 m 1,0,-1
 34 310 l 1,1,-1
 159 310 l 2,2,3
 182 310 182 310 198 329 c 128,-1,4
 214 348 214 348 214 375 c 0,5,6
 214 406 214 406 192 428 c 128,-1,7
 170 450 170 450 139 450 c 2,8,-1
 49 450 l 1,9,-1
 49 500 l 1,10,-1
 139 500 l 2,11,12
 197 500 197 500 238 465 c 128,-1,13
 279 430 279 430 279 380 c 0,14,15
 279 332 279 332 244 298.5 c 128,-1,16
 209 265 209 265 159 265 c 2,17,-1
 94 265 l 1,18,19
 94 209 94 209 136.5 169.5 c 128,-1,20
 179 130 179 130 239 130 c 0,21,22
 287 130 287 130 331.5 165.5 c 128,-1,23
 376 201 376 201 404 260 c 1,24,-1
 404 500 l 1,25,-1
 464 500 l 1,26,-1
 464 0 l 1,27,-1
 404 0 l 1,28,-1
 404 170 l 1,29,30
 380 128 380 128 335.5 104 c 128,-1,31
 291 80 291 80 239 80 c 0,32,33
 154 80 154 80 94 138.5 c 128,-1,34
 34 197 34 197 34 280 c 1,35,-1
 34 280 l 1,0,-1
EndSplineSet
EndChar

StartChar: u0AB3
Encoding: 2736 2736 62
Width: 373
GlyphClass: 2
Flags: W
AnchorPoint: "Anchor-1" 276 -6 basechar 0
AnchorPoint: "Anchor-0" 178 0 basechar 0
LayerCount: 2
Fore
SplineSet
24 230 m 1,0,-1
 129 230 l 2,1,2
 181 230 181 230 217.5 265 c 128,-1,3
 254 300 254 300 254 350 c 0,4,5
 254 389 254 389 220.5 417 c 128,-1,6
 187 445 187 445 139 445 c 0,7,8
 108 445 108 445 82 438.5 c 128,-1,9
 56 432 56 432 39 420 c 1,10,-1
 9 470 l 1,11,12
 33 487 33 487 66.5 496 c 128,-1,13
 100 505 100 505 139 505 c 0,14,15
 211 505 211 505 262.5 459.5 c 128,-1,16
 314 414 314 414 314 350 c 0,17,18
 314 282 314 282 268 231.5 c 128,-1,19
 222 181 222 181 154 175 c 1,20,-1
 169 95 l 2,21,22
 172 75 172 75 186.5 62.5 c 128,-1,23
 201 50 201 50 219 50 c 2,24,-1
 344 50 l 1,25,-1
 344 0 l 1,26,-1
 219 0 l 2,27,28
 177 0 177 0 146 22.5 c 128,-1,29
 115 45 115 45 109 80 c 2,30,-1
 89 180 l 1,31,-1
 24 180 l 1,32,-1
 24 230 l 1,33,-1
 24 230 l 1,0,-1
EndSplineSet
EndChar

StartChar: u0AB5
Encoding: 2738 2738 63
Width: 608
GlyphClass: 2
Flags: W
AnchorPoint: "Anchor-2" 100 34 basechar 0
LayerCount: 2
Fore
SplineSet
458 500 m 1,0,-1
 518 500 l 1,1,-1
 518 0 l 1,2,-1
 458 0 l 1,3,-1
 458 245 l 1,4,-1
 263 245 l 1,5,-1
 263 295 l 1,6,-1
 458 295 l 1,7,-1
 458 500 l 1,8,-1
 458 500 l 1,0,-1
248 0 m 1,9,10
 167 0 167 0 110 74.5 c 128,-1,11
 53 149 53 149 53 255 c 0,12,13
 53 356 53 356 113 428 c 128,-1,14
 173 500 173 500 258 500 c 2,15,-1
 323 500 l 1,16,-1
 323 450 l 1,17,-1
 263 450 l 2,18,19
 201 450 201 450 157 393 c 128,-1,20
 113 336 113 336 113 255 c 0,21,22
 113 170 113 170 155.5 110 c 128,-1,23
 198 50 198 50 258 50 c 2,24,-1
 323 50 l 1,25,-1
 323 0 l 1,26,-1
 248 0 l 1,27,-1
 248 0 l 1,9,10
EndSplineSet
EndChar

StartChar: u0AB6
Encoding: 2739 2739 64
Width: 666
GlyphClass: 2
Flags: W
AnchorPoint: "Anchor-2" 292 88 basechar 0
LayerCount: 2
Fore
SplineSet
46 300 m 1,0,1
 46 383 46 383 94.5 441.5 c 128,-1,2
 143 500 143 500 211 500 c 2,3,-1
 271 500 l 1,4,-1
 271 450 l 1,5,-1
 221 450 l 2,6,7
 173 450 173 450 139.5 406 c 128,-1,8
 106 362 106 362 106 300 c 0,9,10
 106 236 106 236 139.5 190.5 c 128,-1,11
 173 145 173 145 221 145 c 0,12,13
 266 145 266 145 288.5 176.5 c 128,-1,14
 311 208 311 208 311 270 c 2,15,-1
 311 330 l 2,16,17
 311 419 311 419 345 464.5 c 128,-1,18
 379 510 379 510 446 510 c 0,19,20
 502 510 502 510 541.5 472 c 128,-1,21
 581 434 581 434 581 380 c 2,22,-1
 581 0 l 1,23,-1
 521 0 l 1,24,-1
 521 380 l 2,25,26
 521 413 521 413 499 436.5 c 128,-1,27
 477 460 477 460 446 460 c 0,28,29
 406 460 406 460 386 427 c 128,-1,30
 366 394 366 394 366 330 c 2,31,-1
 366 270 l 2,32,33
 366 183 366 183 329.5 139 c 128,-1,34
 293 95 293 95 221 95 c 256,35,36
 149 95 149 95 97.5 155 c 128,-1,37
 46 215 46 215 46 300 c 1,38,-1
 46 300 l 1,0,1
EndSplineSet
EndChar

StartChar: u0AB7
Encoding: 2741 2741 65
Width: 550
GlyphClass: 2
Flags: W
AnchorPoint: "Anchor-2" 244 122 basechar 0
LayerCount: 2
Fore
SplineSet
40 320 m 1,0,1
 40 395 40 395 87 447.5 c 128,-1,2
 134 500 134 500 200 500 c 2,3,-1
 270 500 l 1,4,-1
 280 450 l 1,5,-1
 220 450 l 2,6,7
 170 450 170 450 135 412 c 128,-1,8
 100 374 100 374 100 320 c 0,9,10
 100 262 100 262 147 221 c 128,-1,11
 194 180 194 180 260 180 c 0,12,13
 299 180 299 180 335 193 c 128,-1,14
 371 206 371 206 400 230 c 1,15,-1
 400 500 l 1,16,-1
 460 500 l 1,17,-1
 460 0 l 1,18,-1
 400 0 l 1,19,-1
 400 170 l 1,20,21
 377 151 377 151 339.5 140.5 c 128,-1,22
 302 130 302 130 255 130 c 0,23,24
 166 130 166 130 103 185.5 c 128,-1,25
 40 241 40 241 40 320 c 1,26,-1
 40 320 l 1,0,1
EndSplineSet
EndChar

StartChar: u0AB8
Encoding: 2742 2742 66
Width: 611
GlyphClass: 2
Flags: W
AnchorPoint: "Anchor-2" 140 100 basechar 0
LayerCount: 2
Fore
SplineSet
286 0 m 1,0,1
 262 67 262 67 208.5 112.5 c 128,-1,2
 155 158 155 158 86 170 c 1,3,-1
 46 170 l 1,4,-1
 46 215 l 1,5,-1
 126 215 l 2,6,7
 188 215 188 215 232 260.5 c 128,-1,8
 276 306 276 306 276 370 c 0,9,10
 276 407 276 407 249.5 433.5 c 128,-1,11
 223 460 223 460 186 460 c 256,12,13
 149 460 149 460 122.5 441 c 128,-1,14
 96 422 96 422 96 395 c 0,15,16
 96 370 96 370 112 352.5 c 128,-1,17
 128 335 128 335 151 335 c 1,18,-1
 176 340 l 1,19,-1
 186 300 l 1,20,21
 179 295 179 295 167.5 292.5 c 128,-1,22
 156 290 156 290 141 290 c 0,23,24
 98 290 98 290 67 318 c 128,-1,25
 36 346 36 346 36 385 c 0,26,27
 36 447 36 447 77.5 478.5 c 128,-1,28
 119 510 119 510 201 510 c 0,29,30
 257 510 257 510 296.5 469 c 128,-1,31
 336 428 336 428 336 370 c 0,32,33
 336 307 336 307 297.5 255 c 128,-1,34
 259 203 259 203 196 180 c 1,35,36
 245 157 245 157 284 110.5 c 128,-1,37
 323 64 323 64 346 0 c 1,38,-1
 286 0 l 1,39,-1
 286 0 l 1,0,1
461 500 m 1,40,-1
 521 500 l 1,41,-1
 521 0 l 1,42,-1
 461 0 l 1,43,-1
 461 500 l 1,44,-1
 461 500 l 1,40,-1
EndSplineSet
EndChar

StartChar: u0AB9
Encoding: 2743 2743 67
Width: 552
GlyphClass: 2
Flags: W
AnchorPoint: "Anchor-2" 242 110 basechar 0
LayerCount: 2
Fore
SplineSet
22 445 m 1,0,-1
 22 500 l 1,1,-1
 67 500 l 2,2,3
 100 500 100 500 123.5 481 c 128,-1,4
 147 462 147 462 147 435 c 1,5,-1
 402 260 l 1,6,-1
 402 500 l 1,7,-1
 462 500 l 1,8,-1
 462 0 l 1,9,-1
 402 0 l 1,10,-1
 402 150 l 1,11,12
 371 128 371 128 336.5 116.5 c 128,-1,13
 302 105 302 105 267 105 c 0,14,15
 192 105 192 105 139.5 156.5 c 128,-1,16
 87 208 87 208 87 280 c 2,17,-1
 87 380 l 2,18,19
 87 407 87 407 79.5 426 c 128,-1,20
 72 445 72 445 62 445 c 2,21,-1
 22 445 l 1,22,-1
 22 445 l 1,0,-1
267 160 m 1,23,24
 301 160 301 160 332 173 c 128,-1,25
 363 186 363 186 387 210 c 1,26,-1
 147 375 l 1,27,-1
 147 280 l 2,28,29
 147 230 147 230 182 195 c 128,-1,30
 217 160 217 160 267 160 c 1,31,-1
 267 160 l 1,23,24
EndSplineSet
EndChar

StartChar: u0ABC
Encoding: 2744 2744 68
Width: 630
GlyphClass: 2
Flags: W
AnchorPoint: "Anchor-2" 94 40 basechar 0
LayerCount: 2
Fore
SplineSet
20 470 m 1,0,1
 39 489 39 489 71.5 499.5 c 128,-1,2
 104 510 104 510 145 510 c 0,3,4
 223 510 223 510 278.5 464.5 c 128,-1,5
 334 419 334 419 334 355 c 0,6,7
 334 338 334 338 330.5 321.5 c 128,-1,8
 327 305 327 305 320 290 c 1,9,-1
 480 290 l 1,10,-1
 480 500 l 1,11,-1
 540 500 l 1,12,-1
 540 0 l 1,13,-1
 480 0 l 1,14,-1
 480 240 l 1,15,-1
 295 240 l 1,16,17
 266 211 266 211 228.5 195.5 c 128,-1,18
 191 180 191 180 150 180 c 1,19,-1
 165 85 l 2,20,21
 168 68 168 68 181 56.5 c 128,-1,22
 194 45 194 45 210 45 c 2,23,-1
 340 45 l 1,24,-1
 340 0 l 1,25,-1
 210 0 l 2,26,27
 172 0 172 0 144 21 c 128,-1,28
 116 42 116 42 110 75 c 2,29,-1
 90 180 l 1,30,-1
 30 180 l 1,31,-1
 30 230 l 1,32,-1
 140 230 l 2,33,34
 196 230 196 230 235.5 266.5 c 128,-1,35
 275 303 275 303 275 355 c 0,36,37
 275 398 275 398 237 429 c 128,-1,38
 199 460 199 460 145 460 c 0,39,40
 120 460 120 460 95.5 452.5 c 128,-1,41
 71 445 71 445 50 430 c 1,42,-1
 20 470 l 1,43,-1
 20 470 l 1,0,1
EndSplineSet
EndChar

StartChar: u0ABD
Encoding: 2745 2745 69
Width: 468
GlyphClass: 2
Flags: W
AnchorPoint: "Anchor-2" 122 -14 basechar 0
AnchorPoint: "Anchor-1" 304 -42 basechar 0
AnchorPoint: "Anchor-0" 276 -8 basechar 0
LayerCount: 2
Fore
SplineSet
300 -50 m 1,0,1
 199 -50 199 -50 127 14.5 c 128,-1,2
 55 79 55 79 55 170 c 0,3,4
 55 223 55 223 76.5 266 c 128,-1,5
 98 309 98 309 135 330 c 1,6,7
 114 345 114 345 102 365 c 128,-1,8
 90 385 90 385 90 405 c 0,9,10
 90 444 90 444 125 472 c 128,-1,11
 160 500 160 500 210 500 c 2,12,-1
 380 500 l 1,13,-1
 380 450 l 1,14,-1
 210 450 l 2,15,16
 185 450 185 450 167.5 437 c 128,-1,17
 150 424 150 424 150 405 c 0,18,19
 150 391 150 391 159.5 377.5 c 128,-1,20
 169 364 169 364 185 355 c 1,21,22
 205 362 205 362 226.5 366 c 128,-1,23
 248 370 248 370 270 370 c 0,24,25
 336 370 336 370 383 327.5 c 128,-1,26
 430 285 430 285 430 225 c 0,27,28
 430 173 430 173 387.5 136.5 c 128,-1,29
 345 100 345 100 285 100 c 2,30,-1
 255 100 l 1,31,-1
 255 150 l 1,32,-1
 285 150 l 2,33,34
 320 150 320 150 345 172 c 128,-1,35
 370 194 370 194 370 225 c 0,36,37
 370 264 370 264 340.5 292 c 128,-1,38
 311 320 311 320 270 320 c 0,39,40
 206 320 206 320 160.5 276 c 128,-1,41
 115 232 115 232 115 170 c 0,42,43
 115 100 115 100 169 50 c 128,-1,44
 223 0 223 0 300 0 c 0,45,46
 330 0 330 0 354 5 c 128,-1,47
 378 10 378 10 395 20 c 1,48,-1
 410 -30 l 1,49,50
 393 -40 393 -40 365 -45 c 128,-1,51
 337 -50 337 -50 300 -50 c 1,52,-1
 300 -50 l 1,0,1
EndSplineSet
EndChar

StartChar: u0ABE
Encoding: 2748 2748 70
Width: 0
GlyphClass: 4
Flags: W
AnchorPoint: "Anchor-2" -432 4 mark 0
AnchorPoint: "Anchor-1" -426 6 mark 0
LayerCount: 2
Fore
SplineSet
-428 -150 m 1,0,1
 -451 -150 -451 -150 -467 -135.5 c 128,-1,2
 -483 -121 -483 -121 -483 -100 c 0,3,4
 -483 -75 -483 -75 -465.5 -57.5 c 128,-1,5
 -448 -40 -448 -40 -423 -40 c 0,6,7
 -402 -40 -402 -40 -387.5 -56 c 128,-1,8
 -373 -72 -373 -72 -373 -95 c 256,9,10
 -373 -118 -373 -118 -389 -134 c 128,-1,11
 -405 -150 -405 -150 -428 -150 c 1,12,-1
 -428 -150 l 1,0,1
EndSplineSet
EndChar

StartChar: u0ABF
Encoding: 2749 2749 71
Width: 525
GlyphClass: 2
Flags: W
LayerCount: 2
Fore
SplineSet
270 -10 m 1,0,1
 188 -10 188 -10 122.5 22 c 128,-1,2
 57 54 57 54 25 110 c 1,3,-1
 65 145 l 1,4,5
 100 96 100 96 154 68 c 128,-1,6
 208 40 208 40 270 40 c 0,7,8
 334 40 334 40 379.5 78 c 128,-1,9
 425 116 425 116 425 170 c 0,10,11
 425 203 425 203 398.5 226.5 c 128,-1,12
 372 250 372 250 335 250 c 0,13,14
 320 250 320 250 290 247.5 c 128,-1,15
 260 245 260 245 245 245 c 0,16,17
 170 245 170 245 117.5 278.5 c 128,-1,18
 65 312 65 312 65 360 c 0,19,20
 65 418 65 418 129.5 459 c 128,-1,21
 194 500 194 500 285 500 c 0,22,23
 349 500 349 500 389.5 494 c 128,-1,24
 430 488 430 488 445 475 c 1,25,-1
 430 430 l 1,26,27
 413 440 413 440 378.5 445 c 128,-1,28
 344 450 344 450 295 450 c 0,29,30
 225 450 225 450 175 422 c 128,-1,31
 125 394 125 394 125 355 c 0,32,33
 125 330 125 330 161.5 312.5 c 128,-1,34
 198 295 198 295 250 295 c 0,35,36
 268 295 268 295 302.5 297.5 c 128,-1,37
 337 300 337 300 355 300 c 0,38,39
 409 300 409 300 447 262 c 128,-1,40
 485 224 485 224 485 170 c 0,41,42
 485 95 485 95 422 42.5 c 128,-1,43
 359 -10 359 -10 270 -10 c 1,44,-1
 270 -10 l 1,0,1
EndSplineSet
EndChar

StartChar: u0AC0
Encoding: 2750 2750 72
Width: 240
GlyphClass: 2
Flags: W
LayerCount: 2
Fore
SplineSet
90 500 m 1,0,-1
 150 500 l 1,1,-1
 150 0 l 1,2,-1
 90 0 l 1,3,-1
 90 500 l 1,4,-1
 90 500 l 1,0,-1
EndSplineSet
EndChar

StartChar: u0AC1
Encoding: 2751 2751 73
Width: 240
GlyphClass: 2
Flags: W
LayerCount: 2
Fore
SplineSet
90 500 m 1,0,1
 90 604 90 604 170.5 677 c 128,-1,2
 251 750 251 750 365 750 c 0,3,4
 482 750 482 750 558.5 683 c 128,-1,5
 635 616 635 616 645 505 c 1,6,-1
 585 505 l 1,7,8
 569 593 569 593 509 646.5 c 128,-1,9
 449 700 449 700 365 700 c 0,10,11
 276 700 276 700 213 638.5 c 128,-1,12
 150 577 150 577 150 490 c 2,13,-1
 150 0 l 1,14,-1
 90 0 l 1,15,-1
 90 500 l 1,16,-1
 90 500 l 1,0,1
EndSplineSet
Substitution2: "Single Substitution lookup 13 subtable" glyph301
Substitution2: "Single Substitution lookup 12 subtable" glyph300
EndChar

StartChar: u0AC2
Encoding: 2752 2752 74
Width: 240
GlyphClass: 2
Flags: W
LayerCount: 2
Fore
SplineSet
-150 560 m 1,0,1
 -150 635 -150 635 -104.5 687.5 c 128,-1,2
 -59 740 -59 740 5 740 c 0,3,4
 71 740 71 740 110.5 691 c 128,-1,5
 150 642 150 642 150 560 c 2,6,-1
 150 0 l 1,7,-1
 90 0 l 1,8,-1
 90 560 l 2,9,10
 90 619 90 619 67 654.5 c 128,-1,11
 44 690 44 690 5 690 c 256,12,13
 -34 690 -34 690 -62 652 c 128,-1,14
 -90 614 -90 614 -90 560 c 2,15,-1
 -90 505 l 1,16,-1
 -150 505 l 1,17,-1
 -150 560 l 1,18,-1
 -150 560 l 1,0,1
EndSplineSet
EndChar

StartChar: u0AC3
Encoding: 2753 2753 75
Width: 0
GlyphClass: 4
Flags: W
AnchorPoint: "Anchor-1" -118 12 mark 0
LayerCount: 2
Fore
SplineSet
-165 -250 m 1,0,1
 -253 -250 -253 -250 -331 -209 c 128,-1,2
 -409 -168 -409 -168 -460 -95 c 1,3,-1
 -420 -65 l 1,4,5
 -366 -129 -366 -129 -299 -164.5 c 128,-1,6
 -232 -200 -232 -200 -165 -200 c 0,7,8
 -119 -200 -119 -200 -87 -175 c 128,-1,9
 -55 -150 -55 -150 -55 -115 c 0,10,11
 -55 -86 -55 -86 -75.5 -65.5 c 128,-1,12
 -96 -45 -96 -45 -125 -45 c 0,13,14
 -146 -45 -146 -45 -167 -52.5 c 128,-1,15
 -188 -60 -188 -60 -205 -75 c 1,16,-1
 -235 -35 l 1,17,18
 -207 -15 -207 -15 -179 -5 c 128,-1,19
 -151 5 -151 5 -125 5 c 0,20,21
 -71 5 -71 5 -33 -30 c 128,-1,22
 5 -65 5 -65 5 -115 c 0,23,24
 5 -171 5 -171 -45 -210.5 c 128,-1,25
 -95 -250 -95 -250 -165 -250 c 1,26,-1
 -165 -250 l 1,0,1
EndSplineSet
EndChar

StartChar: u0AC4
Encoding: 2754 2754 76
Width: 0
GlyphClass: 4
Flags: W
AnchorPoint: "Anchor-1" -138 12 mark 0
LayerCount: 2
Fore
SplineSet
-160 -225 m 1,0,1
 -210 -225 -210 -225 -245 -193 c 128,-1,2
 -280 -161 -280 -161 -280 -115 c 0,3,4
 -280 -65 -280 -65 -233 -30 c 128,-1,5
 -186 5 -186 5 -120 5 c 0,6,7
 -48 5 -48 5 38 -42 c 128,-1,8
 124 -89 124 -89 210 -175 c 1,9,-1
 175 -205 l 1,10,11
 98 -128 98 -128 21.5 -86.5 c 128,-1,12
 -55 -45 -55 -45 -120 -45 c 0,13,14
 -163 -45 -163 -45 -194 -65.5 c 128,-1,15
 -225 -86 -225 -86 -225 -115 c 0,16,17
 -225 -140 -225 -140 -206 -157.5 c 128,-1,18
 -187 -175 -187 -175 -160 -175 c 0,19,20
 -138 -175 -138 -175 -117.5 -166 c 128,-1,21
 -97 -157 -97 -157 -80 -140 c 1,22,-1
 -40 -165 l 1,23,24
 -56 -193 -56 -193 -88 -209 c 128,-1,25
 -120 -225 -120 -225 -160 -225 c 1,26,-1
 -160 -225 l 1,0,1
EndSplineSet
EndChar

StartChar: u0AC5
Encoding: 2755 2755 77
Width: 0
GlyphClass: 4
Flags: W
AnchorPoint: "Anchor-1" -108 6 mark 0
LayerCount: 2
Fore
SplineSet
-130 -250 m 1,0,1
 -209 -250 -209 -250 -257 -214.5 c 128,-1,2
 -305 -179 -305 -179 -305 -120 c 0,3,4
 -305 -68 -305 -68 -261 -31.5 c 128,-1,5
 -217 5 -217 5 -155 5 c 2,6,-1
 -75 5 l 1,7,-1
 -75 -45 l 1,8,-1
 -130 -45 l 2,9,10
 -178 -45 -178 -45 -211.5 -68.5 c 128,-1,11
 -245 -92 -245 -92 -245 -125 c 256,12,13
 -245 -158 -245 -158 -211.5 -181.5 c 128,-1,14
 -178 -205 -178 -205 -130 -205 c 0,15,16
 -112 -205 -112 -205 -91.5 -200 c 128,-1,17
 -71 -195 -71 -195 -50 -185 c 1,18,-1
 -25 -230 l 1,19,20
 -46 -240 -46 -240 -72.5 -245 c 128,-1,21
 -99 -250 -99 -250 -130 -250 c 1,22,-1
 -130 -250 l 1,0,1
EndSplineSet
EndChar

StartChar: u0AC7
Encoding: 2756 2756 78
Width: 0
GlyphClass: 4
Flags: W
AnchorPoint: "Anchor-1" -148 6 mark 0
LayerCount: 2
Fore
SplineSet
-305 -72 m 1,0,1
 -305 -39 -305 -39 -259.5 -15.5 c 128,-1,2
 -214 8 -214 8 -150 8 c 2,3,-1
 -115 8 l 1,4,-1
 -115 -27 l 1,5,-1
 -150 -27 l 2,6,7
 -189 -27 -189 -27 -217 -41 c 128,-1,8
 -245 -55 -245 -55 -245 -75 c 0,9,10
 -245 -80 -245 -80 -242.5 -85 c 128,-1,11
 -240 -90 -240 -90 -235 -94 c 1,12,13
 -218 -88 -218 -88 -197.5 -85 c 128,-1,14
 -177 -82 -177 -82 -155 -82 c 2,15,-1
 -95 -82 l 1,16,-1
 -95 -117 l 1,17,-1
 -130 -117 l 2,18,19
 -178 -117 -178 -117 -211.5 -131 c 128,-1,20
 -245 -145 -245 -145 -245 -165 c 256,21,22
 -245 -185 -245 -185 -211.5 -199 c 128,-1,23
 -178 -213 -178 -213 -130 -213 c 0,24,25
 -111 -213 -111 -213 -91 -210 c 128,-1,26
 -71 -207 -71 -207 -50 -201 c 1,27,-1
 -25 -233 l 1,28,29
 -54 -241 -54 -241 -80.5 -245.5 c 128,-1,30
 -107 -250 -107 -250 -130 -250 c 0,31,32
 -209 -250 -209 -250 -257 -226 c 128,-1,33
 -305 -202 -305 -202 -305 -162 c 0,34,35
 -305 -151 -305 -151 -298.5 -140 c 128,-1,36
 -292 -129 -292 -129 -281 -119 c 1,37,38
 -292 -108 -292 -108 -298.5 -96 c 128,-1,39
 -305 -84 -305 -84 -305 -72 c 1,40,-1
 -305 -72 l 1,0,1
EndSplineSet
EndChar

StartChar: u0AC8
Encoding: 2757 2757 79
Width: 0
GlyphClass: 4
Flags: W
AnchorPoint: "Anchor-0" -118 -6 mark 0
LayerCount: 2
Fore
SplineSet
-120 500 m 1,0,1
 -170 500 -170 500 -252 554.5 c 128,-1,2
 -334 609 -334 609 -435 710 c 1,3,-1
 -400 745 l 1,4,5
 -305 650 -305 650 -233.5 600 c 128,-1,6
 -162 550 -162 550 -120 550 c 0,7,8
 -108 550 -108 550 -88.5 563 c 128,-1,9
 -69 576 -69 576 -45 600 c 1,10,-1
 -10 565 l 1,11,12
 -31 534 -31 534 -60.5 517 c 128,-1,13
 -90 500 -90 500 -120 500 c 1,14,-1
 -120 500 l 1,0,1
EndSplineSet
EndChar

StartChar: u0AC9
Encoding: 2759 2759 80
Width: 0
GlyphClass: 4
Flags: W
AnchorPoint: "Anchor-0" -124 -8 mark 0
LayerCount: 2
Fore
SplineSet
-445 705 m 1,0,-1
 -445 750 l 1,1,2
 -392 750 -392 750 -331.5 723 c 128,-1,3
 -271 696 -271 696 -210 645 c 2,4,-1
 -85 535 l 1,5,-1
 -120 500 l 1,6,-1
 -240 600 l 2,7,8
 -301 651 -301 651 -353.5 678 c 128,-1,9
 -406 705 -406 705 -445 705 c 1,10,-1
 -445 705 l 1,0,-1
EndSplineSet
EndChar

StartChar: u0ACB
Encoding: 2760 2760 81
Width: 0
GlyphClass: 4
Flags: W
AnchorPoint: "Anchor-0" -128 0 mark 0
LayerCount: 2
Fore
SplineSet
-80 500 m 1,0,-1
 -145 600 l 2,1,2
 -180 649 -180 649 -214 677 c 128,-1,3
 -248 705 -248 705 -275 705 c 1,4,-1
 -275 750 l 1,5,6
 -238 750 -238 750 -196.5 718 c 128,-1,7
 -155 686 -155 686 -120 630 c 2,8,-1
 -50 515 l 1,9,-1
 -80 500 l 1,10,-1
 -80 500 l 1,0,-1
-510 705 m 1,11,-1
 -510 750 l 1,12,13
 -454 750 -454 750 -395.5 723 c 128,-1,14
 -337 696 -337 696 -285 645 c 2,15,-1
 -160 525 l 1,16,-1
 -185 500 l 1,17,-1
 -300 600 l 2,18,19
 -361 651 -361 651 -415 678 c 128,-1,20
 -469 705 -469 705 -510 705 c 1,21,-1
 -510 705 l 1,11,-1
EndSplineSet
EndChar

StartChar: u0ACC
Encoding: 2761 2761 82
Width: 240
GlyphClass: 2
Flags: W
LayerCount: 2
Fore
SplineSet
90 500 m 1,0,-1
 150 500 l 1,1,-1
 150 0 l 1,2,-1
 90 0 l 1,3,-1
 90 500 l 1,4,-1
 90 500 l 1,0,-1
120 510 m 1,5,6
 54 510 54 510 -28.5 565 c 128,-1,7
 -111 620 -111 620 -195 720 c 1,8,-1
 -160 750 l 1,9,10
 -66 656 -66 656 8 605.5 c 128,-1,11
 82 555 82 555 125 555 c 0,12,13
 151 555 151 555 177 569.5 c 128,-1,14
 203 584 203 584 225 610 c 1,15,-1
 260 585 l 1,16,17
 240 550 240 550 202.5 530 c 128,-1,18
 165 510 165 510 120 510 c 1,19,-1
 120 510 l 1,5,6
EndSplineSet
EndChar

StartChar: u0ACD
Encoding: 2763 2763 83
Width: 240
GlyphClass: 2
Flags: W
LayerCount: 2
Fore
SplineSet
90 500 m 1,0,-1
 150 500 l 1,1,-1
 150 0 l 1,2,-1
 90 0 l 1,3,-1
 90 500 l 1,4,-1
 90 500 l 1,0,-1
-205 710 m 1,5,-1
 -205 755 l 1,6,7
 -152 755 -152 755 -91.5 728 c 128,-1,8
 -31 701 -31 701 30 650 c 2,9,-1
 155 540 l 1,10,-1
 120 505 l 1,11,-1
 0 605 l 2,12,13
 -61 656 -61 656 -113.5 683 c 128,-1,14
 -166 710 -166 710 -205 710 c 1,15,-1
 -205 710 l 1,5,-1
EndSplineSet
EndChar

StartChar: u0AD0
Encoding: 2764 2764 84
Width: 240
GlyphClass: 2
Flags: W
LayerCount: 2
Fore
SplineSet
90 500 m 1,0,-1
 150 500 l 1,1,-1
 150 0 l 1,2,-1
 90 0 l 1,3,-1
 90 500 l 1,4,-1
 90 500 l 1,0,-1
165 500 m 1,5,-1
 100 600 l 2,6,7
 65 649 65 649 31 677 c 128,-1,8
 -3 705 -3 705 -30 705 c 1,9,-1
 -30 750 l 1,10,11
 7 750 7 750 48.5 718 c 128,-1,12
 90 686 90 686 125 630 c 2,13,-1
 195 515 l 1,14,-1
 165 500 l 1,15,-1
 165 500 l 1,5,-1
-265 705 m 1,16,-1
 -265 750 l 1,17,18
 -209 750 -209 750 -150.5 723 c 128,-1,19
 -92 696 -92 696 -40 645 c 2,20,-1
 85 525 l 1,21,-1
 60 500 l 1,22,-1
 -55 600 l 2,23,24
 -116 651 -116 651 -170 678 c 128,-1,25
 -224 705 -224 705 -265 705 c 1,26,-1
 -265 705 l 1,16,-1
EndSplineSet
EndChar

StartChar: u0AE0
Encoding: 2765 2765 85
Width: 0
GlyphClass: 4
Flags: W
LayerCount: 2
Fore
SplineSet
130 -235 m 1,0,-1
 -120 -65 l 1,1,-1
 -180 -95 l 1,2,-1
 -195 -50 l 1,3,-1
 -120 -15 l 1,4,-1
 160 -200 l 1,5,-1
 130 -235 l 1,6,-1
 130 -235 l 1,0,-1
EndSplineSet
EndChar

StartChar: u0AE1
Encoding: 2768 2768 86
Width: 1009
GlyphClass: 2
Flags: W
LayerCount: 2
Fore
SplineSet
236 -5 m 1,0,1
 167 -5 167 -5 108 28.5 c 128,-1,2
 49 62 49 62 16 120 c 1,3,-1
 51 150 l 1,4,5
 84 103 84 103 133 76.5 c 128,-1,6
 182 50 182 50 236 50 c 0,7,8
 292 50 292 50 331.5 79.5 c 128,-1,9
 371 109 371 109 371 150 c 0,10,11
 371 187 371 187 324 213.5 c 128,-1,12
 277 240 277 240 211 240 c 2,13,-1
 166 240 l 1,14,-1
 166 290 l 1,15,-1
 211 290 l 2,16,17
 265 290 265 290 303 313.5 c 128,-1,18
 341 337 341 337 341 370 c 256,19,20
 341 403 341 403 310 426.5 c 128,-1,21
 279 450 279 450 236 450 c 0,22,23
 201 450 201 450 165.5 440 c 128,-1,24
 130 430 130 430 96 410 c 1,25,-1
 76 460 l 1,26,27
 114 482 114 482 155 493.5 c 128,-1,28
 196 505 196 505 236 505 c 0,29,30
 304 505 304 505 352.5 468.5 c 128,-1,31
 401 432 401 432 401 380 c 0,32,33
 401 339 401 339 383 307.5 c 128,-1,34
 365 276 365 276 336 265 c 1,35,36
 353 264 353 264 371 252 c 128,-1,37
 389 240 389 240 406 220 c 1,38,39
 433 210 433 210 454.5 205 c 128,-1,40
 476 200 476 200 491 200 c 0,41,42
 525 200 525 200 564.5 240.5 c 128,-1,43
 604 281 604 281 636 350 c 0,44,45
 664 409 664 409 707.5 444.5 c 128,-1,46
 751 480 751 480 796 480 c 0,47,48
 864 480 864 480 912.5 421.5 c 128,-1,49
 961 363 961 363 961 280 c 0,50,51
 961 189 961 189 912.5 124.5 c 128,-1,52
 864 60 864 60 796 60 c 0,53,54
 726 60 726 60 676 114 c 128,-1,55
 626 168 626 168 626 245 c 1,56,57
 602 203 602 203 566 179 c 128,-1,58
 530 155 530 155 491 155 c 0,59,60
 468 155 468 155 451.5 157.5 c 128,-1,61
 435 160 435 160 426 165 c 1,62,63
 426 95 426 95 370.5 45 c 128,-1,64
 315 -5 315 -5 236 -5 c 1,65,-1
 236 -5 l 1,0,1
796 110 m 1,66,67
 839 110 839 110 870 158.5 c 128,-1,68
 901 207 901 207 901 275 c 0,69,70
 901 335 901 335 871.5 377.5 c 128,-1,71
 842 420 842 420 801 420 c 0,72,73
 751 420 751 420 716 376 c 128,-1,74
 681 332 681 332 681 270 c 0,75,76
 681 204 681 204 714.5 157 c 128,-1,77
 748 110 748 110 796 110 c 1,78,-1
 796 110 l 1,66,67
526 550 m 1,79,80
 469 550 469 550 411.5 581.5 c 128,-1,81
 354 613 354 613 306 670 c 1,82,-1
 351 705 l 1,83,84
 386 656 386 656 432 628 c 128,-1,85
 478 600 478 600 526 600 c 0,86,87
 578 600 578 600 625 629.5 c 128,-1,88
 672 659 672 659 701 710 c 1,89,-1
 741 685 l 1,90,91
 712 623 712 623 654 586.5 c 128,-1,92
 596 550 596 550 526 550 c 1,93,-1
 526 550 l 1,79,80
536 660 m 1,94,95
 511 660 511 660 493.5 673 c 128,-1,96
 476 686 476 686 476 705 c 256,97,98
 476 724 476 724 493.5 737 c 128,-1,99
 511 750 511 750 536 750 c 0,100,101
 557 750 557 750 571.5 737 c 128,-1,102
 586 724 586 724 586 705 c 256,103,104
 586 686 586 686 571.5 673 c 128,-1,105
 557 660 557 660 536 660 c 1,106,-1
 536 660 l 1,94,95
EndSplineSet
EndChar

StartChar: u0AE2
Encoding: 2784 2784 87
Width: 917
GlyphClass: 2
Flags: W
LayerCount: 2
Fore
SplineSet
428 500 m 1,0,-1
 488 500 l 1,1,-1
 488 385 l 1,2,3
 498 358 498 358 528 341.5 c 128,-1,4
 558 325 558 325 598 325 c 0,5,6
 620 325 620 325 641.5 329 c 128,-1,7
 663 333 663 333 683 340 c 1,8,9
 669 354 669 354 661 371 c 128,-1,10
 653 388 653 388 653 405 c 0,11,12
 653 426 653 426 670.5 440.5 c 128,-1,13
 688 455 688 455 713 455 c 0,14,15
 740 455 740 455 759 437.5 c 128,-1,16
 778 420 778 420 778 395 c 0,17,18
 778 378 778 378 770 361 c 128,-1,19
 762 344 762 344 748 330 c 1,20,21
 769 312 769 312 785.5 291.5 c 128,-1,22
 802 271 802 271 813 248 c 1,23,-1
 828 248 l 1,24,-1
 828 213 l 1,25,-1
 793 213 l 2,26,27
 754 213 754 213 726 199 c 128,-1,28
 698 185 698 185 698 165 c 0,29,30
 698 160 698 160 700.5 155 c 128,-1,31
 703 150 703 150 708 146 c 1,32,33
 725 152 725 152 745.5 155 c 128,-1,34
 766 158 766 158 788 158 c 2,35,-1
 848 158 l 1,36,-1
 848 123 l 1,37,-1
 813 123 l 2,38,39
 765 123 765 123 731.5 109 c 128,-1,40
 698 95 698 95 698 75 c 256,41,42
 698 55 698 55 731.5 41 c 128,-1,43
 765 27 765 27 813 27 c 0,44,45
 832 27 832 27 852 30 c 128,-1,46
 872 33 872 33 893 39 c 1,47,-1
 908 -3 l 1,48,49
 887 -9 887 -9 863 -12 c 128,-1,50
 839 -15 839 -15 813 -15 c 0,51,52
 734 -15 734 -15 686 10.5 c 128,-1,53
 638 36 638 36 638 78 c 0,54,55
 638 89 638 89 644.5 100 c 128,-1,56
 651 111 651 111 662 121 c 1,57,58
 651 132 651 132 644.5 144 c 128,-1,59
 638 156 638 156 638 168 c 0,60,61
 638 196 638 196 672 218.5 c 128,-1,62
 706 241 706 241 757 246 c 1,63,64
 748 263 748 263 735.5 277 c 128,-1,65
 723 291 723 291 708 300 c 1,66,67
 687 288 687 288 662.5 281.5 c 128,-1,68
 638 275 638 275 613 275 c 0,69,70
 570 275 570 275 537.5 284 c 128,-1,71
 505 293 505 293 488 310 c 1,72,-1
 488 0 l 1,73,-1
 428 0 l 1,74,-1
 428 250 l 1,75,-1
 128 65 l 1,76,-1
 88 110 l 1,77,-1
 338 255 l 1,78,79
 329 307 329 307 293.5 341 c 128,-1,80
 258 375 258 375 213 375 c 0,81,82
 180 375 180 375 136 353 c 128,-1,83
 92 331 92 331 43 290 c 1,84,-1
 13 330 l 1,85,86
 61 378 61 378 115.5 404 c 128,-1,87
 170 430 170 430 223 430 c 0,88,89
 274 430 274 430 319.5 391.5 c 128,-1,90
 365 353 365 353 388 290 c 1,91,-1
 428 320 l 1,92,-1
 428 500 l 1,93,-1
 428 500 l 1,0,-1
EndSplineSet
EndChar

StartChar: u0AE3
Encoding: 2785 2785 88
Width: 592
GlyphClass: 2
Flags: W
LayerCount: 2
Fore
SplineSet
38 305 m 1,0,1
 38 369 38 369 82 414.5 c 128,-1,2
 126 460 126 460 188 460 c 0,3,4
 220 460 220 460 248.5 439.5 c 128,-1,5
 277 419 277 419 293 385 c 1,6,7
 305 419 305 419 339.5 439.5 c 128,-1,8
 374 460 374 460 418 460 c 0,9,10
 474 460 474 460 513.5 420.5 c 128,-1,11
 553 381 553 381 553 325 c 0,12,13
 553 279 553 279 528 239.5 c 128,-1,14
 503 200 503 200 461 177 c 0,15,16
 437 164 437 164 422.5 146.5 c 128,-1,17
 408 129 408 129 408 112 c 0,18,19
 408 88 408 88 424 71 c 128,-1,20
 440 54 440 54 463 54 c 2,21,-1
 498 54 l 1,22,-1
 498 3 l 1,23,-1
 462 3 l 2,24,25
 439 3 439 3 423 -12 c 128,-1,26
 407 -27 407 -27 407 -49 c 0,27,28
 407 -69 407 -69 423 -83 c 128,-1,29
 439 -97 439 -97 462 -97 c 0,30,31
 484 -97 484 -97 500 -83 c 128,-1,32
 516 -69 516 -69 516 -49 c 1,33,-1
 567 -49 l 1,34,35
 567 -89 567 -89 536 -117.5 c 128,-1,36
 505 -146 505 -146 462 -146 c 256,37,38
 419 -146 419 -146 388 -119 c 128,-1,39
 357 -92 357 -92 357 -53 c 0,40,41
 357 -25 357 -25 369.5 -3 c 128,-1,42
 382 19 382 19 402 27 c 1,43,44
 382 39 382 39 370 61.5 c 128,-1,45
 358 84 358 84 358 112 c 0,46,47
 358 141 358 141 377.5 168 c 128,-1,48
 397 195 397 195 431 212 c 0,49,50
 464 229 464 229 483.5 259 c 128,-1,51
 503 289 503 289 503 324 c 0,52,53
 503 360 503 360 478 385 c 128,-1,54
 453 410 453 410 418 410 c 0,55,56
 377 410 377 410 347.5 379 c 128,-1,57
 318 348 318 348 318 305 c 2,58,-1
 318 200 l 1,59,-1
 268 200 l 1,60,-1
 268 305 l 2,61,62
 268 348 268 348 244.5 379 c 128,-1,63
 221 410 221 410 188 410 c 0,64,65
 147 410 147 410 117.5 379 c 128,-1,66
 88 348 88 348 88 305 c 0,67,68
 88 270 88 270 107 239.5 c 128,-1,69
 126 209 126 209 158 193 c 1,70,-1
 121 154 l 1,71,72
 82 177 82 177 60 217.5 c 128,-1,73
 38 258 38 258 38 305 c 1,74,-1
 38 305 l 1,0,1
EndSplineSet
EndChar

StartChar: u0AE6
Encoding: 2786 2786 89
Width: 0
GlyphClass: 4
Flags: W
AnchorPoint: "Anchor-1" -108 28 mark 0
LayerCount: 2
Fore
SplineSet
-332 -71 m 1,0,1
 -332 -28 -332 -28 -296.5 3 c 128,-1,2
 -261 34 -261 34 -211 34 c 0,3,4
 -182 34 -182 34 -156.5 19.5 c 128,-1,5
 -131 5 -131 5 -115 -21 c 1,6,7
 -101 7 -101 7 -73.5 23 c 128,-1,8
 -46 39 -46 39 -14 39 c 0,9,10
 35 39 35 39 70 9 c 128,-1,11
 105 -21 105 -21 105 -63 c 0,12,13
 105 -87 105 -87 84.5 -109.5 c 128,-1,14
 64 -132 64 -132 31 -145 c 0,15,16
 9 -153 9 -153 -4.5 -165.5 c 128,-1,17
 -18 -178 -18 -178 -18 -190 c 0,18,19
 -18 -204 -18 -204 -6.5 -214 c 128,-1,20
 5 -224 5 -224 22 -224 c 256,21,22
 39 -224 39 -224 50.5 -214 c 128,-1,23
 62 -204 62 -204 62 -190 c 1,24,-1
 112 -190 l 1,25,26
 112 -220 112 -220 85.5 -241.5 c 128,-1,27
 59 -263 59 -263 22 -263 c 256,28,29
 -15 -263 -15 -263 -41.5 -242.5 c 128,-1,30
 -68 -222 -68 -222 -68 -193 c 0,31,32
 -68 -169 -68 -169 -50.5 -148 c 128,-1,33
 -33 -127 -33 -127 -4 -117 c 0,34,35
 23 -107 23 -107 39 -92.5 c 128,-1,36
 55 -78 55 -78 55 -63 c 0,37,38
 55 -41 55 -41 35 -26 c 128,-1,39
 15 -11 15 -11 -14 -11 c 0,40,41
 -45 -11 -45 -11 -67.5 -28.5 c 128,-1,42
 -90 -46 -90 -46 -90 -71 c 2,43,-1
 -90 -131 l 1,44,-1
 -141 -131 l 1,45,-1
 -141 -71 l 2,46,47
 -141 -46 -141 -46 -161.5 -28.5 c 128,-1,48
 -182 -11 -182 -11 -211 -11 c 256,49,50
 -240 -11 -240 -11 -261 -28.5 c 128,-1,51
 -282 -46 -282 -46 -282 -71 c 0,52,53
 -282 -89 -282 -89 -266.5 -105.5 c 128,-1,54
 -251 -122 -251 -122 -225 -131 c 1,55,-1
 -250 -167 l 1,56,57
 -287 -150 -287 -150 -309.5 -124 c 128,-1,58
 -332 -98 -332 -98 -332 -71 c 1,59,-1
 -332 -71 l 1,0,1
EndSplineSet
EndChar

StartChar: u0AE7
Encoding: 2787 2787 90
Width: 0
GlyphClass: 4
Flags: W
AnchorPoint: "Anchor-1" -118 42 mark 0
LayerCount: 2
Fore
SplineSet
-336 -58 m 1,0,1
 -336 -17 -336 -17 -300.5 12.5 c 128,-1,2
 -265 42 -265 42 -214 42 c 0,3,4
 -184 42 -184 42 -159.5 30 c 128,-1,5
 -135 18 -135 18 -120 -4 c 1,6,7
 -108 17 -108 17 -80.5 29.5 c 128,-1,8
 -53 42 -53 42 -18 42 c 0,9,10
 31 42 31 42 66 16 c 128,-1,11
 101 -10 101 -10 101 -47 c 0,12,13
 101 -70 101 -70 80.5 -91.5 c 128,-1,14
 60 -113 60 -113 27 -124 c 0,15,16
 8 -131 8 -131 -4 -140 c 128,-1,17
 -16 -149 -16 -149 -16 -157 c 0,18,19
 -16 -168 -16 -168 -6 -175.5 c 128,-1,20
 4 -183 4 -183 18 -183 c 2,21,-1
 47 -183 l 1,22,-1
 47 -216 l 1,23,-1
 18 -216 l 2,24,25
 -1 -216 -1 -216 -14 -222.5 c 128,-1,26
 -27 -229 -27 -229 -27 -239 c 256,27,28
 -27 -249 -27 -249 -14 -256 c 128,-1,29
 -1 -263 -1 -263 18 -263 c 0,30,31
 36 -263 36 -263 48.5 -256 c 128,-1,32
 61 -249 61 -249 61 -239 c 1,33,-1
 113 -239 l 1,34,35
 113 -267 113 -267 85 -286.5 c 128,-1,36
 57 -306 57 -306 18 -306 c 256,37,38
 -21 -306 -21 -306 -49 -287.5 c 128,-1,39
 -77 -269 -77 -269 -77 -242 c 0,40,41
 -77 -227 -77 -227 -65.5 -215.5 c 128,-1,42
 -54 -204 -54 -204 -36 -200 c 1,43,44
 -52 -194 -52 -194 -62 -182 c 128,-1,45
 -72 -170 -72 -170 -72 -157 c 0,46,47
 -72 -141 -72 -141 -54 -124.5 c 128,-1,48
 -36 -108 -36 -108 -7 -99 c 0,49,50
 18 -91 18 -91 34 -77 c 128,-1,51
 50 -63 50 -63 50 -48 c 0,52,53
 50 -31 50 -31 30 -19.5 c 128,-1,54
 10 -8 10 -8 -18 -8 c 0,55,56
 -49 -8 -49 -8 -71.5 -22.5 c 128,-1,57
 -94 -37 -94 -37 -94 -58 c 2,58,-1
 -94 -112 l 1,59,-1
 -144 -112 l 1,60,-1
 -144 -58 l 2,61,62
 -144 -37 -144 -37 -164.5 -22.5 c 128,-1,63
 -185 -8 -185 -8 -214 -8 c 256,64,65
 -243 -8 -243 -8 -264 -22.5 c 128,-1,66
 -285 -37 -285 -37 -285 -58 c 0,67,68
 -285 -76 -285 -76 -267.5 -90.5 c 128,-1,69
 -250 -105 -250 -105 -224 -109 c 1,70,-1
 -248 -145 l 1,71,72
 -286 -137 -286 -137 -311 -112.5 c 128,-1,73
 -336 -88 -336 -88 -336 -58 c 1,74,-1
 -336 -58 l 1,0,1
EndSplineSet
EndChar

StartChar: u0AE8
Encoding: 2790 2790 91
Width: 550
GlyphClass: 2
Flags: W
LayerCount: 2
Fore
SplineSet
281 40 m 1,0,1
 194 40 194 40 141.5 94.5 c 128,-1,2
 89 149 89 149 89 240 c 0,3,4
 89 333 89 333 141.5 389 c 128,-1,5
 194 445 194 445 281 445 c 0,6,7
 363 445 363 445 412 391.5 c 128,-1,8
 461 338 461 338 461 250 c 0,9,10
 461 155 461 155 412 97.5 c 128,-1,11
 363 40 363 40 281 40 c 1,12,-1
 281 40 l 1,0,1
276 95 m 1,13,14
 328 95 328 95 364.5 139 c 128,-1,15
 401 183 401 183 401 245 c 0,16,17
 401 305 401 305 366 347.5 c 128,-1,18
 331 390 331 390 281 390 c 0,19,20
 228 390 228 390 190.5 346 c 128,-1,21
 153 302 153 302 153 240 c 0,22,23
 153 180 153 180 189 137.5 c 128,-1,24
 225 95 225 95 276 95 c 1,25,-1
 276 95 l 1,13,14
EndSplineSet
EndChar

StartChar: u0AE9
Encoding: 2791 2791 92
Width: 549
GlyphClass: 2
Flags: W
LayerCount: 2
Fore
SplineSet
457 0 m 1,0,-1
 402 0 l 2,1,2
 373 0 373 0 352.5 32 c 128,-1,3
 332 64 332 64 332 110 c 2,4,-1
 332 330 l 1,5,6
 301 308 301 308 274 296.5 c 128,-1,7
 247 285 247 285 227 285 c 0,8,9
 171 285 171 285 131.5 316 c 128,-1,10
 92 347 92 347 92 390 c 0,11,12
 92 438 92 438 139 471.5 c 128,-1,13
 186 505 186 505 252 505 c 0,14,15
 310 505 310 505 351 462.5 c 128,-1,16
 392 420 392 420 392 360 c 2,17,-1
 392 110 l 2,18,19
 392 87 392 87 403.5 71 c 128,-1,20
 415 55 415 55 432 55 c 2,21,-1
 457 55 l 1,22,-1
 457 0 l 1,23,-1
 457 0 l 1,0,-1
227 335 m 1,24,25
 266 335 266 335 294 349.5 c 128,-1,26
 322 364 322 364 322 385 c 0,27,28
 322 414 322 414 298.5 434.5 c 128,-1,29
 275 455 275 455 242 455 c 0,30,31
 207 455 207 455 182 434.5 c 128,-1,32
 157 414 157 414 157 385 c 0,33,34
 157 364 157 364 177.5 349.5 c 128,-1,35
 198 335 198 335 227 335 c 1,36,-1
 227 335 l 1,24,25
EndSplineSet
EndChar

StartChar: u0AEA
Encoding: 2792 2792 93
Width: 549
GlyphClass: 2
Flags: W
LayerCount: 2
Fore
SplineSet
487 0 m 1,0,-1
 417 0 l 2,1,2
 378 0 378 0 336 40.5 c 128,-1,3
 294 81 294 81 262 150 c 1,4,5
 248 145 248 145 232 142.5 c 128,-1,6
 216 140 216 140 197 140 c 0,7,8
 141 140 141 140 101.5 169.5 c 128,-1,9
 62 199 62 199 62 240 c 256,10,11
 62 281 62 281 97 310.5 c 128,-1,12
 132 340 132 340 182 340 c 0,13,14
 221 340 221 340 254.5 306.5 c 128,-1,15
 288 273 288 273 302 220 c 1,16,17
 338 256 338 256 357.5 290 c 128,-1,18
 377 324 377 324 377 350 c 0,19,20
 377 398 377 398 342 431.5 c 128,-1,21
 307 465 307 465 257 465 c 0,22,23
 222 465 222 465 187.5 453.5 c 128,-1,24
 153 442 153 442 122 420 c 1,25,-1
 87 460 l 1,26,27
 116 484 116 484 160 497 c 128,-1,28
 204 510 204 510 257 510 c 0,29,30
 334 510 334 510 388 463 c 128,-1,31
 442 416 442 416 442 350 c 0,32,33
 442 300 442 300 410 249.5 c 128,-1,34
 378 199 378 199 322 160 c 1,35,36
 345 97 345 97 392.5 62 c 128,-1,37
 440 27 440 27 487 40 c 1,38,-1
 487 0 l 1,39,-1
 487 0 l 1,0,-1
192 185 m 1,40,41
 211 185 211 185 226 187.5 c 128,-1,42
 241 190 241 190 252 195 c 1,43,44
 241 237 241 237 220 263.5 c 128,-1,45
 199 290 199 290 177 290 c 0,46,47
 154 290 154 290 138 274 c 128,-1,48
 122 258 122 258 122 235 c 0,49,50
 122 214 122 214 142.5 199.5 c 128,-1,51
 163 185 163 185 192 185 c 1,52,-1
 192 185 l 1,40,41
EndSplineSet
EndChar

StartChar: u0AEB
Encoding: 2793 2793 94
Width: 549
GlyphClass: 2
Flags: W
LayerCount: 2
Fore
SplineSet
282 0 m 1,0,1
 218 0 218 0 161.5 33.5 c 128,-1,2
 105 67 105 67 72 125 c 1,3,-1
 117 150 l 1,4,5
 150 103 150 103 196.5 76.5 c 128,-1,6
 243 50 243 50 292 50 c 0,7,8
 344 50 344 50 380.5 78 c 128,-1,9
 417 106 417 106 417 145 c 0,10,11
 417 178 417 178 376 201.5 c 128,-1,12
 335 225 335 225 277 225 c 2,13,-1
 222 225 l 1,14,-1
 222 280 l 1,15,-1
 267 280 l 2,16,17
 321 280 321 280 359 306.5 c 128,-1,18
 397 333 397 333 397 370 c 0,19,20
 397 403 397 403 365 426.5 c 128,-1,21
 333 450 333 450 287 450 c 0,22,23
 255 450 255 450 223.5 441 c 128,-1,24
 192 432 192 432 162 415 c 1,25,-1
 127 460 l 1,26,27
 165 482 165 482 207 493.5 c 128,-1,28
 249 505 249 505 292 505 c 0,29,30
 360 505 360 505 408.5 467 c 128,-1,31
 457 429 457 429 457 375 c 0,32,33
 457 334 457 334 433.5 302 c 128,-1,34
 410 270 410 270 372 260 c 1,35,36
 418 248 418 248 447.5 215.5 c 128,-1,37
 477 183 477 183 477 145 c 0,38,39
 477 85 477 85 420 42.5 c 128,-1,40
 363 0 363 0 282 0 c 1,41,-1
 282 0 l 1,0,1
EndSplineSet
EndChar

StartChar: u0AEC
Encoding: 2794 2794 95
Width: 552
GlyphClass: 2
Flags: W
LayerCount: 2
Fore
SplineSet
292 10 m 1,0,1
 240 10 240 10 203.5 49.5 c 128,-1,2
 167 89 167 89 167 145 c 0,3,4
 167 178 167 178 190 223 c 128,-1,5
 213 268 213 268 257 320 c 1,6,7
 207 349 207 349 143 370 c 128,-1,8
 79 391 79 391 2 405 c 1,9,-1
 32 450 l 1,10,11
 126 433 126 433 194.5 408 c 128,-1,12
 263 383 263 383 302 350 c 1,13,14
 350 390 350 390 415 418 c 128,-1,15
 480 446 480 446 557 460 c 1,16,-1
 572 410 l 1,17,18
 524 410 524 410 463.5 385.5 c 128,-1,19
 403 361 403 361 337 315 c 1,20,21
 373 272 373 272 392.5 229.5 c 128,-1,22
 412 187 412 187 412 150 c 0,23,24
 412 92 412 92 377 51 c 128,-1,25
 342 10 342 10 292 10 c 1,26,-1
 292 10 l 1,0,1
292 50 m 1,27,28
 319 50 319 50 338 79.5 c 128,-1,29
 357 109 357 109 357 150 c 0,30,31
 357 186 357 186 341.5 221 c 128,-1,32
 326 256 326 256 297 285 c 1,33,34
 263 251 263 251 245 215 c 128,-1,35
 227 179 227 179 227 145 c 0,36,37
 227 106 227 106 246 78 c 128,-1,38
 265 50 265 50 292 50 c 1,39,-1
 292 50 l 1,27,28
EndSplineSet
EndChar

StartChar: u0AED
Encoding: 2795 2795 96
Width: 550
GlyphClass: 2
Flags: W
LayerCount: 2
Fore
SplineSet
460 0 m 1,0,1
 443 0 443 0 431.5 14.5 c 128,-1,2
 420 29 420 29 420 50 c 2,3,-1
 420 170 l 1,4,5
 400 142 400 142 368.5 126 c 128,-1,6
 337 110 337 110 300 110 c 0,7,8
 232 110 232 110 183.5 145 c 128,-1,9
 135 180 135 180 135 230 c 2,10,-1
 135 390 l 2,11,12
 135 419 135 419 124.5 439.5 c 128,-1,13
 114 460 114 460 100 460 c 0,14,15
 92 460 92 460 73.5 447 c 128,-1,16
 55 434 55 434 50 430 c 1,17,-1
 25 470 l 1,18,19
 44 489 44 489 67.5 499.5 c 128,-1,20
 91 510 91 510 115 510 c 0,21,22
 150 510 150 510 175 478 c 128,-1,23
 200 446 200 446 200 400 c 2,24,-1
 200 255 l 2,25,26
 200 216 200 216 229.5 188 c 128,-1,27
 259 160 259 160 300 160 c 0,28,29
 334 160 334 160 366.5 187 c 128,-1,30
 399 214 399 214 420 260 c 1,31,-1
 420 500 l 1,32,-1
 480 500 l 1,33,-1
 480 75 l 2,34,35
 480 61 480 61 489 50.5 c 128,-1,36
 498 40 498 40 510 40 c 2,37,-1
 525 40 l 1,38,-1
 525 0 l 1,39,-1
 460 0 l 1,40,-1
 460 0 l 1,0,1
EndSplineSet
EndChar

StartChar: u0AEE
Encoding: 2796 2796 97
Width: 550
GlyphClass: 2
Flags: W
LayerCount: 2
Fore
SplineSet
240 -10 m 1,0,1
 191 -10 191 -10 152.5 9 c 128,-1,2
 114 28 114 28 95 60 c 1,3,-1
 130 100 l 1,4,5
 156 69 156 69 182 52 c 128,-1,6
 208 35 208 35 230 35 c 0,7,8
 269 35 269 35 297 63 c 128,-1,9
 325 91 325 91 325 130 c 0,10,11
 325 144 325 144 316 167 c 128,-1,12
 307 190 307 190 290 220 c 1,13,14
 207 220 207 220 148.5 261 c 128,-1,15
 90 302 90 302 90 360 c 0,16,17
 90 422 90 422 150 466 c 128,-1,18
 210 510 210 510 295 510 c 0,19,20
 353 510 353 510 396.5 497 c 128,-1,21
 440 484 440 484 460 460 c 1,22,-1
 430 425 l 1,23,24
 408 447 408 447 375.5 458.5 c 128,-1,25
 343 470 343 470 305 470 c 0,26,27
 243 470 243 470 199 436.5 c 128,-1,28
 155 403 155 403 155 355 c 0,29,30
 155 320 155 320 194.5 295 c 128,-1,31
 234 270 234 270 290 270 c 1,32,33
 293 300 293 300 314.5 320 c 128,-1,34
 336 340 336 340 365 340 c 0,35,36
 388 340 388 340 404 324 c 128,-1,37
 420 308 420 308 420 285 c 0,38,39
 420 263 420 263 403.5 245 c 128,-1,40
 387 227 387 227 360 220 c 1,41,42
 370 199 370 199 375 175 c 128,-1,43
 380 151 380 151 380 125 c 0,44,45
 380 69 380 69 339 29.5 c 128,-1,46
 298 -10 298 -10 240 -10 c 1,47,-1
 240 -10 l 1,0,1
EndSplineSet
EndChar

StartChar: u0AEF
Encoding: 2797 2797 98
Width: 549
GlyphClass: 2
Flags: W
LayerCount: 2
Fore
SplineSet
267 20 m 1,0,1
 163 20 163 20 90 99 c 128,-1,2
 17 178 17 178 17 290 c 1,3,-1
 77 290 l 1,4,5
 77 199 77 199 132.5 134.5 c 128,-1,6
 188 70 188 70 267 70 c 0,7,8
 309 70 309 70 347.5 91 c 128,-1,9
 386 112 386 112 412 150 c 1,10,11
 333 157 333 157 280 208.5 c 128,-1,12
 227 260 227 260 227 330 c 0,13,14
 227 396 227 396 274 443 c 128,-1,15
 321 490 321 490 387 490 c 0,16,17
 447 490 447 490 489.5 447.5 c 128,-1,18
 532 405 532 405 532 345 c 0,19,20
 532 210 532 210 454.5 115 c 128,-1,21
 377 20 377 20 267 20 c 1,22,-1
 267 20 l 1,0,1
437 200 m 1,23,24
 454 230 454 230 463 268 c 128,-1,25
 472 306 472 306 472 350 c 0,26,27
 472 387 472 387 445.5 413.5 c 128,-1,28
 419 440 419 440 382 440 c 0,29,30
 343 440 343 440 315 408 c 128,-1,31
 287 376 287 376 287 330 c 0,32,33
 287 276 287 276 331 238 c 128,-1,34
 375 200 375 200 437 200 c 1,35,-1
 437 200 l 1,23,24
EndSplineSet
EndChar

StartChar: u0AF1
Encoding: 2798 2798 99
Width: 550
GlyphClass: 2
Flags: W
LayerCount: 2
Fore
SplineSet
270 0 m 1,0,1
 191 0 191 0 135.5 35 c 128,-1,2
 80 70 80 70 80 120 c 0,3,4
 80 137 80 137 93 161.5 c 128,-1,5
 106 186 106 186 130 215 c 2,6,-1
 435 510 l 1,7,-1
 470 470 l 1,8,-1
 215 220 l 1,9,10
 182 197 182 197 163.5 169 c 128,-1,11
 145 141 145 141 145 115 c 0,12,13
 145 88 145 88 180 69 c 128,-1,14
 215 50 215 50 265 50 c 0,15,16
 311 50 311 50 353 63 c 128,-1,17
 395 76 395 76 430 100 c 1,18,-1
 465 50 l 1,19,20
 422 25 422 25 372.5 12.5 c 128,-1,21
 323 0 323 0 270 0 c 1,22,-1
 270 0 l 1,0,1
EndSplineSet
EndChar

StartChar: uni0AEF
Encoding: 2799 2799 100
Width: 550
GlyphClass: 2
Flags: W
LayerCount: 2
Fore
SplineSet
300 -5 m 1,0,1
 190 -5 190 -5 112.5 69.5 c 128,-1,2
 35 144 35 144 35 250 c 0,3,4
 35 358 35 358 118.5 434 c 128,-1,5
 202 510 202 510 320 510 c 0,6,7
 354 510 354 510 382 506 c 128,-1,8
 410 502 410 502 430 495 c 1,9,-1
 415 450 l 1,10,11
 405 453 405 453 384.5 454 c 128,-1,12
 364 455 364 455 330 455 c 0,13,14
 233 455 233 455 164 396.5 c 128,-1,15
 95 338 95 338 95 255 c 0,16,17
 95 170 95 170 161 110 c 128,-1,18
 227 50 227 50 320 50 c 0,19,20
 343 50 343 50 370.5 57.5 c 128,-1,21
 398 65 398 65 430 80 c 1,22,-1
 460 35 l 1,23,24
 426 15 426 15 385.5 5 c 128,-1,25
 345 -5 345 -5 300 -5 c 1,26,-1
 300 -5 l 1,0,1
235 230 m 1,27,-1
 225 280 l 1,28,-1
 510 305 l 1,29,-1
 515 260 l 1,30,-1
 235 230 l 1,31,-1
 235 230 l 1,27,-1
EndSplineSet
EndChar

StartChar: uni0AF1
Encoding: 2801 2801 101
Width: 717
GlyphClass: 2
Flags: W
LayerCount: 2
Fore
SplineSet
353 -130 m 1,0,1
 339 -132 339 -132 325 -133.5 c 128,-1,2
 311 -135 311 -135 298 -135 c 0,3,4
 242 -135 242 -135 200.5 -92 c 128,-1,5
 159 -49 159 -49 153 15 c 1,6,7
 100 24 100 24 64.5 40 c 128,-1,8
 29 56 29 56 18 75 c 1,9,-1
 53 115 l 1,10,11
 77 91 77 91 113.5 78 c 128,-1,12
 150 65 150 65 193 65 c 0,13,14
 245 65 245 65 281.5 91.5 c 128,-1,15
 318 118 318 118 318 155 c 0,16,17
 318 190 318 190 278.5 215 c 128,-1,18
 239 240 239 240 183 240 c 2,19,-1
 118 240 l 1,20,-1
 118 290 l 1,21,-1
 183 290 l 2,22,23
 237 290 237 290 275 315 c 128,-1,24
 313 340 313 340 313 375 c 0,25,26
 313 408 313 408 278 431.5 c 128,-1,27
 243 455 243 455 193 455 c 0,28,29
 170 455 170 455 138 443.5 c 128,-1,30
 106 432 106 432 68 410 c 1,31,-1
 48 455 l 1,32,33
 77 479 77 479 117 492 c 128,-1,34
 157 505 157 505 203 505 c 0,35,36
 273 505 273 505 323 465.5 c 128,-1,37
 373 426 373 426 373 370 c 0,38,39
 373 334 373 334 349.5 304.5 c 128,-1,40
 326 275 326 275 288 265 c 1,41,42
 328 254 328 254 353 223.5 c 128,-1,43
 378 193 378 193 378 155 c 0,44,45
 378 95 378 95 331 52.5 c 128,-1,46
 284 10 284 10 218 10 c 1,47,48
 225 -31 225 -31 253.5 -58 c 128,-1,49
 282 -85 282 -85 318 -85 c 0,50,51
 326 -85 326 -85 337.5 -83.5 c 128,-1,52
 349 -82 349 -82 363 -80 c 1,53,-1
 353 -130 l 1,54,-1
 353 -130 l 1,0,1
548 -6 m 1,55,56
 489 -6 489 -6 453 32 c 128,-1,57
 417 70 417 70 417 134 c 0,58,59
 417 199 417 199 453 238 c 128,-1,60
 489 277 489 277 548 277 c 0,61,62
 608 277 608 277 644 239.5 c 128,-1,63
 680 202 680 202 680 140 c 0,64,65
 680 74 680 74 644 34 c 128,-1,66
 608 -6 608 -6 548 -6 c 1,67,-1
 548 -6 l 1,55,56
549 37 m 1,68,69
 582 37 582 37 605.5 66.5 c 128,-1,70
 629 96 629 96 629 137 c 0,71,72
 629 177 629 177 605.5 205.5 c 128,-1,73
 582 234 582 234 549 234 c 256,74,75
 516 234 516 234 493 204.5 c 128,-1,76
 470 175 470 175 470 134 c 0,77,78
 470 94 470 94 493 65.5 c 128,-1,79
 516 37 516 37 549 37 c 1,80,-1
 549 37 l 1,68,69
EndSplineSet
EndChar

StartChar: afii61664
Encoding: 8204 8204 102
Width: 220
GlyphClass: 2
Flags: W
LayerCount: 2
Fore
SplineSet
90 -245 m 1,0,-1
 90 750 l 1,1,-1
 130 750 l 1,2,-1
 130 -245 l 1,3,-1
 90 -245 l 1,4,-1
 90 -245 l 1,0,-1
EndSplineSet
EndChar

StartChar: afii301
Encoding: 8205 8205 103
Width: 480
GlyphClass: 2
Flags: W
LayerCount: 2
Fore
SplineSet
220 -245 m 1,0,-1
 220 710 l 1,1,-1
 90 710 l 1,2,-1
 90 750 l 1,3,-1
 390 750 l 1,4,-1
 390 710 l 1,5,-1
 260 710 l 1,6,-1
 260 -245 l 1,7,-1
 220 -245 l 1,8,-1
 220 -245 l 1,0,-1
EndSplineSet
EndChar

StartChar: endash
Encoding: 8211 8211 104
Width: 550
GlyphClass: 2
Flags: W
LayerCount: 2
Fore
SplineSet
0 250 m 1,0,-1
 0 305 l 1,1,-1
 523 305 l 1,2,-1
 523 250 l 1,3,-1
 0 250 l 1,4,-1
 0 250 l 1,0,-1
EndSplineSet
EndChar

StartChar: emdash
Encoding: 8212 8212 105
Width: 1024
GlyphClass: 2
Flags: W
LayerCount: 2
Fore
SplineSet
0 250 m 1,0,-1
 0 305 l 1,1,-1
 1000 305 l 1,2,-1
 1000 250 l 1,3,-1
 0 250 l 1,4,-1
 0 250 l 1,0,-1
EndSplineSet
EndChar

StartChar: quoteleft
Encoding: 8216 8216 106
Width: 355
GlyphClass: 2
Flags: W
LayerCount: 2
Fore
SplineSet
235 735 m 1,0,-1
 265 700 l 1,1,2
 217 678 217 678 188.5 650.5 c 128,-1,3
 160 623 160 623 160 600 c 1,4,5
 162 604 162 604 176 602 c 128,-1,6
 190 600 190 600 200 600 c 0,7,8
 221 600 221 600 235.5 579.5 c 128,-1,9
 250 559 250 559 250 530 c 0,10,11
 250 507 250 507 228 491 c 128,-1,12
 206 475 206 475 175 475 c 0,13,14
 140 475 140 475 115 498.5 c 128,-1,15
 90 522 90 522 90 555 c 0,16,17
 90 606 90 606 129.5 655 c 128,-1,18
 169 704 169 704 235 735 c 1,19,-1
 235 735 l 1,0,-1
EndSplineSet
EndChar

StartChar: quoteright
Encoding: 8217 8217 107
Width: 355
GlyphClass: 2
Flags: W
LayerCount: 2
Fore
SplineSet
120 465 m 1,0,-1
 90 500 l 1,1,2
 138 522 138 522 166.5 549.5 c 128,-1,3
 195 577 195 577 195 600 c 1,4,5
 193 596 193 596 179 598 c 128,-1,6
 165 600 165 600 155 600 c 0,7,8
 134 600 134 600 119.5 620.5 c 128,-1,9
 105 641 105 641 105 670 c 0,10,11
 105 693 105 693 127 709 c 128,-1,12
 149 725 149 725 180 725 c 0,13,14
 215 725 215 725 240 698.5 c 128,-1,15
 265 672 265 672 265 635 c 0,16,17
 265 588 265 588 225.5 542 c 128,-1,18
 186 496 186 496 120 465 c 1,19,-1
 120 465 l 1,0,-1
EndSplineSet
EndChar

StartChar: quotedblleft
Encoding: 8220 8220 108
Width: 435
GlyphClass: 2
Flags: W
LayerCount: 2
Fore
SplineSet
90 435 m 1,0,-1
 165 620 l 1,1,-1
 205 620 l 1,2,-1
 160 435 l 1,3,-1
 90 435 l 1,4,-1
 90 435 l 1,0,-1
230 435 m 1,5,-1
 305 620 l 1,6,-1
 345 620 l 1,7,-1
 300 435 l 1,8,-1
 230 435 l 1,9,-1
 230 435 l 1,5,-1
EndSplineSet
EndChar

StartChar: quotedblright
Encoding: 8221 8221 109
Width: 460
GlyphClass: 2
Flags: W
LayerCount: 2
Fore
SplineSet
90 435 m 1,0,-1
 150 635 l 1,1,-1
 230 635 l 1,2,-1
 135 435 l 1,3,-1
 90 435 l 1,4,-1
 90 435 l 1,0,-1
230 435 m 1,5,-1
 290 635 l 1,6,-1
 370 635 l 1,7,-1
 275 435 l 1,8,-1
 230 435 l 1,9,-1
 230 435 l 1,5,-1
EndSplineSet
EndChar

StartChar: ellipsis
Encoding: 8230 8230 110
Width: 810
GlyphClass: 2
Flags: W
LayerCount: 2
Fore
SplineSet
90 0 m 1,0,-1
 90 45 l 1,1,-1
 200 45 l 1,2,-1
 200 0 l 1,3,-1
 90 0 l 1,4,-1
 90 0 l 1,0,-1
350 0 m 1,5,-1
 350 45 l 1,6,-1
 460 45 l 1,7,-1
 460 0 l 1,8,-1
 350 0 l 1,9,-1
 350 0 l 1,5,-1
610 0 m 1,10,-1
 610 45 l 1,11,-1
 720 45 l 1,12,-1
 720 0 l 1,13,-1
 610 0 l 1,14,-1
 610 0 l 1,10,-1
EndSplineSet
EndChar

StartChar: minus
Encoding: 8722 8722 111
Width: 620
GlyphClass: 2
Flags: W
LayerCount: 2
Fore
SplineSet
90 250 m 1,0,-1
 90 305 l 1,1,-1
 530 305 l 1,2,-1
 530 250 l 1,3,-1
 90 250 l 1,4,-1
 90 250 l 1,0,-1
EndSplineSet
EndChar

StartChar: uni25CC
Encoding: 9676 9676 112
Width: 720
GlyphClass: 2
Flags: W
LayerCount: 2
Fore
SplineSet
324 484 m 1,0,1
 324 499 324 499 334.5 509.5 c 128,-1,2
 345 520 345 520 360 520 c 256,3,4
 375 520 375 520 385.5 509.5 c 128,-1,5
 396 499 396 499 396 484 c 256,6,7
 396 469 396 469 385.5 458.5 c 128,-1,8
 375 448 375 448 360 448 c 256,9,10
 345 448 345 448 334.5 458.5 c 128,-1,11
 324 469 324 469 324 484 c 1,12,-1
 324 484 l 1,0,1
324 16 m 1,13,14
 324 31 324 31 334.5 41.5 c 128,-1,15
 345 52 345 52 360 52 c 256,16,17
 375 52 375 52 385.5 41.5 c 128,-1,18
 396 31 396 31 396 16 c 256,19,20
 396 1 396 1 385.5 -9.5 c 128,-1,21
 375 -20 375 -20 360 -20 c 256,22,23
 345 -20 345 -20 334.5 -9.5 c 128,-1,24
 324 1 324 1 324 16 c 1,25,-1
 324 16 l 1,13,14
90 250 m 1,26,27
 90 265 90 265 100.5 275.5 c 128,-1,28
 111 286 111 286 126 286 c 256,29,30
 141 286 141 286 151.5 275.5 c 128,-1,31
 162 265 162 265 162 250 c 256,32,33
 162 235 162 235 151.5 224.5 c 128,-1,34
 141 214 141 214 126 214 c 256,35,36
 111 214 111 214 100.5 224.5 c 128,-1,37
 90 235 90 235 90 250 c 1,38,-1
 90 250 l 1,26,27
558 250 m 1,39,40
 558 265 558 265 568.5 275.5 c 128,-1,41
 579 286 579 286 594 286 c 256,42,43
 609 286 609 286 619.5 275.5 c 128,-1,44
 630 265 630 265 630 250 c 256,45,46
 630 235 630 235 619.5 224.5 c 128,-1,47
 609 214 609 214 594 214 c 256,48,49
 579 214 579 214 568.5 224.5 c 128,-1,50
 558 235 558 235 558 250 c 1,51,-1
 558 250 l 1,39,40
122 133 m 1,52,53
 122 148 122 148 132.5 158.5 c 128,-1,54
 143 169 143 169 158 169 c 256,55,56
 173 169 173 169 183.5 158.5 c 128,-1,57
 194 148 194 148 194 133 c 256,58,59
 194 118 194 118 183.5 107.5 c 128,-1,60
 173 97 173 97 158 97 c 256,61,62
 143 97 143 97 132.5 107.5 c 128,-1,63
 122 118 122 118 122 133 c 1,64,-1
 122 133 l 1,52,53
527 367 m 1,65,66
 527 382 527 382 537.5 392.5 c 128,-1,67
 548 403 548 403 563 403 c 256,68,69
 578 403 578 403 588.5 392.5 c 128,-1,70
 599 382 599 382 599 367 c 256,71,72
 599 352 599 352 588.5 341.5 c 128,-1,73
 578 331 578 331 563 331 c 256,74,75
 548 331 548 331 537.5 341.5 c 128,-1,76
 527 352 527 352 527 367 c 1,77,-1
 527 367 l 1,65,66
441 453 m 1,78,79
 441 468 441 468 451.5 478.5 c 128,-1,80
 462 489 462 489 477 489 c 256,81,82
 492 489 492 489 502.5 478.5 c 128,-1,83
 513 468 513 468 513 453 c 256,84,85
 513 438 513 438 502.5 427.5 c 128,-1,86
 492 417 492 417 477 417 c 256,87,88
 462 417 462 417 451.5 427.5 c 128,-1,89
 441 438 441 438 441 453 c 1,90,-1
 441 453 l 1,78,79
207 48 m 1,91,92
 207 63 207 63 217.5 73.5 c 128,-1,93
 228 84 228 84 243 84 c 256,94,95
 258 84 258 84 268.5 73.5 c 128,-1,96
 279 63 279 63 279 48 c 256,97,98
 279 33 279 33 268.5 22 c 128,-1,99
 258 11 258 11 243 11 c 256,100,101
 228 11 228 11 217.5 22 c 128,-1,102
 207 33 207 33 207 48 c 1,103,-1
 207 48 l 1,91,92
122 367 m 1,104,105
 122 382 122 382 132.5 392.5 c 128,-1,106
 143 403 143 403 158 403 c 256,107,108
 173 403 173 403 183.5 392.5 c 128,-1,109
 194 382 194 382 194 367 c 256,110,111
 194 352 194 352 183.5 341.5 c 128,-1,112
 173 331 173 331 158 331 c 256,113,114
 143 331 143 331 132.5 341.5 c 128,-1,115
 122 352 122 352 122 367 c 1,116,-1
 122 367 l 1,104,105
527 133 m 1,117,118
 527 148 527 148 537.5 158.5 c 128,-1,119
 548 169 548 169 563 169 c 256,120,121
 578 169 578 169 588.5 158.5 c 128,-1,122
 599 148 599 148 599 133 c 256,123,124
 599 118 599 118 588.5 107.5 c 128,-1,125
 578 97 578 97 563 97 c 256,126,127
 548 97 548 97 537.5 107.5 c 128,-1,128
 527 118 527 118 527 133 c 1,129,-1
 527 133 l 1,117,118
207 453 m 1,130,131
 207 468 207 468 217.5 478.5 c 128,-1,132
 228 489 228 489 243 489 c 256,133,134
 258 489 258 489 268.5 478.5 c 128,-1,135
 279 468 279 468 279 453 c 256,136,137
 279 438 279 438 268.5 427.5 c 128,-1,138
 258 417 258 417 243 417 c 256,139,140
 228 417 228 417 217.5 427.5 c 128,-1,141
 207 438 207 438 207 453 c 1,142,-1
 207 453 l 1,130,131
441 48 m 1,143,144
 441 63 441 63 451.5 73.5 c 128,-1,145
 462 84 462 84 477 84 c 256,146,147
 492 84 492 84 502.5 73.5 c 128,-1,148
 513 63 513 63 513 48 c 256,149,150
 513 33 513 33 502.5 22 c 128,-1,151
 492 11 492 11 477 11 c 256,152,153
 462 11 462 11 451.5 22 c 128,-1,154
 441 33 441 33 441 48 c 1,155,-1
 441 48 l 1,143,144
EndSplineSet
EndChar

StartChar: u0A97_u0AE0.half
Encoding: 65571 -1 113
Width: 419
GlyphClass: 2
Flags: W
LayerCount: 2
Fore
SplineSet
234 -10 m 1,0,1
 170 -10 170 -10 117 14 c 128,-1,2
 64 38 64 38 34 80 c 1,3,-1
 74 110 l 1,4,5
 102 77 102 77 144 58.5 c 128,-1,6
 186 40 186 40 234 40 c 0,7,8
 286 40 286 40 322.5 65 c 128,-1,9
 359 90 359 90 359 125 c 0,10,11
 359 155 359 155 328 187.5 c 128,-1,12
 297 220 297 220 244 245 c 1,13,-1
 54 180 l 1,14,-1
 29 225 l 1,15,-1
 189 280 l 1,16,17
 136 305 136 305 105 337.5 c 128,-1,18
 74 370 74 370 74 400 c 0,19,20
 74 446 74 446 129.5 478 c 128,-1,21
 185 510 185 510 264 510 c 0,22,23
 304 510 304 510 338.5 503.5 c 128,-1,24
 373 497 373 497 399 485 c 1,25,-1
 384 435 l 1,26,27
 358 447 358 447 328.5 453.5 c 128,-1,28
 299 460 299 460 269 460 c 0,29,30
 217 460 217 460 180.5 442.5 c 128,-1,31
 144 425 144 425 144 400 c 256,32,33
 144 375 144 375 174 349 c 128,-1,34
 204 323 204 323 254 305 c 1,35,-1
 439 325 l 1,36,-1
 439 285 l 1,37,-1
 304 270 l 1,38,39
 362 243 362 243 394 201 c 128,-1,40
 426 159 426 159 419 120 c 1,41,42
 419 66 419 66 365 28 c 128,-1,43
 311 -10 311 -10 234 -10 c 1,44,-1
 234 -10 l 1,0,1
EndSplineSet
Ligature2: "'half' Half Forms in Gujarati lookup 3 subtable" u0A97 u0AE0
EndChar

StartChar: u0A98_u0AE0.half
Encoding: 65572 -1 114
Width: 467
GlyphClass: 2
Flags: W
LayerCount: 2
Fore
SplineSet
92 235 m 1,0,-1
 92 400 l 2,1,2
 92 421 92 421 83 435.5 c 128,-1,3
 74 450 74 450 62 450 c 2,4,-1
 22 450 l 1,5,-1
 22 500 l 1,6,-1
 87 500 l 2,7,8
 114 500 114 500 133 479.5 c 128,-1,9
 152 459 152 459 152 430 c 2,10,-1
 152 235 l 2,11,12
 152 198 152 198 175.5 171.5 c 128,-1,13
 199 145 199 145 232 145 c 0,14,15
 263 145 263 145 285 171.5 c 128,-1,16
 307 198 307 198 307 235 c 2,17,-1
 307 395 l 1,18,-1
 367 395 l 1,19,-1
 367 325 l 1,20,-1
 487 325 l 1,21,-1
 487 270 l 1,22,-1
 367 270 l 1,23,-1
 367 235 l 2,24,25
 367 175 367 175 326 132.5 c 128,-1,26
 285 90 285 90 227 90 c 0,27,28
 171 90 171 90 131.5 132.5 c 128,-1,29
 92 175 92 175 92 235 c 1,30,-1
 92 235 l 1,0,-1
EndSplineSet
Ligature2: "'half' Half Forms in Gujarati lookup 3 subtable" u0A98 u0AE0
EndChar

StartChar: u0A99_u0AE0.half
Encoding: 65573 -1 115
Width: 397
GlyphClass: 2
Flags: W
LayerCount: 2
Fore
SplineSet
173 145 m 1,0,1
 128 145 128 145 87 167.5 c 128,-1,2
 46 190 46 190 18 230 c 1,3,-1
 53 265 l 1,4,5
 70 235 70 235 102.5 217.5 c 128,-1,6
 135 200 135 200 173 200 c 0,7,8
 225 200 225 200 261.5 236.5 c 128,-1,9
 298 273 298 273 298 325 c 0,10,11
 298 375 298 375 263 410 c 128,-1,12
 228 445 228 445 178 445 c 0,13,14
 152 445 152 445 129.5 437 c 128,-1,15
 107 429 107 429 93 415 c 1,16,-1
 53 450 l 1,17,18
 77 474 77 474 111 487 c 128,-1,19
 145 500 145 500 183 500 c 0,20,21
 255 500 255 500 306.5 448.5 c 128,-1,22
 358 397 358 397 358 325 c 0,23,24
 358 250 358 250 304 197.5 c 128,-1,25
 250 145 250 145 173 145 c 1,26,-1
 173 145 l 1,0,1
EndSplineSet
Ligature2: "'half' Half Forms in Gujarati lookup 3 subtable" u0A99 u0AE0
EndChar

StartChar: u0A9A_u0AE0.half
Encoding: 65574 -1 116
Width: 389
GlyphClass: 2
Flags: W
LayerCount: 2
Fore
SplineSet
59 385 m 1,0,1
 59 433 59 433 101.5 466.5 c 128,-1,2
 144 500 144 500 204 500 c 2,3,-1
 274 500 l 1,4,-1
 274 450 l 1,5,-1
 204 450 l 2,6,7
 169 450 169 450 144 431.5 c 128,-1,8
 119 413 119 413 119 387 c 256,9,10
 119 361 119 361 144 343 c 128,-1,11
 169 325 169 325 204 325 c 2,12,-1
 284 325 l 1,13,-1
 284 275 l 1,14,-1
 204 275 l 2,15,16
 169 275 169 275 144 247 c 128,-1,17
 119 219 119 219 119 180 c 0,18,19
 119 143 119 143 151 116.5 c 128,-1,20
 183 90 183 90 229 90 c 0,21,22
 281 90 281 90 328.5 116.5 c 128,-1,23
 376 143 376 143 409 190 c 1,24,-1
 409 120 l 1,25,26
 383 82 383 82 335 61 c 128,-1,27
 287 40 287 40 229 40 c 0,28,29
 159 40 159 40 109 81 c 128,-1,30
 59 122 59 122 59 180 c 0,31,32
 59 214 59 214 76.5 243.5 c 128,-1,33
 94 273 94 273 124 290 c 1,34,35
 95 301 95 301 77 327 c 128,-1,36
 59 353 59 353 59 385 c 1,37,-1
 59 385 l 1,0,1
EndSplineSet
Ligature2: "'half' Half Forms in Gujarati lookup 3 subtable" u0A9A u0AE0
EndChar

StartChar: u0A9B_u0AE0.half
Encoding: 65575 -1 117
Width: 491
GlyphClass: 2
Flags: W
LayerCount: 2
Fore
SplineSet
266 -10 m 1,0,1
 176 -10 176 -10 108 41 c 128,-1,2
 40 92 40 92 26 170 c 1,3,-1
 71 185 l 1,4,5
 89 119 89 119 142 77 c 128,-1,6
 195 35 195 35 261 35 c 0,7,8
 319 35 319 35 360 70 c 128,-1,9
 401 105 401 105 401 155 c 0,10,11
 401 194 401 194 373 222 c 128,-1,12
 345 250 345 250 306 250 c 2,13,-1
 216 250 l 2,14,15
 160 250 160 250 120.5 283.5 c 128,-1,16
 81 317 81 317 81 365 c 0,17,18
 81 421 81 421 125 460.5 c 128,-1,19
 169 500 169 500 231 500 c 2,20,-1
 396 500 l 1,21,-1
 396 450 l 1,22,-1
 226 450 l 2,23,24
 191 450 191 450 166 426.5 c 128,-1,25
 141 403 141 403 141 370 c 0,26,27
 141 341 141 341 163 320.5 c 128,-1,28
 185 300 185 300 216 300 c 2,29,-1
 316 300 l 2,30,31
 376 300 376 300 418.5 257.5 c 128,-1,32
 461 215 461 215 461 155 c 0,33,34
 461 87 461 87 404 38.5 c 128,-1,35
 347 -10 347 -10 266 -10 c 1,36,-1
 266 -10 l 1,0,1
461 315 m 1,37,38
 440 315 440 315 425.5 329.5 c 128,-1,39
 411 344 411 344 411 365 c 0,40,41
 411 388 411 388 427 404 c 128,-1,42
 443 420 443 420 466 420 c 0,43,44
 485 420 485 420 498 405.5 c 128,-1,45
 511 391 511 391 511 370 c 0,46,47
 511 347 511 347 496.5 331 c 128,-1,48
 482 315 482 315 461 315 c 1,49,-1
 461 315 l 1,37,38
496 -235 m 1,50,-1
 246 -65 l 1,51,-1
 186 -95 l 1,52,-1
 171 -50 l 1,53,-1
 246 -15 l 1,54,-1
 526 -200 l 1,55,-1
 496 -235 l 1,56,-1
 496 -235 l 1,50,-1
EndSplineSet
Ligature2: "'half' Half Forms in Gujarati lookup 3 subtable" u0A9B u0AE0
EndChar

StartChar: u0A9C_u0AE0.half
Encoding: 65576 -1 118
Width: 468
GlyphClass: 2
Flags: W
LayerCount: 2
Fore
SplineSet
33 265 m 1,0,-1
 118 265 l 2,1,2
 186 265 186 265 227 293.5 c 128,-1,3
 268 322 268 322 268 370 c 0,4,5
 268 409 268 409 233 437 c 128,-1,6
 198 465 198 465 148 465 c 0,7,8
 120 465 120 465 94 456 c 128,-1,9
 68 447 68 447 48 430 c 1,10,-1
 18 470 l 1,11,12
 40 492 40 492 75 503.5 c 128,-1,13
 110 515 110 515 153 515 c 0,14,15
 225 515 225 515 276.5 471 c 128,-1,16
 328 427 328 427 328 365 c 0,17,18
 328 311 328 311 285.5 268.5 c 128,-1,19
 243 226 243 226 178 215 c 1,20,21
 178 169 178 169 213 137 c 128,-1,22
 248 105 248 105 298 105 c 0,23,24
 352 105 352 105 404.5 157 c 128,-1,25
 457 209 457 209 488 295 c 1,26,-1
 488 180 l 1,27,28
 447 121 447 121 395.5 88 c 128,-1,29
 344 55 344 55 293 55 c 0,30,31
 217 55 217 55 167.5 100.5 c 128,-1,32
 118 146 118 146 118 215 c 1,33,-1
 33 215 l 1,34,-1
 33 265 l 1,35,-1
 33 265 l 1,0,-1
EndSplineSet
Ligature2: "'half' Half Forms in Gujarati lookup 3 subtable" u0A9C u0AE0
EndChar

StartChar: u0A9D_u0AE0.half
Encoding: 65577 -1 119
Width: 546
GlyphClass: 2
Flags: W
LayerCount: 2
Fore
SplineSet
291 -5 m 1,0,1
 196 -5 196 -5 128.5 40.5 c 128,-1,2
 61 86 61 86 61 150 c 0,3,4
 61 195 61 195 84.5 230.5 c 128,-1,5
 108 266 108 266 146 280 c 1,6,7
 108 290 108 290 84.5 319.5 c 128,-1,8
 61 349 61 349 61 385 c 0,9,10
 61 435 61 435 105 470 c 128,-1,11
 149 505 149 505 211 505 c 2,12,-1
 261 505 l 1,13,-1
 261 455 l 1,14,-1
 231 455 l 2,15,16
 179 455 179 455 150 436.5 c 128,-1,17
 121 418 121 418 121 385 c 0,18,19
 121 354 121 354 152 332 c 128,-1,20
 183 310 183 310 226 310 c 2,21,-1
 271 310 l 1,22,-1
 271 260 l 1,23,-1
 231 260 l 2,24,25
 185 260 185 260 153 229 c 128,-1,26
 121 198 121 198 121 155 c 0,27,28
 121 107 121 107 167.5 78.5 c 128,-1,29
 214 50 214 50 291 50 c 0,30,31
 375 50 375 50 437 106 c 128,-1,32
 499 162 499 162 506 245 c 1,33,34
 492 233 492 233 473.5 226.5 c 128,-1,35
 455 220 455 220 436 220 c 0,36,37
 380 220 380 220 340.5 259.5 c 128,-1,38
 301 299 301 299 301 355 c 0,39,40
 301 415 301 415 342 457.5 c 128,-1,41
 383 500 383 500 441 500 c 0,42,43
 493 500 493 500 529.5 450 c 128,-1,44
 566 400 566 400 566 330 c 0,45,46
 566 178 566 178 491 86.5 c 128,-1,47
 416 -5 416 -5 291 -5 c 1,48,-1
 291 -5 l 1,0,1
436 265 m 1,49,50
 467 265 467 265 489 293 c 128,-1,51
 511 321 511 321 511 360 c 0,52,53
 511 397 511 397 490.5 423.5 c 128,-1,54
 470 450 470 450 441 450 c 0,55,56
 408 450 408 450 384.5 422 c 128,-1,57
 361 394 361 394 361 355 c 0,58,59
 361 318 361 318 383 291.5 c 128,-1,60
 405 265 405 265 436 265 c 1,61,-1
 436 265 l 1,49,50
541 -240 m 1,62,-1
 291 -70 l 1,63,-1
 231 -100 l 1,64,-1
 216 -55 l 1,65,-1
 291 -20 l 1,66,-1
 571 -205 l 1,67,-1
 541 -240 l 1,68,-1
 541 -240 l 1,62,-1
EndSplineSet
Ligature2: "'half' Half Forms in Gujarati lookup 3 subtable" u0A9D u0AE0
EndChar

StartChar: u0A9E_u0AE0.half
Encoding: 65578 -1 120
Width: 496
GlyphClass: 2
Flags: W
LayerCount: 2
Fore
SplineSet
367 5 m 1,0,1
 319 5 319 5 285.5 34.5 c 128,-1,2
 252 64 252 64 252 105 c 0,3,4
 252 140 252 140 275 186.5 c 128,-1,5
 298 233 298 233 342 285 c 1,6,7
 283 369 283 369 235.5 414.5 c 128,-1,8
 188 460 188 460 157 460 c 0,9,10
 130 460 130 460 111 436.5 c 128,-1,11
 92 413 92 413 92 380 c 0,12,13
 92 351 92 351 109.5 330.5 c 128,-1,14
 127 310 127 310 152 310 c 0,15,16
 172 310 172 310 188.5 319.5 c 128,-1,17
 205 329 205 329 212 345 c 1,18,-1
 252 315 l 1,19,20
 237 289 237 289 210.5 274.5 c 128,-1,21
 184 260 184 260 152 260 c 0,22,23
 102 260 102 260 67 295 c 128,-1,24
 32 330 32 330 32 380 c 0,25,26
 32 434 32 434 68.5 472 c 128,-1,27
 105 510 105 510 157 510 c 0,28,29
 198 510 198 510 256 459.5 c 128,-1,30
 314 409 314 409 377 320 c 1,31,32
 386 331 386 331 417.5 372 c 128,-1,33
 449 413 449 413 474 443 c 1,34,-1
 516 408 l 1,35,36
 475 361 475 361 448 328 c 128,-1,37
 421 295 421 295 407 275 c 1,38,39
 439 230 439 230 455.5 186.5 c 128,-1,40
 472 143 472 143 472 105 c 0,41,42
 472 64 472 64 441 34.5 c 128,-1,43
 410 5 410 5 367 5 c 1,44,-1
 367 5 l 1,0,1
367 50 m 1,45,46
 388 50 388 50 402.5 66 c 128,-1,47
 417 82 417 82 417 105 c 0,48,49
 417 131 417 131 404 163 c 128,-1,50
 391 195 391 195 367 230 c 1,51,52
 338 188 338 188 322.5 156 c 128,-1,53
 307 124 307 124 307 105 c 0,54,55
 307 82 307 82 324.5 66 c 128,-1,56
 342 50 342 50 367 50 c 1,57,-1
 367 50 l 1,45,46
EndSplineSet
Ligature2: "'half' Half Forms in Gujarati lookup 3 subtable" u0A9E u0AE0
EndChar

StartChar: u0A9F_u0AE0.half
Encoding: 65579 -1 121
Width: 555
GlyphClass: 2
Flags: W
LayerCount: 2
Fore
SplineSet
420 -10 m 1,0,1
 381 -10 381 -10 351 0.5 c 128,-1,2
 321 11 321 11 305 30 c 1,3,-1
 335 70 l 1,4,5
 349 56 349 56 371.5 48 c 128,-1,6
 394 40 394 40 420 40 c 0,7,8
 461 40 461 40 490.5 71.5 c 128,-1,9
 520 103 520 103 520 147 c 0,10,11
 520 194 520 194 493.5 227 c 128,-1,12
 467 260 467 260 430 260 c 0,13,14
 403 260 403 260 381 253.5 c 128,-1,15
 359 247 359 247 345 235 c 1,16,17
 322 149 322 149 267.5 94.5 c 128,-1,18
 213 40 213 40 150 40 c 0,19,20
 110 40 110 40 76.5 50.5 c 128,-1,21
 43 61 43 61 20 80 c 1,22,-1
 40 120 l 1,23,24
 57 105 57 105 81.5 97.5 c 128,-1,25
 106 90 106 90 135 90 c 0,26,27
 197 90 197 90 241 142.5 c 128,-1,28
 285 195 285 195 285 270 c 0,29,30
 285 342 285 342 247 393.5 c 128,-1,31
 209 445 209 445 155 445 c 0,32,33
 131 445 131 445 105 436 c 128,-1,34
 79 427 79 427 55 410 c 1,35,-1
 30 445 l 1,36,37
 59 469 59 469 91 482 c 128,-1,38
 123 495 123 495 155 495 c 0,39,40
 234 495 234 495 289.5 435 c 128,-1,41
 345 375 345 375 345 290 c 1,42,43
 366 302 366 302 388 308.5 c 128,-1,44
 410 315 410 315 430 315 c 0,45,46
 490 315 490 315 532.5 266 c 128,-1,47
 575 217 575 217 575 147 c 0,48,49
 575 82 575 82 529.5 36 c 128,-1,50
 484 -10 484 -10 420 -10 c 1,51,-1
 420 -10 l 1,0,1
EndSplineSet
Ligature2: "'half' Half Forms in Gujarati lookup 3 subtable" u0A9F u0AE0
EndChar

StartChar: u0AA0_u0AE0.half
Encoding: 65580 -1 122
Width: 502
GlyphClass: 2
Flags: W
LayerCount: 2
Fore
SplineSet
22 230 m 1,0,-1
 62 260 l 1,1,2
 87 216 87 216 126 190.5 c 128,-1,3
 165 165 165 165 207 165 c 0,4,5
 257 165 257 165 292 209 c 128,-1,6
 327 253 327 253 327 315 c 0,7,8
 327 365 327 365 289 400 c 128,-1,9
 251 435 251 435 197 435 c 0,10,11
 166 435 166 435 134.5 418 c 128,-1,12
 103 401 103 401 77 370 c 1,13,-1
 42 410 l 1,14,15
 74 448 74 448 116 469 c 128,-1,16
 158 490 158 490 202 490 c 0,17,18
 280 490 280 490 334 441 c 128,-1,19
 388 392 388 392 382 325 c 1,20,-1
 522 325 l 1,21,-1
 522 275 l 1,22,-1
 382 275 l 1,23,24
 370 206 370 206 322 160.5 c 128,-1,25
 274 115 274 115 212 115 c 0,26,27
 155 115 155 115 104 146 c 128,-1,28
 53 177 53 177 22 230 c 1,29,-1
 22 230 l 1,0,-1
EndSplineSet
Ligature2: "'half' Half Forms in Gujarati lookup 3 subtable" u0AA0 u0AE0
EndChar

StartChar: u0AA1_u0AE0.half
Encoding: 65581 -1 123
Width: 398
GlyphClass: 2
Flags: W
LayerCount: 2
Fore
SplineSet
228 -10 m 1,0,1
 149 -10 149 -10 93.5 35.5 c 128,-1,2
 38 81 38 81 38 145 c 0,3,4
 38 195 38 195 79.5 239 c 128,-1,5
 121 283 121 283 188 305 c 0,6,7
 242 325 242 325 275 349.5 c 128,-1,8
 308 374 308 374 308 395 c 0,9,10
 308 424 308 424 284.5 444.5 c 128,-1,11
 261 465 261 465 228 465 c 0,12,13
 202 465 202 465 172 449.5 c 128,-1,14
 142 434 142 434 113 405 c 1,15,-1
 78 440 l 1,16,17
 106 473 106 473 145.5 491.5 c 128,-1,18
 185 510 185 510 228 510 c 0,19,20
 286 510 286 510 327 478 c 128,-1,21
 368 446 368 446 368 400 c 0,22,23
 368 359 368 359 325 321 c 128,-1,24
 282 283 282 283 213 265 c 0,25,26
 161 246 161 246 129.5 213 c 128,-1,27
 98 180 98 180 98 145 c 0,28,29
 98 99 98 99 136 67 c 128,-1,30
 174 35 174 35 228 35 c 0,31,32
 268 35 268 35 308.5 64.5 c 128,-1,33
 349 94 349 94 378 145 c 1,34,-1
 418 120 l 1,35,36
 390 61 390 61 338.5 25.5 c 128,-1,37
 287 -10 287 -10 228 -10 c 1,38,-1
 228 -10 l 1,0,1
478 -235 m 1,39,-1
 228 -65 l 1,40,-1
 178 -95 l 1,41,-1
 148 -60 l 1,42,-1
 228 -15 l 1,43,-1
 508 -200 l 1,44,-1
 478 -235 l 1,45,-1
 478 -235 l 1,39,-1
EndSplineSet
Ligature2: "'half' Half Forms in Gujarati lookup 3 subtable" u0AA1 u0AE0
EndChar

StartChar: u0AA2_u0AE0.half
Encoding: 65582 -1 124
Width: 433
GlyphClass: 2
Flags: W
LayerCount: 2
Fore
SplineSet
258 -15 m 1,0,1
 171 -15 171 -15 109.5 36.5 c 128,-1,2
 48 88 48 88 48 160 c 0,3,4
 48 207 48 207 77.5 251.5 c 128,-1,5
 107 296 107 296 158 325 c 1,6,7
 124 337 124 337 103.5 360.5 c 128,-1,8
 83 384 83 384 83 410 c 0,9,10
 83 447 83 447 119.5 473.5 c 128,-1,11
 156 500 156 500 208 500 c 2,12,-1
 398 500 l 1,13,-1
 398 450 l 1,14,-1
 218 450 l 2,15,16
 187 450 187 450 165 438.5 c 128,-1,17
 143 427 143 427 143 410 c 0,18,19
 143 385 143 385 180.5 365 c 128,-1,20
 218 345 218 345 273 340 c 0,21,22
 349 333 349 333 401 284 c 128,-1,23
 453 235 453 235 453 170 c 0,24,25
 453 93 453 93 396 39 c 128,-1,26
 339 -15 339 -15 258 -15 c 1,27,-1
 258 -15 l 1,0,1
253 35 m 1,28,29
 311 35 311 35 352 73 c 128,-1,30
 393 111 393 111 393 165 c 0,31,32
 393 221 393 221 353.5 260.5 c 128,-1,33
 314 300 314 300 258 300 c 0,34,35
 196 300 196 300 152 259 c 128,-1,36
 108 218 108 218 108 160 c 0,37,38
 108 108 108 108 150.5 71.5 c 128,-1,39
 193 35 193 35 253 35 c 1,40,-1
 253 35 l 1,28,29
508 -245 m 1,41,-1
 258 -75 l 1,42,-1
 208 -105 l 1,43,-1
 178 -70 l 1,44,-1
 258 -25 l 1,45,-1
 538 -210 l 1,46,-1
 508 -245 l 1,47,-1
 508 -245 l 1,41,-1
EndSplineSet
Ligature2: "'half' Half Forms in Gujarati lookup 3 subtable" u0AA2 u0AE0
EndChar

StartChar: u0AA3_u0AE0.half
Encoding: 65583 -1 125
Width: 442
GlyphClass: 2
Flags: W
LayerCount: 2
Fore
SplineSet
267 -10 m 1,0,1
 177 -10 177 -10 109 41 c 128,-1,2
 41 92 41 92 27 170 c 1,3,-1
 72 185 l 1,4,5
 90 119 90 119 143 77 c 128,-1,6
 196 35 196 35 262 35 c 0,7,8
 320 35 320 35 361 70 c 128,-1,9
 402 105 402 105 402 155 c 0,10,11
 402 192 402 192 371 218.5 c 128,-1,12
 340 245 340 245 297 245 c 2,13,-1
 212 245 l 2,14,15
 156 245 156 245 116.5 281.5 c 128,-1,16
 77 318 77 318 77 370 c 0,17,18
 77 424 77 424 122.5 462 c 128,-1,19
 168 500 168 500 232 500 c 2,20,-1
 397 500 l 1,21,-1
 397 450 l 1,22,-1
 227 450 l 2,23,24
 190 450 190 450 163.5 426.5 c 128,-1,25
 137 403 137 403 137 370 c 0,26,27
 137 339 137 339 159 317 c 128,-1,28
 181 295 181 295 212 295 c 2,29,-1
 297 295 l 2,30,31
 365 295 365 295 413.5 254 c 128,-1,32
 462 213 462 213 462 155 c 0,33,34
 462 87 462 87 405 38.5 c 128,-1,35
 348 -10 348 -10 267 -10 c 1,36,-1
 267 -10 l 1,0,1
517 -240 m 1,37,-1
 267 -70 l 1,38,-1
 217 -100 l 1,39,-1
 187 -65 l 1,40,-1
 267 -20 l 1,41,-1
 547 -205 l 1,42,-1
 517 -240 l 1,43,-1
 517 -240 l 1,37,-1
EndSplineSet
Ligature2: "'half' Half Forms in Gujarati lookup 3 subtable" u0AA3 u0AE0
EndChar

StartChar: u0AA4_u0AE0.half
Encoding: 65584 -1 126
Width: 424
GlyphClass: 2
Flags: W
LayerCount: 2
Fore
SplineSet
244 -10 m 1,0,1
 157 -10 157 -10 95.5 37 c 128,-1,2
 34 84 34 84 34 150 c 0,3,4
 34 208 34 208 83.5 255 c 128,-1,5
 133 302 133 302 209 315 c 0,6,7
 262 329 262 329 295.5 353 c 128,-1,8
 329 377 329 377 329 400 c 0,9,10
 329 427 329 427 304 446 c 128,-1,11
 279 465 279 465 244 465 c 0,12,13
 222 465 222 465 197.5 456 c 128,-1,14
 173 447 173 447 149 430 c 1,15,-1
 114 465 l 1,16,17
 140 487 140 487 172 498.5 c 128,-1,18
 204 510 204 510 239 510 c 0,19,20
 301 510 301 510 345 479 c 128,-1,21
 389 448 389 448 389 405 c 0,22,23
 389 369 389 369 348 332 c 128,-1,24
 307 295 307 295 239 270 c 1,25,26
 176 259 176 259 135 225 c 128,-1,27
 94 191 94 191 94 150 c 0,28,29
 94 102 94 102 134.5 68 c 128,-1,30
 175 34 175 34 232 34 c 0,31,32
 247 34 247 34 260 35.5 c 128,-1,33
 273 37 273 37 284 40 c 1,34,35
 256 56 256 56 240 80 c 128,-1,36
 224 104 224 104 224 130 c 0,37,38
 224 171 224 171 257.5 200.5 c 128,-1,39
 291 230 291 230 339 230 c 0,40,41
 382 230 382 230 413 200.5 c 128,-1,42
 444 171 444 171 444 130 c 0,43,44
 444 72 444 72 385.5 31 c 128,-1,45
 327 -10 327 -10 244 -10 c 1,46,-1
 244 -10 l 1,0,1
339 60 m 1,47,48
 358 60 358 60 371 80.5 c 128,-1,49
 384 101 384 101 384 130 c 0,50,51
 384 155 384 155 371 172.5 c 128,-1,52
 358 190 358 190 339 190 c 0,53,54
 316 190 316 190 300 171 c 128,-1,55
 284 152 284 152 284 125 c 256,56,57
 284 98 284 98 300 79 c 128,-1,58
 316 60 316 60 339 60 c 1,59,-1
 339 60 l 1,47,48
494 -235 m 1,60,-1
 244 -65 l 1,61,-1
 194 -95 l 1,62,-1
 164 -60 l 1,63,-1
 244 -15 l 1,64,-1
 524 -200 l 1,65,-1
 494 -235 l 1,66,-1
 494 -235 l 1,60,-1
EndSplineSet
Ligature2: "'half' Half Forms in Gujarati lookup 3 subtable" u0AA4 u0AE0
EndChar

StartChar: u0AA5_u0AE0.half
Encoding: 65585 -1 127
Width: 578
GlyphClass: 2
Flags: W
LayerCount: 2
Fore
SplineSet
539 20 m 1,0,1
 501 -7 501 -7 444.5 -21 c 128,-1,2
 388 -35 388 -35 319 -35 c 0,3,4
 220 -35 220 -35 149.5 28 c 128,-1,5
 79 91 79 91 79 180 c 2,6,-1
 79 500 l 1,7,-1
 139 500 l 1,8,-1
 139 190 l 2,9,10
 139 118 139 118 194.5 66.5 c 128,-1,11
 250 15 250 15 329 15 c 0,12,13
 388 15 388 15 435.5 26.5 c 128,-1,14
 483 38 483 38 514 60 c 1,15,-1
 539 20 l 1,16,-1
 539 20 l 1,0,1
344 160 m 1,17,18
 313 160 313 160 289.5 166.5 c 128,-1,19
 266 173 266 173 254 185 c 1,20,-1
 274 230 l 1,21,22
 288 220 288 220 304.5 215 c 128,-1,23
 321 210 321 210 339 210 c 0,24,25
 391 210 391 210 427.5 248 c 128,-1,26
 464 286 464 286 464 340 c 0,27,28
 464 390 464 390 433 425 c 128,-1,29
 402 460 402 460 359 460 c 0,30,31
 337 460 337 460 319 455 c 128,-1,32
 301 450 301 450 289 440 c 1,33,-1
 259 475 l 1,34,35
 280 490 280 490 305.5 497.5 c 128,-1,36
 331 505 331 505 359 505 c 0,37,38
 427 505 427 505 475.5 456.5 c 128,-1,39
 524 408 524 408 524 340 c 0,40,41
 524 265 524 265 471.5 212.5 c 128,-1,42
 419 160 419 160 344 160 c 1,43,-1
 344 160 l 1,17,18
EndSplineSet
Ligature2: "'half' Half Forms in Gujarati lookup 3 subtable" u0AA5 u0AE0
EndChar

StartChar: u0AA6_u0AE0.half
Encoding: 65586 -1 128
Width: 391
GlyphClass: 2
Flags: W
LayerCount: 2
Fore
SplineSet
41 210 m 1,0,1
 41 293 41 293 111.5 351.5 c 128,-1,2
 182 410 182 410 281 410 c 2,3,-1
 411 410 l 1,4,-1
 411 360 l 1,5,-1
 281 360 l 2,6,7
 206 360 206 360 153.5 316 c 128,-1,8
 101 272 101 272 101 210 c 0,9,10
 101 138 101 138 153.5 86.5 c 128,-1,11
 206 35 206 35 281 35 c 1,12,-1
 271 -5 l 1,13,14
 176 -5 176 -5 108.5 58 c 128,-1,15
 41 121 41 121 41 210 c 1,16,-1
 41 210 l 1,0,1
EndSplineSet
Ligature2: "'half' Half Forms in Gujarati lookup 3 subtable" u0AA6 u0AE0
EndChar

StartChar: u0AA7_u0AE0.half
Encoding: 65587 -1 129
Width: 424
GlyphClass: 2
Flags: W
LayerCount: 2
Fore
SplineSet
39 305 m 1,0,-1
 94 305 l 2,1,2
 118 305 118 305 138 309 c 128,-1,3
 158 313 158 313 174 320 c 1,4,5
 127 337 127 337 98 373 c 128,-1,6
 69 409 69 409 69 450 c 0,7,8
 69 500 69 500 110 535 c 128,-1,9
 151 570 151 570 209 570 c 0,10,11
 265 570 265 570 304.5 535 c 128,-1,12
 344 500 344 500 344 450 c 0,13,14
 344 371 344 371 272 315.5 c 128,-1,15
 200 260 200 260 99 260 c 1,16,17
 110 197 110 197 157 156 c 128,-1,18
 204 115 204 115 264 115 c 0,19,20
 314 115 314 115 361.5 143 c 128,-1,21
 409 171 409 171 444 220 c 1,22,-1
 444 145 l 1,23,24
 412 107 412 107 363.5 86 c 128,-1,25
 315 65 315 65 259 65 c 0,26,27
 168 65 168 65 103.5 135.5 c 128,-1,28
 39 206 39 206 39 305 c 1,29,-1
 39 305 l 1,0,-1
224 350 m 1,30,31
 252 366 252 366 268 393 c 128,-1,32
 284 420 284 420 284 450 c 0,33,34
 284 481 284 481 263.5 503 c 128,-1,35
 243 525 243 525 214 525 c 0,36,37
 179 525 179 525 154 503 c 128,-1,38
 129 481 129 481 129 450 c 0,39,40
 129 417 129 417 155.5 389 c 128,-1,41
 182 361 182 361 224 350 c 1,42,-1
 224 350 l 1,30,31
EndSplineSet
Ligature2: "'half' Half Forms in Gujarati lookup 3 subtable" u0AA7 u0AE0
EndChar

StartChar: u0AA8_u0AE0.half
Encoding: 65588 -1 130
Width: 431
GlyphClass: 2
Flags: W
LayerCount: 2
Fore
SplineSet
256 -10 m 1,0,1
 171 -10 171 -10 111 38.5 c 128,-1,2
 51 87 51 87 51 155 c 0,3,4
 51 199 51 199 77 237 c 128,-1,5
 103 275 103 275 146 295 c 1,6,7
 117 306 117 306 99 330.5 c 128,-1,8
 81 355 81 355 81 385 c 0,9,10
 81 435 81 435 122 470 c 128,-1,11
 163 505 163 505 221 505 c 2,12,-1
 361 505 l 1,13,-1
 361 455 l 1,14,-1
 216 455 l 2,15,16
 185 455 185 455 163 435 c 128,-1,17
 141 415 141 415 141 387 c 256,18,19
 141 359 141 359 163 339.5 c 128,-1,20
 185 320 185 320 216 320 c 2,21,-1
 321 320 l 1,22,-1
 321 270 l 1,23,-1
 246 270 l 2,24,25
 190 270 190 270 150.5 236.5 c 128,-1,26
 111 203 111 203 111 155 c 256,27,28
 111 107 111 107 153.5 73.5 c 128,-1,29
 196 40 196 40 256 40 c 0,30,31
 312 40 312 40 353.5 65 c 128,-1,32
 395 90 395 90 406 130 c 1,33,-1
 451 110 l 1,34,35
 437 57 437 57 382.5 23.5 c 128,-1,36
 328 -10 328 -10 256 -10 c 1,37,-1
 256 -10 l 1,0,1
506 -240 m 1,38,-1
 256 -70 l 1,39,-1
 196 -100 l 1,40,-1
 181 -55 l 1,41,-1
 256 -20 l 1,42,-1
 536 -205 l 1,43,-1
 506 -240 l 1,44,-1
 506 -240 l 1,38,-1
EndSplineSet
Ligature2: "'half' Half Forms in Gujarati lookup 3 subtable" u0AA8 u0AE0
EndChar

StartChar: u0AAA_u0AE0.half
Encoding: 65589 -1 131
Width: 426
GlyphClass: 2
Flags: W
LayerCount: 2
Fore
SplineSet
226 50 m 1,0,1
 158 50 158 50 109.5 91 c 128,-1,2
 61 132 61 132 61 190 c 0,3,4
 61 226 61 226 84.5 256 c 128,-1,5
 108 286 108 286 146 300 c 1,6,7
 104 311 104 311 77.5 339 c 128,-1,8
 51 367 51 367 51 400 c 0,9,10
 51 450 51 450 123 495 c 128,-1,11
 195 540 195 540 306 560 c 1,12,-1
 321 515 l 1,13,14
 230 499 230 499 170.5 466.5 c 128,-1,15
 111 434 111 434 111 400 c 256,16,17
 111 366 111 366 156 345.5 c 128,-1,18
 201 325 201 325 276 325 c 1,19,-1
 276 275 l 1,20,21
 212 275 212 275 166.5 250 c 128,-1,22
 121 225 121 225 121 190 c 0,23,24
 121 153 121 153 152 126.5 c 128,-1,25
 183 100 183 100 226 100 c 0,26,27
 288 100 288 100 347 140 c 128,-1,28
 406 180 406 180 446 250 c 1,29,-1
 446 170 l 1,30,31
 407 114 407 114 348.5 82 c 128,-1,32
 290 50 290 50 226 50 c 1,33,-1
 226 50 l 1,0,1
EndSplineSet
Ligature2: "'half' Half Forms in Gujarati lookup 3 subtable" u0AAA u0AE0
EndChar

StartChar: u0AAB_u0AE0.half
Encoding: 65590 -1 132
Width: 417
GlyphClass: 2
Flags: W
LayerCount: 2
Fore
SplineSet
37 215 m 1,0,1
 37 283 37 283 84 331.5 c 128,-1,2
 131 380 131 380 197 380 c 2,3,-1
 437 380 l 1,4,-1
 437 330 l 1,5,-1
 297 330 l 1,6,7
 321 310 321 310 334 280 c 128,-1,8
 347 250 347 250 347 215 c 0,9,10
 347 151 347 151 301.5 105.5 c 128,-1,11
 256 60 256 60 192 60 c 256,12,13
 128 60 128 60 82.5 105.5 c 128,-1,14
 37 151 37 151 37 215 c 1,15,-1
 37 215 l 1,0,1
192 110 m 1,16,17
 231 110 231 110 259 139.5 c 128,-1,18
 287 169 287 169 287 210 c 0,19,20
 287 260 287 260 259 295 c 128,-1,21
 231 330 231 330 192 330 c 256,22,23
 153 330 153 330 125 295 c 128,-1,24
 97 260 97 260 97 210 c 0,25,26
 97 169 97 169 125 139.5 c 128,-1,27
 153 110 153 110 192 110 c 1,28,-1
 192 110 l 1,16,17
EndSplineSet
Ligature2: "'half' Half Forms in Gujarati lookup 3 subtable" u0AAB u0AE0
EndChar

StartChar: u0AAC_u0AE0.half
Encoding: 65591 -1 133
Width: 392
GlyphClass: 2
Flags: W
LayerCount: 2
Fore
SplineSet
97 390 m 1,0,1
 97 415 97 415 86.5 432.5 c 128,-1,2
 76 450 76 450 62 450 c 2,3,-1
 12 450 l 1,4,-1
 12 500 l 1,5,-1
 72 500 l 2,6,7
 109 500 109 500 135.5 470.5 c 128,-1,8
 162 441 162 441 162 400 c 2,9,-1
 162 255 l 2,10,11
 162 218 162 218 197 191.5 c 128,-1,12
 232 165 232 165 282 165 c 0,13,14
 321 165 321 165 356.5 191 c 128,-1,15
 392 217 392 217 412 260 c 1,16,-1
 412 175 l 1,17,18
 383 146 383 146 349.5 130.5 c 128,-1,19
 316 115 316 115 282 115 c 0,20,21
 205 115 205 115 151 160.5 c 128,-1,22
 97 206 97 206 97 270 c 2,23,-1
 97 390 l 1,24,-1
 97 390 l 1,0,1
EndSplineSet
Ligature2: "'half' Half Forms in Gujarati lookup 3 subtable" u0AAC u0AE0
EndChar

StartChar: u0AAD_u0AE0.half
Encoding: 65592 -1 134
Width: 383
GlyphClass: 2
Flags: W
LayerCount: 2
Fore
SplineSet
37 75 m 1,0,-1
 67 105 l 1,1,2
 99 78 99 78 136.5 64 c 128,-1,3
 174 50 174 50 212 50 c 0,4,5
 264 50 264 50 300.5 76.5 c 128,-1,6
 337 103 337 103 337 140 c 0,7,8
 337 161 337 161 303 189.5 c 128,-1,9
 269 218 269 218 212 245 c 1,10,-1
 52 185 l 1,11,-1
 32 230 l 1,12,-1
 152 275 l 1,13,14
 114 301 114 301 93 331.5 c 128,-1,15
 72 362 72 362 72 390 c 0,16,17
 72 438 72 438 123.5 471.5 c 128,-1,18
 175 505 175 505 247 505 c 0,19,20
 290 505 290 505 323 498.5 c 128,-1,21
 356 492 356 492 377 480 c 1,22,-1
 362 435 l 1,23,24
 328 447 328 447 300.5 453.5 c 128,-1,25
 273 460 273 460 252 460 c 0,26,27
 202 460 202 460 167 439.5 c 128,-1,28
 132 419 132 419 132 390 c 0,29,30
 132 372 132 372 153.5 349 c 128,-1,31
 175 326 175 326 212 305 c 1,32,-1
 403 320 l 1,33,-1
 403 280 l 1,34,-1
 272 270 l 1,35,36
 329 243 329 243 363 208 c 128,-1,37
 397 173 397 173 397 140 c 0,38,39
 397 93 397 93 353 55 c 128,-1,40
 309 17 309 17 242 5 c 1,41,42
 253 -27 253 -27 285 -46 c 128,-1,43
 317 -65 317 -65 357 -65 c 1,44,-1
 347 -120 l 1,45,46
 294 -115 294 -115 250 -83 c 128,-1,47
 206 -51 206 -51 182 0 c 1,48,49
 145 3 145 3 107.5 22.5 c 128,-1,50
 70 42 70 42 37 75 c 1,51,-1
 37 75 l 1,0,-1
EndSplineSet
Ligature2: "'half' Half Forms in Gujarati lookup 3 subtable" u0AAD u0AE0
EndChar

StartChar: u0AAE_u0AE0.half
Encoding: 65593 -1 135
Width: 495
GlyphClass: 2
Flags: W
LayerCount: 2
Fore
SplineSet
45 300 m 1,0,1
 45 395 45 395 96 447.5 c 128,-1,2
 147 500 147 500 240 500 c 2,3,-1
 275 500 l 1,4,-1
 275 450 l 1,5,-1
 240 450 l 2,6,7
 176 450 176 450 140.5 410.5 c 128,-1,8
 105 371 105 371 105 300 c 0,9,10
 105 238 105 238 144.5 194 c 128,-1,11
 184 150 184 150 240 150 c 0,12,13
 275 150 275 150 300 173.5 c 128,-1,14
 325 197 325 197 325 230 c 2,15,-1
 325 350 l 1,16,-1
 385 350 l 1,17,-1
 385 295 l 1,18,-1
 515 295 l 1,19,-1
 515 245 l 1,20,-1
 385 245 l 1,21,22
 385 177 385 177 345.5 136 c 128,-1,23
 306 95 306 95 240 95 c 0,24,25
 159 95 159 95 102 155 c 128,-1,26
 45 215 45 215 45 300 c 1,27,-1
 45 300 l 1,0,1
EndSplineSet
Ligature2: "'half' Half Forms in Gujarati lookup 3 subtable" u0AAE u0AE0
EndChar

StartChar: u0AAF_u0AE0.half
Encoding: 65594 -1 136
Width: 525
GlyphClass: 2
Flags: W
LayerCount: 2
Fore
SplineSet
50 290 m 1,0,1
 50 379 50 379 108.5 442 c 128,-1,2
 167 505 167 505 250 505 c 0,3,4
 314 505 314 505 359.5 468.5 c 128,-1,5
 405 432 405 432 405 380 c 2,6,-1
 405 285 l 1,7,-1
 545 285 l 1,8,-1
 545 235 l 1,9,-1
 405 235 l 1,10,11
 405 208 405 208 387.5 189 c 128,-1,12
 370 170 370 170 345 170 c 256,13,14
 320 170 320 170 302.5 186 c 128,-1,15
 285 202 285 202 285 225 c 0,16,17
 285 250 285 250 302.5 267.5 c 128,-1,18
 320 285 320 285 345 285 c 1,19,-1
 345 375 l 2,20,21
 345 408 345 408 317 431.5 c 128,-1,22
 289 455 289 455 250 455 c 0,23,24
 192 455 192 455 151 406.5 c 128,-1,25
 110 358 110 358 110 290 c 0,26,27
 110 210 110 210 153.5 142 c 128,-1,28
 197 74 197 74 270 40 c 1,29,-1
 245 -5 l 1,30,31
 156 37 156 37 103 117 c 128,-1,32
 50 197 50 197 50 290 c 1,33,-1
 50 290 l 1,0,1
EndSplineSet
Ligature2: "'half' Half Forms in Gujarati lookup 3 subtable" u0AAF u0AE0
EndChar

StartChar: u0AB0_u0AE0.half
Encoding: 65595 -1 137
Width: 356
GlyphClass: 2
Flags: W
LayerCount: 2
Fore
SplineSet
36 160 m 1,0,1
 36 206 36 206 69.5 238 c 128,-1,2
 103 270 103 270 151 270 c 2,3,-1
 186 270 l 1,4,-1
 186 370 l 2,5,6
 186 401 186 401 170 423 c 128,-1,7
 154 445 154 445 131 445 c 2,8,-1
 66 445 l 1,9,-1
 66 500 l 1,10,-1
 131 500 l 2,11,12
 179 500 179 500 212.5 462 c 128,-1,13
 246 424 246 424 246 370 c 2,14,-1
 246 270 l 1,15,-1
 376 270 l 1,16,-1
 376 220 l 1,17,-1
 246 220 l 1,18,-1
 246 140 l 2,19,20
 246 103 246 103 218 76.5 c 128,-1,21
 190 50 190 50 151 50 c 0,22,23
 103 50 103 50 69.5 82 c 128,-1,24
 36 114 36 114 36 160 c 1,25,-1
 36 160 l 1,0,1
156 100 m 1,26,27
 169 102 169 102 177.5 115 c 128,-1,28
 186 128 186 128 186 145 c 2,29,-1
 186 220 l 1,30,-1
 156 220 l 2,31,32
 131 220 131 220 113.5 202.5 c 128,-1,33
 96 185 96 185 96 160 c 256,34,35
 96 135 96 135 113.5 117.5 c 128,-1,36
 131 100 131 100 156 100 c 1,37,-1
 156 100 l 1,26,27
EndSplineSet
Ligature2: "'half' Half Forms in Gujarati lookup 3 subtable" u0AB0 u0AE0
EndChar

StartChar: u0AB2_u0AE0.half
Encoding: 65596 -1 138
Width: 384
GlyphClass: 2
Flags: W
LayerCount: 2
Fore
SplineSet
34 280 m 1,0,-1
 34 310 l 1,1,-1
 159 310 l 2,2,3
 182 310 182 310 198 329 c 128,-1,4
 214 348 214 348 214 375 c 0,5,6
 214 406 214 406 192 428 c 128,-1,7
 170 450 170 450 139 450 c 2,8,-1
 49 450 l 1,9,-1
 49 500 l 1,10,-1
 139 500 l 2,11,12
 197 500 197 500 238 465 c 128,-1,13
 279 430 279 430 279 380 c 0,14,15
 279 332 279 332 247 298.5 c 128,-1,16
 215 265 215 265 169 265 c 2,17,-1
 94 265 l 1,18,19
 94 209 94 209 136.5 169.5 c 128,-1,20
 179 130 179 130 239 130 c 0,21,22
 287 130 287 130 331.5 165.5 c 128,-1,23
 376 201 376 201 404 260 c 1,24,-1
 404 170 l 1,25,26
 380 128 380 128 335.5 104 c 128,-1,27
 291 80 291 80 239 80 c 0,28,29
 154 80 154 80 94 138.5 c 128,-1,30
 34 197 34 197 34 280 c 1,31,-1
 34 280 l 1,0,-1
EndSplineSet
Ligature2: "'half' Half Forms in Gujarati lookup 3 subtable" u0AB2 u0AE0
EndChar

StartChar: u0AB5_u0AE0.half
Encoding: 65597 -1 139
Width: 438
GlyphClass: 2
Flags: W
LayerCount: 2
Fore
SplineSet
263 250 m 1,0,-1
 263 300 l 1,1,-1
 458 300 l 1,2,-1
 458 250 l 1,3,-1
 263 250 l 1,4,-1
 263 250 l 1,0,-1
248 0 m 1,5,6
 167 0 167 0 110 74.5 c 128,-1,7
 53 149 53 149 53 255 c 0,8,9
 53 356 53 356 113 428 c 128,-1,10
 173 500 173 500 258 500 c 2,11,-1
 323 500 l 1,12,-1
 323 450 l 1,13,-1
 263 450 l 2,14,15
 201 450 201 450 157 393 c 128,-1,16
 113 336 113 336 113 255 c 0,17,18
 113 170 113 170 155.5 110 c 128,-1,19
 198 50 198 50 258 50 c 2,20,-1
 323 50 l 1,21,-1
 323 0 l 1,22,-1
 248 0 l 1,23,-1
 248 0 l 1,5,6
EndSplineSet
Ligature2: "'half' Half Forms in Gujarati lookup 3 subtable" u0AB5 u0AE0
EndChar

StartChar: u0AB6_u0AE0.half
Encoding: 65598 -1 140
Width: 426
GlyphClass: 2
Flags: W
LayerCount: 2
Fore
SplineSet
46 300 m 1,0,1
 46 383 46 383 94.5 441.5 c 128,-1,2
 143 500 143 500 211 500 c 2,3,-1
 246 500 l 1,4,-1
 246 450 l 1,5,-1
 221 450 l 2,6,7
 173 450 173 450 139.5 406 c 128,-1,8
 106 362 106 362 106 300 c 0,9,10
 106 236 106 236 139.5 190.5 c 128,-1,11
 173 145 173 145 221 145 c 0,12,13
 266 145 266 145 288.5 176.5 c 128,-1,14
 311 208 311 208 311 270 c 2,15,-1
 311 330 l 2,16,17
 311 417 311 417 345 461 c 128,-1,18
 379 505 379 505 446 505 c 1,19,-1
 446 460 l 1,20,21
 406 460 406 460 386 427 c 128,-1,22
 366 394 366 394 366 330 c 2,23,-1
 366 270 l 2,24,25
 366 183 366 183 329.5 139 c 128,-1,26
 293 95 293 95 221 95 c 256,27,28
 149 95 149 95 97.5 155 c 128,-1,29
 46 215 46 215 46 300 c 1,30,-1
 46 300 l 1,0,1
EndSplineSet
Ligature2: "'half' Half Forms in Gujarati lookup 3 subtable" u0AB6 u0AE0
EndChar

StartChar: u0AB7_u0AE0.half
Encoding: 65599 -1 141
Width: 380
GlyphClass: 2
Flags: W
LayerCount: 2
Fore
SplineSet
40 320 m 1,0,1
 40 395 40 395 87 447.5 c 128,-1,2
 134 500 134 500 200 500 c 2,3,-1
 270 500 l 1,4,-1
 280 450 l 1,5,-1
 220 450 l 2,6,7
 170 450 170 450 135 412 c 128,-1,8
 100 374 100 374 100 320 c 0,9,10
 100 262 100 262 148.5 221 c 128,-1,11
 197 180 197 180 265 180 c 0,12,13
 302 180 302 180 336.5 193 c 128,-1,14
 371 206 371 206 400 230 c 1,15,-1
 400 170 l 1,16,17
 377 151 377 151 339.5 140.5 c 128,-1,18
 302 130 302 130 255 130 c 0,19,20
 166 130 166 130 103 185.5 c 128,-1,21
 40 241 40 241 40 320 c 1,22,-1
 40 320 l 1,0,1
EndSplineSet
Ligature2: "'half' Half Forms in Gujarati lookup 3 subtable" u0AB7 u0AE0
EndChar

StartChar: u0AB8_u0AE0.half
Encoding: 65600 -1 142
Width: 393
GlyphClass: 2
Flags: W
LayerCount: 2
Fore
SplineSet
286 0 m 1,0,1
 262 67 262 67 208.5 112.5 c 128,-1,2
 155 158 155 158 86 170 c 1,3,-1
 46 170 l 1,4,-1
 46 215 l 1,5,-1
 126 215 l 2,6,7
 188 215 188 215 232 260.5 c 128,-1,8
 276 306 276 306 276 370 c 0,9,10
 276 407 276 407 249.5 433.5 c 128,-1,11
 223 460 223 460 186 460 c 256,12,13
 149 460 149 460 122.5 441 c 128,-1,14
 96 422 96 422 96 395 c 0,15,16
 96 370 96 370 112 352.5 c 128,-1,17
 128 335 128 335 151 335 c 1,18,-1
 176 340 l 1,19,-1
 186 300 l 1,20,21
 179 295 179 295 167.5 292.5 c 128,-1,22
 156 290 156 290 141 290 c 0,23,24
 98 290 98 290 67 318 c 128,-1,25
 36 346 36 346 36 385 c 0,26,27
 36 447 36 447 77.5 478.5 c 128,-1,28
 119 510 119 510 201 510 c 0,29,30
 257 510 257 510 296.5 469 c 128,-1,31
 336 428 336 428 336 370 c 0,32,33
 336 307 336 307 297.5 255 c 128,-1,34
 259 203 259 203 196 180 c 1,35,36
 245 157 245 157 284 110.5 c 128,-1,37
 323 64 323 64 346 0 c 1,38,-1
 286 0 l 1,39,-1
 286 0 l 1,0,1
EndSplineSet
Ligature2: "'half' Half Forms in Gujarati lookup 3 subtable" u0AB8 u0AE0
EndChar

StartChar: u0AB9_u0AE0.half
Encoding: 65601 -1 143
Width: 403
GlyphClass: 2
Flags: W
LayerCount: 2
Fore
SplineSet
23 445 m 1,0,-1
 23 500 l 1,1,-1
 68 500 l 2,2,3
 101 500 101 500 124.5 481 c 128,-1,4
 148 462 148 462 148 435 c 1,5,-1
 423 250 l 1,6,-1
 423 170 l 1,7,8
 385 139 385 139 345.5 122 c 128,-1,9
 306 105 306 105 268 105 c 0,10,11
 193 105 193 105 140.5 150.5 c 128,-1,12
 88 196 88 196 88 260 c 2,13,-1
 88 380 l 2,14,15
 88 407 88 407 80.5 426 c 128,-1,16
 73 445 73 445 63 445 c 2,17,-1
 23 445 l 1,18,-1
 23 445 l 1,0,-1
268 160 m 1,19,20
 302 160 302 160 334.5 174.5 c 128,-1,21
 367 189 367 189 393 215 c 1,22,-1
 148 370 l 1,23,-1
 148 280 l 2,24,25
 148 230 148 230 183 195 c 128,-1,26
 218 160 218 160 268 160 c 1,27,-1
 268 160 l 1,19,20
EndSplineSet
Ligature2: "'half' Half Forms in Gujarati lookup 3 subtable" u0AB9 u0AE0
EndChar

StartChar: u0ABC_u0AE0.half
Encoding: 65602 -1 144
Width: 421
GlyphClass: 2
Flags: W
LayerCount: 2
Fore
SplineSet
21 470 m 1,0,1
 40 489 40 489 72.5 499.5 c 128,-1,2
 105 510 105 510 146 510 c 0,3,4
 224 510 224 510 279.5 464.5 c 128,-1,5
 335 419 335 419 335 355 c 0,6,7
 335 338 335 338 331.5 321.5 c 128,-1,8
 328 305 328 305 321 290 c 1,9,-1
 441 290 l 1,10,-1
 441 240 l 1,11,-1
 296 240 l 1,12,13
 267 211 267 211 229.5 195.5 c 128,-1,14
 192 180 192 180 151 180 c 1,15,-1
 166 80 l 2,16,17
 169 65 169 65 180 55 c 128,-1,18
 191 45 191 45 206 45 c 2,19,-1
 341 45 l 1,20,-1
 341 0 l 1,21,-1
 206 0 l 2,22,23
 170 0 170 0 143 20 c 128,-1,24
 116 40 116 40 111 70 c 2,25,-1
 91 180 l 1,26,-1
 31 180 l 1,27,-1
 31 230 l 1,28,-1
 141 230 l 2,29,30
 197 230 197 230 236.5 266.5 c 128,-1,31
 276 303 276 303 276 355 c 0,32,33
 276 398 276 398 238 429 c 128,-1,34
 200 460 200 460 146 460 c 0,35,36
 121 460 121 460 96.5 452.5 c 128,-1,37
 72 445 72 445 51 430 c 1,38,-1
 21 470 l 1,39,-1
 21 470 l 1,0,1
EndSplineSet
Ligature2: "'half' Half Forms in Gujarati lookup 3 subtable" u0ABC u0AE0
EndChar

StartChar: u0ABD_u0AE0.half
Encoding: 65603 -1 145
Width: 441
GlyphClass: 2
Flags: W
LayerCount: 2
Fore
SplineSet
301 -50 m 1,0,1
 200 -50 200 -50 128 14.5 c 128,-1,2
 56 79 56 79 56 170 c 0,3,4
 56 223 56 223 77.5 266 c 128,-1,5
 99 309 99 309 136 330 c 1,6,7
 115 345 115 345 103 366 c 128,-1,8
 91 387 91 387 91 410 c 0,9,10
 91 447 91 447 123 473.5 c 128,-1,11
 155 500 155 500 201 500 c 2,12,-1
 381 500 l 1,13,-1
 381 450 l 1,14,-1
 226 450 l 2,15,16
 195 450 195 450 173 437 c 128,-1,17
 151 424 151 424 151 405 c 0,18,19
 151 391 151 391 160.5 377.5 c 128,-1,20
 170 364 170 364 186 355 c 1,21,22
 206 362 206 362 227.5 366 c 128,-1,23
 249 370 249 370 271 370 c 0,24,25
 350 370 350 370 405.5 327.5 c 128,-1,26
 461 285 461 285 461 225 c 1,27,-1
 401 225 l 1,28,29
 401 266 401 266 364.5 295.5 c 128,-1,30
 328 325 328 325 276 325 c 0,31,32
 210 325 210 325 163 279.5 c 128,-1,33
 116 234 116 234 116 170 c 0,34,35
 116 98 116 98 174.5 46.5 c 128,-1,36
 233 -5 233 -5 316 -5 c 0,37,38
 341 -5 341 -5 362.5 0 c 128,-1,39
 384 5 384 5 401 15 c 1,40,-1
 411 -30 l 1,41,42
 394 -40 394 -40 366 -45 c 128,-1,43
 338 -50 338 -50 301 -50 c 1,44,-1
 301 -50 l 1,0,1
EndSplineSet
Ligature2: "'half' Half Forms in Gujarati lookup 3 subtable" u0ABD u0AE0
EndChar

StartChar: u0A97_u0AE0_u0AB9.akhn_u0AE0.psts
Encoding: 65604 -1 146
Width: 465
GlyphClass: 2
Flags: W
LayerCount: 2
Fore
SplineSet
335 -75 m 1,0,1
 288 -67 288 -67 252 -37.5 c 128,-1,2
 216 -8 216 -8 200 35 c 1,3,4
 136 35 136 35 90.5 70 c 128,-1,5
 45 105 45 105 45 155 c 0,6,7
 45 187 45 187 83 223.5 c 128,-1,8
 121 260 121 260 185 290 c 0,9,10
 238 315 238 315 269 342 c 128,-1,11
 300 369 300 369 300 390 c 0,12,13
 300 423 300 423 275 446.5 c 128,-1,14
 250 470 250 470 215 470 c 0,15,16
 176 470 176 470 148 451 c 128,-1,17
 120 432 120 432 120 405 c 0,18,19
 120 386 120 386 133 373 c 128,-1,20
 146 360 146 360 165 360 c 1,21,-1
 130 325 l 1,22,23
 100 330 100 330 80 351.5 c 128,-1,24
 60 373 60 373 60 400 c 0,25,26
 60 446 60 446 104 478 c 128,-1,27
 148 510 148 510 210 510 c 256,28,29
 272 510 272 510 316 478 c 128,-1,30
 360 446 360 446 360 400 c 0,31,32
 360 381 360 381 352 362.5 c 128,-1,33
 344 344 344 344 330 330 c 1,34,-1
 485 330 l 1,35,-1
 485 280 l 1,36,-1
 288 280 l 1,37,38
 278 273 278 273 257.5 262.5 c 128,-1,39
 237 252 237 252 200 235 c 0,40,41
 157 215 157 215 131 190.5 c 128,-1,42
 105 166 105 166 105 145 c 256,43,44
 105 124 105 124 134.5 109.5 c 128,-1,45
 164 95 164 95 205 95 c 0,46,47
 243 95 243 95 274 104 c 128,-1,48
 305 113 305 113 325 130 c 1,49,-1
 360 95 l 1,50,51
 347 80 347 80 320 68.5 c 128,-1,52
 293 57 293 57 255 50 c 1,53,54
 267 18 267 18 297.5 -5 c 128,-1,55
 328 -28 328 -28 370 -35 c 1,56,-1
 335 -75 l 1,57,-1
 335 -75 l 1,0,1
EndSplineSet
Ligature2: "'psts' Post Base Substitutions in Gujarati lookup 8 subtable" u0A97_u0AE0_u0AB9.akhn u0AE0
EndChar

StartChar: u0A9E_u0AE0_u0AA0.akhn_u0AE0.psts
Encoding: 65605 -1 147
Width: 473
GlyphClass: 2
Flags: W
LayerCount: 2
Fore
SplineSet
328 -65 m 1,0,1
 267 -65 267 -65 222 -32.5 c 128,-1,2
 177 0 177 0 168 50 c 1,3,4
 119 59 119 59 83 75.5 c 128,-1,5
 47 92 47 92 28 115 c 1,6,-1
 58 150 l 1,7,8
 87 126 87 126 125.5 113 c 128,-1,9
 164 100 164 100 208 100 c 0,10,11
 264 100 264 100 303.5 125 c 128,-1,12
 343 150 343 150 343 185 c 0,13,14
 343 204 343 204 321 217 c 128,-1,15
 299 230 299 230 268 230 c 2,16,-1
 163 230 l 2,17,18
 117 230 117 230 85 259.5 c 128,-1,19
 53 289 53 289 53 330 c 256,20,21
 53 371 53 371 88 400.5 c 128,-1,22
 123 430 123 430 173 430 c 2,23,-1
 493 430 l 1,24,-1
 493 380 l 1,25,-1
 213 380 l 2,26,27
 172 380 172 380 142.5 365.5 c 128,-1,28
 113 351 113 351 113 330 c 0,29,30
 113 307 113 307 135 291 c 128,-1,31
 157 275 157 275 188 275 c 2,32,-1
 298 275 l 2,33,34
 341 275 341 275 372 247 c 128,-1,35
 403 219 403 219 403 180 c 0,36,37
 403 128 403 128 351.5 91.5 c 128,-1,38
 300 55 300 55 228 55 c 1,39,40
 234 22 234 22 266.5 1 c 128,-1,41
 299 -20 299 -20 343 -20 c 1,42,-1
 328 -65 l 1,43,-1
 328 -65 l 1,0,1
EndSplineSet
Ligature2: "'psts' Post Base Substitutions in Gujarati lookup 8 subtable" u0A9E_u0AE0_u0AA0.akhn u0AE0
EndChar

StartChar: u0AA6_u0AE0_u0AB3.akhn_u0AE0.half
Encoding: 65606 -1 148
Width: 403
GlyphClass: 2
Flags: W
LayerCount: 2
Fore
SplineSet
98 100 m 1,0,-1
 313 225 l 1,1,2
 301 294 301 294 267 339.5 c 128,-1,3
 233 385 233 385 193 385 c 0,4,5
 161 385 161 385 122 367 c 128,-1,6
 83 349 83 349 43 315 c 1,7,-1
 13 360 l 1,8,9
 59 399 59 399 105.5 419.5 c 128,-1,10
 152 440 152 440 193 440 c 0,11,12
 260 440 260 440 310.5 385.5 c 128,-1,13
 361 331 361 331 368 250 c 1,14,-1
 423 280 l 1,15,-1
 423 220 l 1,16,-1
 128 55 l 1,17,-1
 98 100 l 1,18,-1
 98 100 l 1,0,-1
EndSplineSet
Ligature2: "'psts' Post Base Substitutions in Gujarati lookup 8 subtable" u0AA6_u0AE0_u0AB3.akhn u0AE0
Ligature2: "'half' Half Forms in Gujarati lookup 3 subtable" u0AA6_u0AE0_u0AB3.akhn u0AE0
EndChar

StartChar: u0AB8_u0AE0_u0AB3.akhn_u0AE0.half
Encoding: 65607 -1 149
Width: 479
GlyphClass: 2
Flags: W
LayerCount: 2
Fore
SplineSet
9 260 m 1,0,1
 62 269 62 269 113 285.5 c 128,-1,2
 164 302 164 302 214 325 c 1,3,4
 176 339 176 339 152.5 369 c 128,-1,5
 129 399 129 399 129 435 c 0,6,7
 129 483 129 483 167 516.5 c 128,-1,8
 205 550 205 550 259 550 c 0,9,10
 311 550 311 550 347.5 516.5 c 128,-1,11
 384 483 384 483 384 435 c 0,12,13
 384 409 384 409 367 380 c 128,-1,14
 350 351 350 351 319 325 c 1,15,16
 356 308 356 308 401.5 299 c 128,-1,17
 447 290 447 290 499 290 c 1,18,-1
 499 235 l 1,19,20
 426 241 426 241 367.5 256.5 c 128,-1,21
 309 272 309 272 269 295 c 1,22,23
 214 263 214 263 156 241.5 c 128,-1,24
 98 220 98 220 39 210 c 1,25,-1
 9 260 l 1,26,-1
 9 260 l 1,0,1
264 355 m 1,27,28
 291 365 291 365 307.5 385.5 c 128,-1,29
 324 406 324 406 324 430 c 0,30,31
 324 461 324 461 306.5 483 c 128,-1,32
 289 505 289 505 264 505 c 0,33,34
 235 505 235 505 214.5 483 c 128,-1,35
 194 461 194 461 194 430 c 0,36,37
 194 403 194 403 214 381.5 c 128,-1,38
 234 360 234 360 264 355 c 1,39,-1
 264 355 l 1,27,28
EndSplineSet
Ligature2: "'half' Half Forms in Gujarati lookup 3 subtable" u0AB8_u0AE0_u0AB3.akhn u0AE0
EndChar

StartChar: u0AA6_u0AE0_u0AA6.akhn_u0AE0.psts
Encoding: 65608 -1 150
Width: 428
GlyphClass: 2
Flags: W
LayerCount: 2
Fore
SplineSet
88 195 m 1,0,1
 88 238 88 238 108 276.5 c 128,-1,2
 128 315 128 315 163 340 c 1,3,-1
 13 340 l 1,4,-1
 13 395 l 1,5,-1
 448 395 l 1,6,-1
 448 340 l 1,7,-1
 323 340 l 2,8,9
 253 340 253 340 203 297.5 c 128,-1,10
 153 255 153 255 153 195 c 0,11,12
 153 133 153 133 207 89 c 128,-1,13
 261 45 261 45 338 45 c 1,14,-1
 328 -5 l 1,15,16
 226 4 226 4 157 61.5 c 128,-1,17
 88 119 88 119 88 195 c 1,18,-1
 88 195 l 1,0,1
EndSplineSet
Ligature2: "'psts' Post Base Substitutions in Gujarati lookup 8 subtable" u0AA6_u0AE0_u0AA6.akhn u0AE0
EndChar

StartChar: u0A97_u0AB3_u0AE0.blwf.vatu
Encoding: 65609 -1 151
Width: 462
GlyphClass: 2
Flags: W
AnchorPoint: "Anchor-1" 246 8 basechar 0
AnchorPoint: "Anchor-0" 266 0 basechar 0
LayerCount: 2
Fore
SplineSet
235 0 m 1,0,1
 183 0 183 0 135.5 17 c 128,-1,2
 88 34 88 34 50 65 c 1,3,-1
 80 105 l 1,4,5
 115 76 115 76 155 60.5 c 128,-1,6
 195 45 195 45 235 45 c 0,7,8
 283 45 283 45 316.5 67 c 128,-1,9
 350 89 350 89 350 120 c 1,10,11
 355 147 355 147 325.5 179 c 128,-1,12
 296 211 296 211 245 235 c 1,13,-1
 190 110 l 1,14,-1
 140 130 l 1,15,-1
 205 250 l 1,16,-1
 35 205 l 1,17,-1
 20 250 l 1,18,-1
 175 290 l 1,19,20
 131 315 131 315 105.5 343.5 c 128,-1,21
 80 372 80 372 80 395 c 0,22,23
 80 441 80 441 130 473 c 128,-1,24
 180 505 180 505 250 505 c 0,25,26
 299 505 299 505 330.5 501.5 c 128,-1,27
 362 498 362 498 375 490 c 1,28,-1
 355 445 l 1,29,30
 339 452 339 452 316.5 456 c 128,-1,31
 294 460 294 460 265 460 c 0,32,33
 215 460 215 460 180 441 c 128,-1,34
 145 422 145 422 145 395 c 0,35,36
 145 379 145 379 171 356 c 128,-1,37
 197 333 197 333 245 305 c 1,38,-1
 415 350 l 1,39,-1
 430 305 l 1,40,-1
 280 265 l 1,41,42
 337 238 337 238 372 200.5 c 128,-1,43
 407 163 407 163 410 125 c 0,44,45
 410 73 410 73 358.5 36.5 c 128,-1,46
 307 0 307 0 235 0 c 1,47,-1
 235 0 l 1,0,1
EndSplineSet
Ligature2: "'vatu' Vattu Variants in Gujarati lookup 4 subtable" u0A97 u0AB3_u0AE0.blwf
EndChar

StartChar: u0A98_u0AB3_u0AE0.blwf.vatu
Encoding: 65610 -1 152
Width: 636
GlyphClass: 2
Flags: W
LayerCount: 2
Fore
SplineSet
91 280 m 1,0,-1
 91 400 l 2,1,2
 91 421 91 421 82 435.5 c 128,-1,3
 73 450 73 450 61 450 c 2,4,-1
 21 450 l 1,5,-1
 21 500 l 1,6,-1
 86 500 l 2,7,8
 113 500 113 500 132 479.5 c 128,-1,9
 151 459 151 459 151 430 c 2,10,-1
 151 275 l 2,11,12
 151 238 151 238 174.5 211.5 c 128,-1,13
 198 185 198 185 231 185 c 0,14,15
 262 185 262 185 284 208.5 c 128,-1,16
 306 232 306 232 306 265 c 2,17,-1
 306 395 l 1,18,-1
 366 395 l 1,19,-1
 366 325 l 1,20,-1
 486 325 l 1,21,-1
 486 500 l 1,22,-1
 546 500 l 1,23,-1
 546 0 l 1,24,-1
 486 0 l 1,25,-1
 486 128 l 1,26,-1
 96 -10 l 1,27,-1
 81 40 l 1,28,-1
 486 183 l 1,29,-1
 486 270 l 1,30,-1
 366 270 l 1,31,-1
 366 255 l 2,32,33
 366 203 366 203 325 166.5 c 128,-1,34
 284 130 284 130 226 130 c 0,35,36
 170 130 170 130 130.5 174 c 128,-1,37
 91 218 91 218 91 280 c 1,38,-1
 91 280 l 1,0,-1
EndSplineSet
Ligature2: "'vatu' Vattu Variants in Gujarati lookup 4 subtable" u0A98 u0AB3_u0AE0.blwf
EndChar

StartChar: u0A99_u0AB3_u0AE0.blwf.vatu
Encoding: 65611 -1 153
Width: 581
GlyphClass: 2
Flags: W
LayerCount: 2
Fore
SplineSet
431 500 m 1,0,-1
 491 500 l 1,1,-1
 491 0 l 1,2,-1
 431 0 l 1,3,-1
 431 115 l 1,4,-1
 81 -30 l 1,5,-1
 61 20 l 1,6,-1
 431 161 l 1,7,-1
 431 500 l 1,8,-1
 431 500 l 1,0,-1
176 145 m 1,9,10
 131 145 131 145 90 167.5 c 128,-1,11
 49 190 49 190 21 230 c 1,12,-1
 56 265 l 1,13,14
 73 235 73 235 105.5 217.5 c 128,-1,15
 138 200 138 200 176 200 c 0,16,17
 228 200 228 200 264.5 236.5 c 128,-1,18
 301 273 301 273 301 325 c 0,19,20
 301 375 301 375 266 410 c 128,-1,21
 231 445 231 445 181 445 c 0,22,23
 155 445 155 445 132.5 437 c 128,-1,24
 110 429 110 429 96 415 c 1,25,-1
 56 450 l 1,26,27
 80 474 80 474 114 487 c 128,-1,28
 148 500 148 500 186 500 c 0,29,30
 258 500 258 500 309.5 448.5 c 128,-1,31
 361 397 361 397 361 325 c 0,32,33
 361 250 361 250 307 197.5 c 128,-1,34
 253 145 253 145 176 145 c 1,35,-1
 176 145 l 1,9,10
EndSplineSet
Ligature2: "'vatu' Vattu Variants in Gujarati lookup 4 subtable" u0A99 u0AB3_u0AE0.blwf
EndChar

StartChar: u0A9A_u0AB3_u0AE0.blwf.vatu
Encoding: 65612 -1 154
Width: 564
GlyphClass: 2
Flags: W
LayerCount: 2
Fore
SplineSet
414 500 m 1,0,-1
 474 500 l 1,1,-1
 474 0 l 1,2,-1
 414 0 l 1,3,-1
 414 94 l 1,4,-1
 99 -50 l 1,5,-1
 69 5 l 1,6,-1
 178 48 l 1,7,8
 127 63 127 63 95.5 99.5 c 128,-1,9
 64 136 64 136 64 180 c 0,10,11
 64 216 64 216 81.5 246 c 128,-1,12
 99 276 99 276 129 290 c 1,13,14
 99 304 99 304 81.5 331 c 128,-1,15
 64 358 64 358 64 390 c 0,16,17
 64 436 64 436 100.5 468 c 128,-1,18
 137 500 137 500 189 500 c 2,19,-1
 279 500 l 1,20,-1
 279 450 l 1,21,-1
 209 450 l 2,22,23
 174 450 174 450 149 431.5 c 128,-1,24
 124 413 124 413 124 387 c 256,25,26
 124 361 124 361 149 343 c 128,-1,27
 174 325 174 325 209 325 c 2,28,-1
 289 325 l 1,29,-1
 289 275 l 1,30,-1
 214 275 l 2,31,32
 177 275 177 275 150.5 247 c 128,-1,33
 124 219 124 219 124 180 c 0,34,35
 124 145 124 145 156 120 c 128,-1,36
 188 95 188 95 234 95 c 0,37,38
 267 95 267 95 313 111.5 c 128,-1,39
 359 128 359 128 414 160 c 1,40,-1
 414 500 l 1,41,-1
 414 500 l 1,0,-1
EndSplineSet
Ligature2: "'vatu' Vattu Variants in Gujarati lookup 4 subtable" u0A9A u0AB3_u0AE0.blwf
EndChar

StartChar: glyph187
Encoding: 65613 -1 155
Width: 539
GlyphClass: 2
Flags: W
LayerCount: 2
Fore
SplineSet
239 -9 m 1,0,1
 157 -2 157 -2 98 48 c 128,-1,2
 39 98 39 98 26 170 c 1,3,-1
 71 185 l 1,4,5
 89 119 89 119 142 77 c 128,-1,6
 195 35 195 35 261 35 c 0,7,8
 319 35 319 35 360 70 c 128,-1,9
 401 105 401 105 401 155 c 0,10,11
 401 194 401 194 373 222 c 128,-1,12
 345 250 345 250 306 250 c 2,13,-1
 216 250 l 2,14,15
 160 250 160 250 120.5 283.5 c 128,-1,16
 81 317 81 317 81 365 c 0,17,18
 81 421 81 421 125 460.5 c 128,-1,19
 169 500 169 500 231 500 c 2,20,-1
 396 500 l 1,21,-1
 396 450 l 1,22,-1
 226 450 l 2,23,24
 191 450 191 450 166 426.5 c 128,-1,25
 141 403 141 403 141 370 c 0,26,27
 141 341 141 341 163 320.5 c 128,-1,28
 185 300 185 300 216 300 c 2,29,-1
 316 300 l 2,30,31
 376 300 376 300 418.5 257.5 c 128,-1,32
 461 215 461 215 461 155 c 0,33,34
 461 94 461 94 412.5 47.5 c 128,-1,35
 364 1 364 1 292 -8 c 1,36,-1
 446 -155 l 1,37,-1
 407 -196 l 1,38,-1
 266 -53 l 1,39,-1
 128 -193 l 1,40,-1
 90 -153 l 1,41,-1
 239 -9 l 1,42,-1
 239 -9 l 1,0,1
461 315 m 1,43,44
 440 315 440 315 425.5 329.5 c 128,-1,45
 411 344 411 344 411 365 c 0,46,47
 411 388 411 388 427 404 c 128,-1,48
 443 420 443 420 466 420 c 0,49,50
 485 420 485 420 498 405.5 c 128,-1,51
 511 391 511 391 511 370 c 0,52,53
 511 347 511 347 496.5 331 c 128,-1,54
 482 315 482 315 461 315 c 1,55,-1
 461 315 l 1,43,44
EndSplineSet
EndChar

StartChar: u0A9C_u0AB3_u0AE0.blwf.vatu
Encoding: 65614 -1 156
Width: 638
GlyphClass: 2
Flags: W
LayerCount: 2
Fore
SplineSet
33 265 m 1,0,-1
 118 265 l 2,1,2
 186 265 186 265 227 293.5 c 128,-1,3
 268 322 268 322 268 370 c 0,4,5
 268 409 268 409 233 437 c 128,-1,6
 198 465 198 465 148 465 c 0,7,8
 120 465 120 465 94 456 c 128,-1,9
 68 447 68 447 48 430 c 1,10,-1
 18 470 l 1,11,12
 40 492 40 492 75 503.5 c 128,-1,13
 110 515 110 515 153 515 c 0,14,15
 225 515 225 515 276.5 471 c 128,-1,16
 328 427 328 427 328 365 c 0,17,18
 328 307 328 307 285 264 c 128,-1,19
 242 221 242 221 178 215 c 1,20,21
 178 172 178 172 209 141 c 128,-1,22
 240 110 240 110 283 110 c 0,23,24
 310 110 310 110 359 132 c 128,-1,25
 408 154 408 154 488 200 c 1,26,-1
 488 500 l 1,27,-1
 548 500 l 1,28,-1
 548 0 l 1,29,-1
 488 0 l 1,30,-1
 488 135 l 1,31,-1
 118 -50 l 1,32,-1
 88 5 l 1,33,-1
 235 73 l 1,34,35
 183 87 183 87 150.5 126.5 c 128,-1,36
 118 166 118 166 118 215 c 1,37,-1
 33 215 l 1,38,-1
 33 265 l 1,39,-1
 33 265 l 1,0,-1
EndSplineSet
Ligature2: "'vatu' Vattu Variants in Gujarati lookup 4 subtable" u0A9C u0AB3_u0AE0.blwf
EndChar

StartChar: glyph189
Encoding: 65615 -1 157
Width: 620
GlyphClass: 2
Flags: W
AnchorPoint: "Anchor-1" 306 -122 basechar 0
LayerCount: 2
Fore
SplineSet
268 -4 m 1,0,1
 181 2 181 2 121.5 48 c 128,-1,2
 62 94 62 94 62 155 c 0,3,4
 62 198 62 198 84 232.5 c 128,-1,5
 106 267 106 267 142 280 c 1,6,7
 107 289 107 289 84.5 318.5 c 128,-1,8
 62 348 62 348 62 385 c 0,9,10
 62 435 62 435 106 470 c 128,-1,11
 150 505 150 505 212 505 c 2,12,-1
 262 505 l 1,13,-1
 262 455 l 1,14,-1
 232 455 l 2,15,16
 180 455 180 455 151 436.5 c 128,-1,17
 122 418 122 418 122 385 c 0,18,19
 122 354 122 354 153 332 c 128,-1,20
 184 310 184 310 227 310 c 2,21,-1
 272 310 l 1,22,-1
 272 260 l 1,23,-1
 232 260 l 2,24,25
 186 260 186 260 154 229 c 128,-1,26
 122 198 122 198 122 155 c 0,27,28
 122 103 122 103 168.5 71.5 c 128,-1,29
 215 40 215 40 292 40 c 0,30,31
 376 40 376 40 437.5 99 c 128,-1,32
 499 158 499 158 507 245 c 1,33,34
 493 233 493 233 474.5 226.5 c 128,-1,35
 456 220 456 220 437 220 c 0,36,37
 381 220 381 220 341.5 259.5 c 128,-1,38
 302 299 302 299 302 355 c 0,39,40
 302 415 302 415 343 457.5 c 128,-1,41
 384 500 384 500 442 500 c 0,42,43
 494 500 494 500 530.5 450 c 128,-1,44
 567 400 567 400 567 330 c 0,45,46
 567 199 567 199 496.5 103 c 128,-1,47
 426 7 426 7 322 -4 c 1,48,-1
 475 -150 l 1,49,-1
 436 -191 l 1,50,-1
 295 -48 l 1,51,-1
 157 -188 l 1,52,-1
 119 -148 l 1,53,-1
 268 -4 l 1,54,-1
 268 -4 l 1,0,1
437 265 m 1,55,56
 468 265 468 265 490 293 c 128,-1,57
 512 321 512 321 512 360 c 0,58,59
 512 397 512 397 491.5 423.5 c 128,-1,60
 471 450 471 450 442 450 c 0,61,62
 409 450 409 450 385.5 422 c 128,-1,63
 362 394 362 394 362 355 c 0,64,65
 362 318 362 318 384 291.5 c 128,-1,66
 406 265 406 265 437 265 c 1,67,-1
 437 265 l 1,55,56
EndSplineSet
EndChar

StartChar: u0A9E_u0AB3_u0AE0.blwf.vatu
Encoding: 65616 -1 158
Width: 611
GlyphClass: 2
Flags: W
AnchorPoint: "Anchor-1" 402 6 basechar 0
AnchorPoint: "Anchor-0" 546 -8 basechar 0
LayerCount: 2
Fore
SplineSet
396 5 m 1,0,1
 346 5 346 5 311 44.5 c 128,-1,2
 276 84 276 84 276 140 c 0,3,4
 276 164 276 164 298.5 207.5 c 128,-1,5
 321 251 321 251 366 315 c 1,6,7
 318 383 318 383 273 421.5 c 128,-1,8
 228 460 228 460 196 460 c 0,9,10
 165 460 165 460 143 436.5 c 128,-1,11
 121 413 121 413 121 380 c 0,12,13
 121 349 121 349 138.5 327 c 128,-1,14
 156 305 156 305 181 305 c 0,15,16
 198 305 198 305 212.5 316 c 128,-1,17
 227 327 227 327 236 345 c 1,18,-1
 266 315 l 1,19,20
 254 290 254 290 231 275 c 128,-1,21
 208 260 208 260 181 260 c 0,22,23
 131 260 131 260 96 295 c 128,-1,24
 61 330 61 330 61 380 c 0,25,26
 61 434 61 434 100.5 472 c 128,-1,27
 140 510 140 510 196 510 c 0,28,29
 241 510 241 510 295.5 469 c 128,-1,30
 350 428 350 428 401 355 c 1,31,32
 477 431 477 431 512.5 464 c 128,-1,33
 548 497 548 497 571 510 c 1,34,-1
 601 480 l 1,35,36
 534 424 534 424 492.5 382.5 c 128,-1,37
 451 341 451 341 436 315 c 1,38,39
 470 266 470 266 488 219 c 128,-1,40
 506 172 506 172 506 130 c 0,41,42
 506 78 506 78 474 41.5 c 128,-1,43
 442 5 442 5 396 5 c 1,44,-1
 396 5 l 1,0,1
66 -5 m 1,45,-1
 31 35 l 1,46,-1
 216 215 l 1,47,-1
 251 180 l 1,48,-1
 66 -5 l 1,49,-1
 66 -5 l 1,45,-1
391 50 m 1,50,51
 416 50 416 50 433.5 72 c 128,-1,52
 451 94 451 94 451 125 c 0,53,54
 451 160 451 160 437 198.5 c 128,-1,55
 423 237 423 237 396 275 c 1,56,57
 364 230 364 230 347.5 192.5 c 128,-1,58
 331 155 331 155 331 130 c 0,59,60
 331 97 331 97 348.5 73.5 c 128,-1,61
 366 50 366 50 391 50 c 1,62,-1
 391 50 l 1,50,51
EndSplineSet
Ligature2: "'vatu' Vattu Variants in Gujarati lookup 4 subtable" u0A9E u0AB3_u0AE0.blwf
EndChar

StartChar: u0A9F_u0AB3_u0AE0.blwf.vatu
Encoding: 65617 -1 159
Width: 631
GlyphClass: 2
Flags: W
LayerCount: 2
Fore
SplineSet
433 -10 m 1,0,1
 392 -10 392 -10 360.5 0.5 c 128,-1,2
 329 11 329 11 313 30 c 1,3,-1
 343 65 l 1,4,5
 369 50 369 50 391.5 42.5 c 128,-1,6
 414 35 414 35 433 35 c 0,7,8
 472 35 472 35 500 74.5 c 128,-1,9
 528 114 528 114 528 170 c 0,10,11
 528 207 528 207 501.5 233.5 c 128,-1,12
 475 260 475 260 438 260 c 0,13,14
 411 260 411 260 389 253.5 c 128,-1,15
 367 247 367 247 353 235 c 1,16,17
 330 149 330 149 275.5 94.5 c 128,-1,18
 221 40 221 40 158 40 c 0,19,20
 118 40 118 40 84.5 50.5 c 128,-1,21
 51 61 51 61 28 80 c 1,22,-1
 48 120 l 1,23,24
 65 105 65 105 89.5 97.5 c 128,-1,25
 114 90 114 90 143 90 c 0,26,27
 201 90 201 90 244.5 137.5 c 128,-1,28
 288 185 288 185 293 255 c 1,29,-1
 53 190 l 1,30,-1
 38 240 l 1,31,-1
 290 305 l 1,32,33
 280 365 280 365 244 405 c 128,-1,34
 208 445 208 445 163 445 c 0,35,36
 139 445 139 445 113 436 c 128,-1,37
 87 427 87 427 63 410 c 1,38,-1
 38 445 l 1,39,40
 67 469 67 469 99 482 c 128,-1,41
 131 495 131 495 163 495 c 0,42,43
 224 495 224 495 274.5 452 c 128,-1,44
 325 409 325 409 343 340 c 1,45,-1
 533 510 l 1,46,-1
 568 475 l 1,47,-1
 368 295 l 1,48,49
 389 305 389 305 409.5 310 c 128,-1,50
 430 315 430 315 448 315 c 0,51,52
 504 315 504 315 543.5 272.5 c 128,-1,53
 583 230 583 230 583 170 c 0,54,55
 583 95 583 95 539 42.5 c 128,-1,56
 495 -10 495 -10 433 -10 c 1,57,-1
 433 -10 l 1,0,1
EndSplineSet
Ligature2: "'vatu' Vattu Variants in Gujarati lookup 4 subtable" u0A9F u0AB3_u0AE0.blwf
EndChar

StartChar: u0AA0_u0AB3_u0AE0.blwf.vatu
Encoding: 65618 -1 160
Width: 673
GlyphClass: 2
Flags: W
LayerCount: 2
Fore
SplineSet
23 230 m 1,0,-1
 63 260 l 1,1,2
 88 216 88 216 125.5 190.5 c 128,-1,3
 163 165 163 165 203 165 c 0,4,5
 255 165 255 165 291.5 204.5 c 128,-1,6
 328 244 328 244 328 300 c 256,7,8
 328 356 328 356 291.5 395.5 c 128,-1,9
 255 435 255 435 203 435 c 0,10,11
 170 435 170 435 137 418 c 128,-1,12
 104 401 104 401 78 370 c 1,13,-1
 43 410 l 1,14,15
 75 448 75 448 117 469 c 128,-1,16
 159 490 159 490 203 490 c 0,17,18
 281 490 281 490 335 441 c 128,-1,19
 389 392 389 392 383 325 c 1,20,-1
 523 325 l 1,21,-1
 523 500 l 1,22,-1
 583 500 l 1,23,-1
 583 0 l 1,24,-1
 523 0 l 1,25,-1
 523 126 l 1,26,-1
 141 -30 l 1,27,-1
 116 20 l 1,28,-1
 523 176 l 1,29,-1
 523 275 l 1,30,-1
 383 275 l 1,31,32
 377 207 377 207 325 161 c 128,-1,33
 273 115 273 115 203 115 c 0,34,35
 150 115 150 115 102 146 c 128,-1,36
 54 177 54 177 23 230 c 1,37,-1
 23 230 l 1,0,-1
EndSplineSet
Ligature2: "'vatu' Vattu Variants in Gujarati lookup 4 subtable" u0AA0 u0AB3_u0AE0.blwf
EndChar

StartChar: glyph193
Encoding: 65619 -1 161
Width: 442
GlyphClass: 2
Flags: W
LayerCount: 2
Fore
SplineSet
202 -9 m 1,0,1
 131 -2 131 -2 83.5 42.5 c 128,-1,2
 36 87 36 87 36 145 c 0,3,4
 36 195 36 195 77.5 239 c 128,-1,5
 119 283 119 283 186 305 c 0,6,7
 240 325 240 325 273 349.5 c 128,-1,8
 306 374 306 374 306 395 c 0,9,10
 306 424 306 424 282.5 444.5 c 128,-1,11
 259 465 259 465 226 465 c 0,12,13
 204 465 204 465 176 451 c 128,-1,14
 148 437 148 437 116 410 c 1,15,-1
 86 445 l 1,16,17
 117 476 117 476 153.5 493 c 128,-1,18
 190 510 190 510 226 510 c 0,19,20
 284 510 284 510 325 478 c 128,-1,21
 366 446 366 446 366 400 c 0,22,23
 366 359 366 359 323 321 c 128,-1,24
 280 283 280 283 211 265 c 0,25,26
 159 246 159 246 127.5 213 c 128,-1,27
 96 180 96 180 96 145 c 0,28,29
 96 99 96 99 134 67 c 128,-1,30
 172 35 172 35 226 35 c 0,31,32
 268 35 268 35 310 64.5 c 128,-1,33
 352 94 352 94 381 145 c 1,34,-1
 421 120 l 1,35,36
 396 66 396 66 349 31.5 c 128,-1,37
 302 -3 302 -3 246 -9 c 1,38,-1
 404 -160 l 1,39,-1
 365 -201 l 1,40,-1
 224 -58 l 1,41,-1
 86 -198 l 1,42,-1
 48 -158 l 1,43,-1
 202 -9 l 1,44,-1
 202 -9 l 1,0,1
EndSplineSet
EndChar

StartChar: glyph194
Encoding: 65620 -1 162
Width: 496
GlyphClass: 2
Flags: W
LayerCount: 2
Fore
SplineSet
229 -13 m 1,0,1
 152 -4 152 -4 100.5 45.5 c 128,-1,2
 49 95 49 95 49 160 c 0,3,4
 49 212 49 212 79 257 c 128,-1,5
 109 302 109 302 159 325 c 1,6,7
 125 337 125 337 104.5 359 c 128,-1,8
 84 381 84 381 84 405 c 0,9,10
 84 444 84 444 120.5 472 c 128,-1,11
 157 500 157 500 209 500 c 2,12,-1
 399 500 l 1,13,-1
 399 450 l 1,14,-1
 219 450 l 2,15,16
 188 450 188 450 166 438.5 c 128,-1,17
 144 427 144 427 144 410 c 0,18,19
 144 384 144 384 177.5 366 c 128,-1,20
 211 348 211 348 258 348 c 0,21,22
 339 348 339 348 396.5 296 c 128,-1,23
 454 244 454 244 454 170 c 0,24,25
 454 100 454 100 405 47.5 c 128,-1,26
 356 -5 356 -5 282 -14 c 1,27,-1
 435 -160 l 1,28,-1
 396 -201 l 1,29,-1
 255 -58 l 1,30,-1
 117 -198 l 1,31,-1
 79 -158 l 1,32,-1
 229 -13 l 1,33,-1
 229 -13 l 1,0,1
254 30 m 1,34,35
 312 30 312 30 353 69.5 c 128,-1,36
 394 109 394 109 394 165 c 256,37,38
 394 221 394 221 354.5 260.5 c 128,-1,39
 315 300 315 300 259 300 c 0,40,41
 197 300 197 300 153 259 c 128,-1,42
 109 218 109 218 109 160 c 0,43,44
 109 106 109 106 151.5 68 c 128,-1,45
 194 30 194 30 254 30 c 1,46,-1
 254 30 l 1,34,35
EndSplineSet
EndChar

StartChar: glyph195
Encoding: 65621 -1 163
Width: 498
GlyphClass: 2
Flags: W
LayerCount: 2
Fore
SplineSet
239 -9 m 1,0,1
 158 -2 158 -2 99 48 c 128,-1,2
 40 98 40 98 27 170 c 1,3,-1
 72 185 l 1,4,5
 90 119 90 119 143 77 c 128,-1,6
 196 35 196 35 262 35 c 0,7,8
 320 35 320 35 361 70 c 128,-1,9
 402 105 402 105 402 155 c 0,10,11
 402 192 402 192 371 218.5 c 128,-1,12
 340 245 340 245 297 245 c 2,13,-1
 217 245 l 2,14,15
 159 245 159 245 118 281.5 c 128,-1,16
 77 318 77 318 77 370 c 0,17,18
 77 424 77 424 122.5 462 c 128,-1,19
 168 500 168 500 232 500 c 2,20,-1
 397 500 l 1,21,-1
 397 450 l 1,22,-1
 227 450 l 2,23,24
 190 450 190 450 163.5 426.5 c 128,-1,25
 137 403 137 403 137 370 c 256,26,27
 137 337 137 337 162 313.5 c 128,-1,28
 187 290 187 290 222 290 c 2,29,-1
 317 290 l 2,30,31
 377 290 377 290 419.5 250.5 c 128,-1,32
 462 211 462 211 462 155 c 0,33,34
 462 92 462 92 410.5 45 c 128,-1,35
 359 -2 359 -2 283 -9 c 1,36,-1
 441 -160 l 1,37,-1
 402 -201 l 1,38,-1
 261 -58 l 1,39,-1
 123 -198 l 1,40,-1
 85 -158 l 1,41,-1
 239 -9 l 1,42,-1
 239 -9 l 1,0,1
EndSplineSet
EndChar

StartChar: glyph196
Encoding: 65622 -1 164
Width: 478
GlyphClass: 2
Flags: W
LayerCount: 2
Fore
SplineSet
216 -9 m 1,0,1
 139 -4 139 -4 86.5 42 c 128,-1,2
 34 88 34 88 34 150 c 0,3,4
 34 208 34 208 83.5 255 c 128,-1,5
 133 302 133 302 209 315 c 0,6,7
 262 329 262 329 295.5 353 c 128,-1,8
 329 377 329 377 329 400 c 0,9,10
 329 427 329 427 301 446 c 128,-1,11
 273 465 273 465 234 465 c 0,12,13
 212 465 212 465 187.5 456 c 128,-1,14
 163 447 163 447 139 430 c 1,15,-1
 104 465 l 1,16,17
 130 487 130 487 165 498.5 c 128,-1,18
 200 510 200 510 239 510 c 0,19,20
 301 510 301 510 345 479 c 128,-1,21
 389 448 389 448 389 405 c 0,22,23
 389 369 389 369 348 332 c 128,-1,24
 307 295 307 295 239 270 c 1,25,26
 176 259 176 259 135 225 c 128,-1,27
 94 191 94 191 94 150 c 0,28,29
 94 102 94 102 136 68 c 128,-1,30
 178 34 178 34 237 34 c 0,31,32
 249 34 249 34 261 35.5 c 128,-1,33
 273 37 273 37 284 40 c 1,34,35
 256 56 256 56 240 80 c 128,-1,36
 224 104 224 104 224 130 c 0,37,38
 224 171 224 171 257.5 200.5 c 128,-1,39
 291 230 291 230 339 230 c 0,40,41
 382 230 382 230 413 200.5 c 128,-1,42
 444 171 444 171 444 130 c 0,43,44
 444 78 444 78 391 38 c 128,-1,45
 338 -2 338 -2 260 -9 c 1,46,-1
 418 -160 l 1,47,-1
 379 -201 l 1,48,-1
 238 -58 l 1,49,-1
 100 -198 l 1,50,-1
 62 -158 l 1,51,-1
 216 -9 l 1,52,-1
 216 -9 l 1,0,1
339 60 m 1,53,54
 358 60 358 60 371 80.5 c 128,-1,55
 384 101 384 101 384 130 c 0,56,57
 384 155 384 155 371 172.5 c 128,-1,58
 358 190 358 190 339 190 c 0,59,60
 316 190 316 190 300 171 c 128,-1,61
 284 152 284 152 284 125 c 256,62,63
 284 98 284 98 300 79 c 128,-1,64
 316 60 316 60 339 60 c 1,65,-1
 339 60 l 1,53,54
EndSplineSet
EndChar

StartChar: u0AA5_u0AB3_u0AE0.blwf.vatu
Encoding: 65623 -1 165
Width: 764
GlyphClass: 2
Flags: W
LayerCount: 2
Fore
SplineSet
84 500 m 1,0,-1
 144 500 l 1,1,-1
 144 155 l 2,2,3
 144 83 144 83 199.5 31.5 c 128,-1,4
 255 -20 255 -20 334 -20 c 0,5,6
 393 -20 393 -20 440.5 -8.5 c 128,-1,7
 488 3 488 3 519 25 c 1,8,-1
 544 -15 l 1,9,10
 506 -42 506 -42 452 -56 c 128,-1,11
 398 -70 398 -70 334 -70 c 0,12,13
 230 -70 230 -70 157 -4.5 c 128,-1,14
 84 61 84 61 84 154 c 2,15,-1
 84 500 l 1,16,-1
 84 500 l 1,0,-1
329 160 m 1,17,18
 309 160 309 160 287 166.5 c 128,-1,19
 265 173 265 173 244 185 c 1,20,-1
 264 230 l 1,21,22
 278 220 278 220 294.5 215 c 128,-1,23
 311 210 311 210 329 210 c 0,24,25
 381 210 381 210 417.5 248 c 128,-1,26
 454 286 454 286 454 340 c 0,27,28
 454 390 454 390 423 425 c 128,-1,29
 392 460 392 460 349 460 c 0,30,31
 330 460 330 460 311.5 453.5 c 128,-1,32
 293 447 293 447 279 435 c 1,33,-1
 249 475 l 1,34,35
 270 490 270 490 295.5 497.5 c 128,-1,36
 321 505 321 505 349 505 c 0,37,38
 417 505 417 505 465.5 456.5 c 128,-1,39
 514 408 514 408 514 340 c 0,40,41
 514 265 514 265 460 212.5 c 128,-1,42
 406 160 406 160 329 160 c 1,43,-1
 329 160 l 1,17,18
614 500 m 1,44,-1
 674 500 l 1,45,-1
 674 0 l 1,46,-1
 614 0 l 1,47,-1
 614 137 l 1,48,-1
 467 85 l 1,49,-1
 452 135 l 1,50,-1
 614 190 l 1,51,-1
 614 500 l 1,52,-1
 614 500 l 1,44,-1
EndSplineSet
Ligature2: "'vatu' Vattu Variants in Gujarati lookup 4 subtable" u0AA5 u0AB3_u0AE0.blwf
EndChar

StartChar: u0AA6_u0AE0_u0AB3.akhn
Encoding: 65624 -1 166
Width: 573
GlyphClass: 2
Flags: W
LayerCount: 2
Fore
SplineSet
423 500 m 1,0,-1
 483 500 l 1,1,-1
 483 0 l 1,2,-1
 423 0 l 1,3,-1
 423 220 l 1,4,-1
 128 55 l 1,5,-1
 98 100 l 1,6,-1
 313 225 l 1,7,8
 301 294 301 294 267 339.5 c 128,-1,9
 233 385 233 385 193 385 c 0,10,11
 161 385 161 385 122 367 c 128,-1,12
 83 349 83 349 43 315 c 1,13,-1
 13 360 l 1,14,15
 59 399 59 399 105.5 419.5 c 128,-1,16
 152 440 152 440 193 440 c 0,17,18
 260 440 260 440 310.5 385.5 c 128,-1,19
 361 331 361 331 368 250 c 1,20,-1
 423 280 l 1,21,-1
 423 500 l 1,22,-1
 423 500 l 1,0,-1
EndSplineSet
Ligature2: "'vatu' Vattu Variants in Gujarati lookup 4 subtable" u0AA6 u0AB3_u0AE0.blwf
Ligature2: "'akhn' Akhand in Gujarati lookup 0 subtable" u0AA6 u0AE0 u0AB3
EndChar

StartChar: u0AA7_u0AB3_u0AE0.blwf.vatu
Encoding: 65625 -1 167
Width: 600
GlyphClass: 2
Flags: W
LayerCount: 2
Fore
SplineSet
45 305 m 1,0,-1
 95 305 l 2,1,2
 121 305 121 305 142.5 309 c 128,-1,3
 164 313 164 313 180 320 c 1,4,5
 133 337 133 337 104 373 c 128,-1,6
 75 409 75 409 75 450 c 0,7,8
 75 500 75 500 116 535 c 128,-1,9
 157 570 157 570 215 570 c 0,10,11
 271 570 271 570 310.5 535 c 128,-1,12
 350 500 350 500 350 450 c 0,13,14
 350 369 350 369 278 312 c 128,-1,15
 206 255 206 255 105 255 c 1,16,17
 115 196 115 196 160.5 158 c 128,-1,18
 206 120 206 120 265 120 c 0,19,20
 301 120 301 120 348 136.5 c 128,-1,21
 395 153 395 153 450 185 c 1,22,-1
 450 500 l 1,23,-1
 510 500 l 1,24,-1
 510 0 l 1,25,-1
 450 0 l 1,26,-1
 450 116 l 1,27,-1
 85 -35 l 1,28,-1
 50 20 l 1,29,-1
 195 77 l 1,30,31
 127 102 127 102 86 164.5 c 128,-1,32
 45 227 45 227 45 305 c 1,33,-1
 45 305 l 1,0,-1
230 350 m 1,34,35
 258 366 258 366 274 393 c 128,-1,36
 290 420 290 420 290 450 c 0,37,38
 290 481 290 481 269.5 503 c 128,-1,39
 249 525 249 525 220 525 c 0,40,41
 185 525 185 525 160 503 c 128,-1,42
 135 481 135 481 135 450 c 0,43,44
 135 417 135 417 161.5 389 c 128,-1,45
 188 361 188 361 230 350 c 1,46,-1
 230 350 l 1,34,35
EndSplineSet
Ligature2: "'vatu' Vattu Variants in Gujarati lookup 4 subtable" u0AA7 u0AB3_u0AE0.blwf
EndChar

StartChar: u0AA8_u0AB3_u0AE0.blwf.vatu
Encoding: 65626 -1 168
Width: 499
GlyphClass: 2
Flags: W
LayerCount: 2
Fore
SplineSet
58 -50 m 1,0,-1
 28 -5 l 1,1,-1
 203 100 l 1,2,3
 133 106 133 106 85.5 149 c 128,-1,4
 38 192 38 192 38 250 c 0,5,6
 38 314 38 314 102.5 359.5 c 128,-1,7
 167 405 167 405 258 405 c 0,8,9
 293 405 293 405 318 416.5 c 128,-1,10
 343 428 343 428 343 445 c 0,11,12
 343 454 343 454 328 465 c 128,-1,13
 313 476 313 476 288 485 c 1,14,-1
 318 525 l 1,15,16
 356 511 356 511 379.5 489 c 128,-1,17
 403 467 403 467 403 445 c 0,18,19
 403 410 403 410 363.5 385 c 128,-1,20
 324 360 324 360 268 360 c 0,21,22
 198 360 198 360 148 328 c 128,-1,23
 98 296 98 296 98 250 c 256,24,25
 98 204 98 204 145 172 c 128,-1,26
 192 140 192 140 258 140 c 1,27,28
 248 157 248 157 243 175 c 128,-1,29
 238 193 238 193 238 210 c 0,30,31
 238 258 238 258 276 291.5 c 128,-1,32
 314 325 314 325 368 325 c 0,33,34
 409 325 409 325 438.5 294 c 128,-1,35
 468 263 468 263 468 220 c 0,36,37
 468 178 468 178 430 144 c 128,-1,38
 392 110 392 110 333 100 c 1,39,-1
 403 -30 l 1,40,-1
 358 -60 l 1,41,-1
 278 90 l 1,42,-1
 58 -50 l 1,43,-1
 58 -50 l 1,0,-1
318 145 m 1,44,45
 360 156 360 156 386.5 177 c 128,-1,46
 413 198 413 198 413 220 c 0,47,48
 413 243 413 243 398.5 259 c 128,-1,49
 384 275 384 275 363 275 c 0,50,51
 338 275 338 275 320.5 256 c 128,-1,52
 303 237 303 237 303 210 c 0,53,54
 303 191 303 191 307 174.5 c 128,-1,55
 311 158 311 158 318 145 c 1,56,-1
 318 145 l 1,44,45
EndSplineSet
Ligature2: "'vatu' Vattu Variants in Gujarati lookup 4 subtable" u0AA8 u0AB3_u0AE0.blwf
EndChar

StartChar: u0AAA_u0AB3_u0AE0.blwf.vatu
Encoding: 65627 -1 169
Width: 601
GlyphClass: 2
Flags: W
LayerCount: 2
Fore
SplineSet
66 190 m 1,0,1
 66 225 66 225 90.5 255 c 128,-1,2
 115 285 115 285 156 300 c 1,3,4
 113 308 113 308 84.5 336 c 128,-1,5
 56 364 56 364 56 400 c 0,6,7
 56 450 56 450 128 495 c 128,-1,8
 200 540 200 540 311 560 c 1,9,-1
 326 515 l 1,10,11
 235 499 235 499 175.5 466.5 c 128,-1,12
 116 434 116 434 116 400 c 256,13,14
 116 366 116 366 161 345.5 c 128,-1,15
 206 325 206 325 281 325 c 1,16,-1
 281 275 l 1,17,18
 217 275 217 275 171.5 250 c 128,-1,19
 126 225 126 225 126 190 c 256,20,21
 126 155 126 155 157 130 c 128,-1,22
 188 105 188 105 231 105 c 0,23,24
 260 105 260 105 314 128.5 c 128,-1,25
 368 152 368 152 451 200 c 1,26,-1
 451 500 l 1,27,-1
 511 500 l 1,28,-1
 511 0 l 1,29,-1
 451 0 l 1,30,-1
 451 135 l 1,31,-1
 96 -30 l 1,32,-1
 61 20 l 1,33,-1
 193 69 l 1,34,35
 138 77 138 77 102 111.5 c 128,-1,36
 66 146 66 146 66 190 c 1,37,-1
 66 190 l 1,0,1
EndSplineSet
Ligature2: "'vatu' Vattu Variants in Gujarati lookup 4 subtable" u0AAA u0AB3_u0AE0.blwf
EndChar

StartChar: u0AAB_u0AB3_u0AE0.blwf.vatu
Encoding: 65628 -1 170
Width: 589
GlyphClass: 2
Flags: W
LayerCount: 2
Fore
SplineSet
59 250 m 1,0,1
 59 306 59 306 100 345.5 c 128,-1,2
 141 385 141 385 199 385 c 2,3,-1
 439 385 l 1,4,-1
 439 500 l 1,5,-1
 499 500 l 1,6,-1
 499 0 l 1,7,-1
 439 0 l 1,8,-1
 439 92 l 1,9,-1
 64 -30 l 1,10,-1
 49 20 l 1,11,-1
 439 142 l 1,12,-1
 439 330 l 1,13,-1
 299 330 l 1,14,15
 313 318 313 318 321 297 c 128,-1,16
 329 276 329 276 329 250 c 0,17,18
 329 196 329 196 289.5 158 c 128,-1,19
 250 120 250 120 194 120 c 256,20,21
 138 120 138 120 98.5 158 c 128,-1,22
 59 196 59 196 59 250 c 1,23,-1
 59 250 l 1,0,1
194 175 m 1,24,25
 225 175 225 175 247 197 c 128,-1,26
 269 219 269 219 269 250 c 0,27,28
 269 283 269 283 247 306.5 c 128,-1,29
 225 330 225 330 194 330 c 256,30,31
 163 330 163 330 141 306.5 c 128,-1,32
 119 283 119 283 119 250 c 0,33,34
 119 219 119 219 141 197 c 128,-1,35
 163 175 163 175 194 175 c 1,36,-1
 194 175 l 1,24,25
EndSplineSet
Ligature2: "'vatu' Vattu Variants in Gujarati lookup 4 subtable" u0AAB u0AB3_u0AE0.blwf
EndChar

StartChar: u0AAC_u0AB3_u0AE0.blwf.vatu
Encoding: 65629 -1 171
Width: 573
GlyphClass: 2
Flags: W
LayerCount: 2
Fore
SplineSet
108 400 m 1,0,1
 108 421 108 421 97.5 435.5 c 128,-1,2
 87 450 87 450 73 450 c 2,3,-1
 23 450 l 1,4,-1
 23 500 l 1,5,-1
 73 500 l 2,6,7
 114 500 114 500 143.5 470.5 c 128,-1,8
 173 441 173 441 173 400 c 2,9,-1
 173 270 l 2,10,11
 173 229 173 229 208 199.5 c 128,-1,12
 243 170 243 170 293 170 c 0,13,14
 315 170 315 170 348 180 c 128,-1,15
 381 190 381 190 423 210 c 1,16,-1
 423 500 l 1,17,-1
 483 500 l 1,18,-1
 483 0 l 1,19,-1
 423 0 l 1,20,-1
 423 150 l 1,21,-1
 48 10 l 1,22,-1
 28 65 l 1,23,-1
 215 132 l 1,24,25
 167 150 167 150 137.5 187.5 c 128,-1,26
 108 225 108 225 108 270 c 2,27,-1
 108 400 l 1,28,-1
 108 400 l 1,0,1
EndSplineSet
Ligature2: "'vatu' Vattu Variants in Gujarati lookup 4 subtable" u0AAC u0AB3_u0AE0.blwf
EndChar

StartChar: u0AAD_u0AB3_u0AE0.blwf.vatu
Encoding: 65630 -1 172
Width: 464
GlyphClass: 2
Flags: W
AnchorPoint: "Anchor-1" 292 -76 basechar 0
LayerCount: 2
Fore
SplineSet
365 -110 m 1,0,1
 317 -102 317 -102 278.5 -72.5 c 128,-1,2
 240 -43 240 -43 220 0 c 1,3,4
 175 0 175 0 131.5 17 c 128,-1,5
 88 34 88 34 50 65 c 1,6,-1
 80 105 l 1,7,8
 112 78 112 78 152 64 c 128,-1,9
 192 50 192 50 235 50 c 0,10,11
 283 50 283 50 316.5 72 c 128,-1,12
 350 94 350 94 350 125 c 1,13,14
 354 146 354 146 324.5 174 c 128,-1,15
 295 202 295 202 245 225 c 1,16,-1
 170 120 l 1,17,-1
 125 145 l 1,18,-1
 205 250 l 1,19,-1
 35 215 l 1,20,-1
 20 260 l 1,21,-1
 175 285 l 1,22,23
 131 310 131 310 105.5 338.5 c 128,-1,24
 80 367 80 367 80 390 c 0,25,26
 80 438 80 438 130 471.5 c 128,-1,27
 180 505 180 505 250 505 c 0,28,29
 287 505 287 505 321 496 c 128,-1,30
 355 487 355 487 385 470 c 1,31,-1
 360 425 l 1,32,33
 336 442 336 442 309 451 c 128,-1,34
 282 460 282 460 255 460 c 0,35,36
 207 460 207 460 173.5 439.5 c 128,-1,37
 140 419 140 419 140 390 c 0,38,39
 140 372 140 372 167 349 c 128,-1,40
 194 326 194 326 240 305 c 1,41,-1
 415 335 l 1,42,-1
 435 295 l 1,43,-1
 280 265 l 1,44,45
 337 238 337 238 372 200.5 c 128,-1,46
 407 163 407 163 410 125 c 0,47,48
 410 83 410 83 374.5 49 c 128,-1,49
 339 15 339 15 285 5 c 1,50,51
 302 -25 302 -25 330.5 -42.5 c 128,-1,52
 359 -60 359 -60 390 -60 c 1,53,-1
 365 -110 l 1,54,-1
 365 -110 l 1,0,1
EndSplineSet
Ligature2: "'vatu' Vattu Variants in Gujarati lookup 4 subtable" u0AAD u0AB3_u0AE0.blwf
EndChar

StartChar: u0AAE_u0AB3_u0AE0.blwf.vatu
Encoding: 65631 -1 173
Width: 667
GlyphClass: 2
Flags: W
LayerCount: 2
Fore
SplineSet
47 312 m 1,0,1
 47 401 47 401 98 450.5 c 128,-1,2
 149 500 149 500 242 500 c 2,3,-1
 302 500 l 1,4,-1
 302 450 l 1,5,-1
 247 450 l 2,6,7
 181 450 181 450 144 414.5 c 128,-1,8
 107 379 107 379 107 315 c 0,9,10
 107 259 107 259 146.5 219.5 c 128,-1,11
 186 180 186 180 242 180 c 0,12,13
 277 180 277 180 302 208 c 128,-1,14
 327 236 327 236 327 275 c 2,15,-1
 327 360 l 1,16,-1
 387 360 l 1,17,-1
 387 325 l 1,18,-1
 517 325 l 1,19,-1
 517 500 l 1,20,-1
 577 500 l 1,21,-1
 577 0 l 1,22,-1
 517 0 l 1,23,-1
 517 92 l 1,24,-1
 112 -20 l 1,25,-1
 97 30 l 1,26,-1
 517 142 l 1,27,-1
 517 275 l 1,28,-1
 387 275 l 1,29,30
 387 207 387 207 347.5 166 c 128,-1,31
 308 125 308 125 242 125 c 0,32,33
 161 125 161 125 104 180 c 128,-1,34
 47 235 47 235 47 312 c 1,35,-1
 47 312 l 1,0,1
EndSplineSet
Ligature2: "'vatu' Vattu Variants in Gujarati lookup 4 subtable" u0AAE u0AB3_u0AE0.blwf
EndChar

StartChar: u0AAF_u0AB3_u0AE0.blwf.vatu
Encoding: 65632 -1 174
Width: 692
GlyphClass: 2
Flags: W
LayerCount: 2
Fore
SplineSet
47 290 m 1,0,1
 47 379 47 379 105.5 442 c 128,-1,2
 164 505 164 505 247 505 c 0,3,4
 311 505 311 505 356.5 468.5 c 128,-1,5
 402 432 402 432 402 380 c 2,6,-1
 402 285 l 1,7,-1
 542 285 l 1,8,-1
 542 500 l 1,9,-1
 602 500 l 1,10,-1
 602 0 l 1,11,-1
 542 0 l 1,12,-1
 542 81 l 1,13,-1
 242 -30 l 1,14,-1
 217 20 l 1,15,-1
 542 132 l 1,16,-1
 542 235 l 1,17,-1
 402 235 l 1,18,19
 402 208 402 208 384.5 189 c 128,-1,20
 367 170 367 170 342 170 c 256,21,22
 317 170 317 170 299.5 186 c 128,-1,23
 282 202 282 202 282 225 c 0,24,25
 282 250 282 250 299.5 267.5 c 128,-1,26
 317 285 317 285 342 285 c 1,27,-1
 342 375 l 1,28,29
 336 410 336 410 310.5 432.5 c 128,-1,30
 285 455 285 455 252 455 c 0,31,32
 192 455 192 455 149.5 408 c 128,-1,33
 107 361 107 361 107 295 c 0,34,35
 107 234 107 234 142.5 181 c 128,-1,36
 178 128 178 128 237 100 c 1,37,-1
 207 50 l 1,38,39
 134 84 134 84 90.5 149 c 128,-1,40
 47 214 47 214 47 290 c 1,41,-1
 47 290 l 1,0,1
EndSplineSet
Ligature2: "'vatu' Vattu Variants in Gujarati lookup 4 subtable" u0AAF u0AB3_u0AE0.blwf
EndChar

StartChar: u0AB0_u0AB3_u0AE0.blwf.vatu
Encoding: 65633 -1 175
Width: 566
GlyphClass: 2
Flags: W
LayerCount: 2
Fore
SplineSet
36 170 m 1,0,1
 36 211 36 211 69.5 240.5 c 128,-1,2
 103 270 103 270 151 270 c 2,3,-1
 186 270 l 1,4,-1
 186 370 l 2,5,6
 186 401 186 401 170 423 c 128,-1,7
 154 445 154 445 131 445 c 2,8,-1
 66 445 l 1,9,-1
 66 500 l 1,10,-1
 130 500 l 2,11,12
 178 500 178 500 212 462 c 128,-1,13
 246 424 246 424 246 370 c 2,14,-1
 246 270 l 1,15,-1
 416 270 l 1,16,-1
 416 500 l 1,17,-1
 476 500 l 1,18,-1
 476 0 l 1,19,-1
 416 0 l 1,20,-1
 416 53 l 1,21,-1
 86 -55 l 1,22,-1
 61 -5 l 1,23,-1
 416 104 l 1,24,-1
 416 225 l 1,25,-1
 246 225 l 1,26,-1
 246 160 l 2,27,28
 246 123 246 123 218 96.5 c 128,-1,29
 190 70 190 70 151 70 c 0,30,31
 103 70 103 70 69.5 99.5 c 128,-1,32
 36 129 36 129 36 170 c 1,33,-1
 36 170 l 1,0,1
151 120 m 1,34,35
 166 123 166 123 176 135.5 c 128,-1,36
 186 148 186 148 186 165 c 2,37,-1
 186 225 l 1,38,-1
 156 225 l 2,39,40
 131 225 131 225 113.5 209.5 c 128,-1,41
 96 194 96 194 96 172 c 256,42,43
 96 150 96 150 112 135 c 128,-1,44
 128 120 128 120 151 120 c 1,45,-1
 151 120 l 1,34,35
EndSplineSet
Ligature2: "'vatu' Vattu Variants in Gujarati lookup 4 subtable" u0AB0 u0AB3_u0AE0.blwf
EndChar

StartChar: u0AB2_u0AB3_u0AE0.blwf.vatu
Encoding: 65634 -1 176
Width: 570
GlyphClass: 2
Flags: W
LayerCount: 2
Fore
SplineSet
50 280 m 1,0,-1
 50 310 l 1,1,-1
 175 310 l 2,2,3
 198 310 198 310 214 329 c 128,-1,4
 230 348 230 348 230 375 c 0,5,6
 230 406 230 406 208 428 c 128,-1,7
 186 450 186 450 155 450 c 2,8,-1
 65 450 l 1,9,-1
 65 500 l 1,10,-1
 155 500 l 2,11,12
 213 500 213 500 254 465 c 128,-1,13
 295 430 295 430 295 380 c 0,14,15
 295 332 295 332 260 298.5 c 128,-1,16
 225 265 225 265 175 265 c 2,17,-1
 110 265 l 1,18,19
 110 211 110 211 155.5 173 c 128,-1,20
 201 135 201 135 265 135 c 0,21,22
 303 135 303 135 342.5 152 c 128,-1,23
 382 169 382 169 420 200 c 1,24,-1
 420 500 l 1,25,-1
 480 500 l 1,26,-1
 480 0 l 1,27,-1
 420 0 l 1,28,-1
 420 123 l 1,29,-1
 54 -10 l 1,30,-1
 39 45 l 1,31,-1
 182 93 l 1,32,33
 123 115 123 115 86.5 166 c 128,-1,34
 50 217 50 217 50 280 c 1,35,-1
 50 280 l 1,0,-1
EndSplineSet
Ligature2: "'vatu' Vattu Variants in Gujarati lookup 4 subtable" u0AB2 u0AB3_u0AE0.blwf
EndChar

StartChar: u0AB5_u0AB3_u0AE0.blwf.vatu
Encoding: 65635 -1 177
Width: 608
GlyphClass: 2
Flags: W
LayerCount: 2
Fore
SplineSet
458 500 m 1,0,-1
 518 500 l 1,1,-1
 518 0 l 1,2,-1
 458 0 l 1,3,-1
 458 133 l 1,4,-1
 311 80 l 1,5,-1
 291 130 l 1,6,-1
 458 187 l 1,7,-1
 458 245 l 1,8,-1
 263 245 l 1,9,-1
 263 295 l 1,10,-1
 458 295 l 1,11,-1
 458 500 l 1,12,-1
 458 500 l 1,0,-1
248 0 m 1,13,14
 167 0 167 0 110 74.5 c 128,-1,15
 53 149 53 149 53 255 c 0,16,17
 53 356 53 356 113 428 c 128,-1,18
 173 500 173 500 258 500 c 2,19,-1
 323 500 l 1,20,-1
 323 450 l 1,21,-1
 263 450 l 2,22,23
 201 450 201 450 157 393 c 128,-1,24
 113 336 113 336 113 255 c 0,25,26
 113 170 113 170 155.5 110 c 128,-1,27
 198 50 198 50 258 50 c 2,28,-1
 323 50 l 1,29,-1
 323 0 l 1,30,-1
 248 0 l 1,31,-1
 248 0 l 1,13,14
EndSplineSet
Ligature2: "'vatu' Vattu Variants in Gujarati lookup 4 subtable" u0AB5 u0AB3_u0AE0.blwf
EndChar

StartChar: u0AB6_u0AB3_u0AE0.blwf.vatu
Encoding: 65636 -1 178
Width: 666
GlyphClass: 2
Flags: W
LayerCount: 2
Fore
SplineSet
46 300 m 1,0,1
 46 383 46 383 94.5 441.5 c 128,-1,2
 143 500 143 500 211 500 c 2,3,-1
 271 500 l 1,4,-1
 271 450 l 1,5,-1
 221 450 l 2,6,7
 173 450 173 450 139.5 406 c 128,-1,8
 106 362 106 362 106 300 c 0,9,10
 106 236 106 236 139.5 190.5 c 128,-1,11
 173 145 173 145 221 145 c 0,12,13
 266 145 266 145 288.5 176.5 c 128,-1,14
 311 208 311 208 311 270 c 2,15,-1
 311 330 l 2,16,17
 311 419 311 419 345 464.5 c 128,-1,18
 379 510 379 510 446 510 c 0,19,20
 502 510 502 510 541.5 472 c 128,-1,21
 581 434 581 434 581 380 c 2,22,-1
 581 0 l 1,23,-1
 521 0 l 1,24,-1
 521 98 l 1,25,-1
 182 -25 l 1,26,-1
 167 30 l 1,27,-1
 521 149 l 1,28,-1
 521 380 l 2,29,30
 521 413 521 413 499 436.5 c 128,-1,31
 477 460 477 460 446 460 c 0,32,33
 406 460 406 460 386 427 c 128,-1,34
 366 394 366 394 366 330 c 2,35,-1
 366 270 l 2,36,37
 366 183 366 183 329.5 139 c 128,-1,38
 293 95 293 95 221 95 c 256,39,40
 149 95 149 95 97.5 155 c 128,-1,41
 46 215 46 215 46 300 c 1,42,-1
 46 300 l 1,0,1
EndSplineSet
Ligature2: "'vatu' Vattu Variants in Gujarati lookup 4 subtable" u0AB6 u0AB3_u0AE0.blwf
EndChar

StartChar: u0AB7_u0AB3_u0AE0.blwf.vatu
Encoding: 65637 -1 179
Width: 559
GlyphClass: 2
Flags: W
LayerCount: 2
Fore
SplineSet
49 320 m 1,0,1
 49 395 49 395 96 447.5 c 128,-1,2
 143 500 143 500 209 500 c 2,3,-1
 279 500 l 1,4,-1
 289 450 l 1,5,-1
 229 450 l 2,6,7
 179 450 179 450 144 412 c 128,-1,8
 109 374 109 374 109 320 c 0,9,10
 109 262 109 262 156 221 c 128,-1,11
 203 180 203 180 269 180 c 0,12,13
 302 180 302 180 338 193 c 128,-1,14
 374 206 374 206 409 230 c 1,15,-1
 409 500 l 1,16,-1
 469 500 l 1,17,-1
 469 0 l 1,18,-1
 409 0 l 1,19,-1
 409 166 l 1,20,-1
 89 -25 l 1,21,-1
 49 25 l 1,22,-1
 246 131 l 1,23,24
 163 137 163 137 106 191.5 c 128,-1,25
 49 246 49 246 49 320 c 1,26,-1
 49 320 l 1,0,1
EndSplineSet
Ligature2: "'vatu' Vattu Variants in Gujarati lookup 4 subtable" u0AB7 u0AB3_u0AE0.blwf
EndChar

StartChar: u0AB8_u0AE0_u0AB3.akhn
Encoding: 65638 -1 180
Width: 635
GlyphClass: 2
Flags: W
LayerCount: 2
Fore
SplineSet
10 260 m 1,0,1
 55 264 55 264 103 280.5 c 128,-1,2
 151 297 151 297 200 325 c 1,3,4
 164 338 164 338 142 368.5 c 128,-1,5
 120 399 120 399 120 435 c 0,6,7
 120 483 120 483 156.5 516.5 c 128,-1,8
 193 550 193 550 245 550 c 256,9,10
 297 550 297 550 333.5 515 c 128,-1,11
 370 480 370 480 370 430 c 0,12,13
 370 406 370 406 353 378.5 c 128,-1,14
 336 351 336 351 305 325 c 1,15,16
 342 308 342 308 387.5 299 c 128,-1,17
 433 290 433 290 485 290 c 1,18,-1
 485 500 l 1,19,-1
 545 500 l 1,20,-1
 545 0 l 1,21,-1
 485 0 l 1,22,-1
 485 180 l 1,23,24
 416 140 416 140 334.5 107.5 c 128,-1,25
 253 75 253 75 160 50 c 1,26,-1
 135 105 l 1,27,28
 263 139 263 139 350 172 c 128,-1,29
 437 205 437 205 480 235 c 1,30,31
 404 242 404 242 347.5 255.5 c 128,-1,32
 291 269 291 269 255 290 c 1,33,34
 206 262 206 262 148 242 c 128,-1,35
 90 222 90 222 25 210 c 1,36,-1
 10 260 l 1,37,-1
 10 260 l 1,0,1
250 350 m 1,38,39
 278 370 278 370 294 391 c 128,-1,40
 310 412 310 412 310 430 c 0,41,42
 310 461 310 461 291 483 c 128,-1,43
 272 505 272 505 245 505 c 256,44,45
 218 505 218 505 199 484.5 c 128,-1,46
 180 464 180 464 180 435 c 0,47,48
 180 411 180 411 199 388 c 128,-1,49
 218 365 218 365 250 350 c 1,50,-1
 250 350 l 1,38,39
EndSplineSet
Ligature2: "'vatu' Vattu Variants in Gujarati lookup 4 subtable" u0AB8 u0AB3_u0AE0.blwf
Ligature2: "'akhn' Akhand in Gujarati lookup 0 subtable" u0AB8 u0AE0 u0AB3
EndChar

StartChar: u0AB9_u0AB3_u0AE0.blwf.vatu
Encoding: 65639 -1 181
Width: 562
GlyphClass: 2
Flags: W
LayerCount: 2
Fore
SplineSet
234 198 m 0,0,1
 282 184 282 184 326 196 c 0,2,3
 393 213 393 213 404 234 c 1,4,-1
 404 501 l 1,5,-1
 472 500 l 1,6,-1
 472 0 l 1,7,-1
 412 0 l 1,8,-1
 412 160 l 1,9,-1
 72 -10 l 1,10,-1
 47 40 l 1,11,-1
 244 140 l 1,12,13
 181 142 181 142 134 182 c 0,14,15
 86 223 86 223 90 312 c 2,16,-1
 87 380 l 2,17,18
 86 410 86 410 80 426 c 0,19,20
 72 445 72 445 62 445 c 2,21,-1
 22 445 l 1,22,-1
 22 445 l 1,23,-1
 22 500 l 1,24,-1
 67 500 l 2,25,26
 100 500 100 500 124 481 c 256,27,28
 148 462 148 462 148 434 c 1,29,-1
 420 242 l 1,30,-1
 397 200 l 1,31,-1
 147 375 l 1,32,-1
 150 290 l 2,33,34
 152 220 152 220 234 198 c 0,0,1
EndSplineSet
Ligature2: "'vatu' Vattu Variants in Gujarati lookup 4 subtable" u0AB9 u0AB3_u0AE0.blwf
EndChar

StartChar: u0ABC_u0AB3_u0AE0.blwf.vatu
Encoding: 65640 -1 182
Width: 630
GlyphClass: 2
Flags: W
LayerCount: 2
Fore
SplineSet
20 470 m 1,0,1
 39 489 39 489 71.5 499.5 c 128,-1,2
 104 510 104 510 145 510 c 0,3,4
 223 510 223 510 278.5 464.5 c 128,-1,5
 334 419 334 419 334 355 c 0,6,7
 334 338 334 338 330.5 321.5 c 128,-1,8
 327 305 327 305 320 290 c 1,9,-1
 480 290 l 1,10,-1
 480 500 l 1,11,-1
 540 500 l 1,12,-1
 540 0 l 1,13,-1
 480 0 l 1,14,-1
 480 147 l 1,15,-1
 325 100 l 1,16,-1
 310 150 l 1,17,-1
 480 198 l 1,18,-1
 480 240 l 1,19,-1
 295 240 l 1,20,21
 266 211 266 211 228.5 195.5 c 128,-1,22
 191 180 191 180 150 180 c 1,23,-1
 165 85 l 2,24,25
 168 70 168 70 180.5 60 c 128,-1,26
 193 50 193 50 210 50 c 2,27,-1
 340 50 l 1,28,-1
 340 0 l 1,29,-1
 210 0 l 2,30,31
 172 0 172 0 144 21 c 128,-1,32
 116 42 116 42 110 75 c 2,33,-1
 90 180 l 1,34,-1
 30 180 l 1,35,-1
 30 230 l 1,36,-1
 140 230 l 2,37,38
 196 230 196 230 235.5 266.5 c 128,-1,39
 275 303 275 303 275 355 c 0,40,41
 275 398 275 398 237 429 c 128,-1,42
 199 460 199 460 145 460 c 0,43,44
 120 460 120 460 95.5 452.5 c 128,-1,45
 71 445 71 445 50 430 c 1,46,-1
 20 470 l 1,47,-1
 20 470 l 1,0,1
EndSplineSet
Ligature2: "'vatu' Vattu Variants in Gujarati lookup 4 subtable" u0ABC u0AB3_u0AE0.blwf
EndChar

StartChar: u0ABD_u0AB3_u0AE0.blwf.vatu
Encoding: 65641 -1 183
Width: 539
GlyphClass: 2
Flags: W
AnchorPoint: "Anchor-1" 354 -52 basechar 0
LayerCount: 2
Fore
SplineSet
298 300 m 1,0,1
 221 300 221 300 167 263.5 c 128,-1,2
 113 227 113 227 113 175 c 0,3,4
 113 96 113 96 179 40.5 c 128,-1,5
 245 -15 245 -15 338 -15 c 2,6,-1
 448 -15 l 1,7,-1
 448 -65 l 1,8,-1
 338 -65 l 2,9,10
 220 -65 220 -65 136.5 5.5 c 128,-1,11
 53 76 53 76 53 175 c 0,12,13
 53 223 53 223 86.5 262 c 128,-1,14
 120 301 120 301 173 315 c 1,15,16
 130 331 130 331 104 355.5 c 128,-1,17
 78 380 78 380 78 405 c 0,18,19
 78 444 78 444 110 472 c 128,-1,20
 142 500 142 500 188 500 c 2,21,-1
 388 500 l 1,22,-1
 388 450 l 1,23,-1
 218 450 l 2,24,25
 185 450 185 450 161.5 437 c 128,-1,26
 138 424 138 424 138 405 c 0,27,28
 138 382 138 382 170 366 c 128,-1,29
 202 350 202 350 248 350 c 2,30,-1
 368 350 l 2,31,32
 424 350 424 350 463.5 306 c 128,-1,33
 503 262 503 262 503 200 c 0,34,35
 503 147 503 147 466 106 c 128,-1,36
 429 65 429 65 373 55 c 1,37,-1
 358 95 l 1,38,39
 399 102 399 102 426 130.5 c 128,-1,40
 453 159 453 159 453 195 c 0,41,42
 453 214 453 214 446.5 232.5 c 128,-1,43
 440 251 440 251 428 265 c 1,44,-1
 258 130 l 1,45,-1
 223 160 l 1,46,-1
 388 300 l 1,47,-1
 298 300 l 1,48,-1
 298 300 l 1,0,1
EndSplineSet
Ligature2: "'vatu' Vattu Variants in Gujarati lookup 4 subtable" u0ABD u0AB3_u0AE0.blwf
EndChar

StartChar: u0AC9_u0A85.abvs
Encoding: 65642 -1 184
Width: 0
GlyphClass: 4
Flags: W
AnchorPoint: "Anchor-0" -116 -8 mark 0
LayerCount: 2
Fore
SplineSet
-445 705 m 1,0,-1
 -445 750 l 1,1,2
 -392 750 -392 750 -331.5 723 c 128,-1,3
 -271 696 -271 696 -210 645 c 2,4,-1
 -85 535 l 1,5,-1
 -120 500 l 1,6,-1
 -240 600 l 2,7,8
 -301 651 -301 651 -353.5 678 c 128,-1,9
 -406 705 -406 705 -445 705 c 1,10,-1
 -445 705 l 1,0,-1
-70 635 m 1,11,12
 -93 635 -93 635 -109 651 c 128,-1,13
 -125 667 -125 667 -125 690 c 0,14,15
 -125 715 -125 715 -107.5 732.5 c 128,-1,16
 -90 750 -90 750 -65 750 c 0,17,18
 -44 750 -44 750 -29.5 734 c 128,-1,19
 -15 718 -15 718 -15 695 c 0,20,21
 -15 670 -15 670 -31 652.5 c 128,-1,22
 -47 635 -47 635 -70 635 c 1,23,-1
 -70 635 l 1,11,12
EndSplineSet
Ligature2: "'abvs' Above Base Substitutions in Gujarati lookup 9 subtable" u0AC9 u0A85
EndChar

StartChar: u0AC9_u0AB3_u0AE0.rphf.abvs
Encoding: 65643 -1 185
Width: 0
GlyphClass: 4
Flags: W
AnchorPoint: "Anchor-0" -122 -8 mark 0
LayerCount: 2
Fore
SplineSet
-445 705 m 1,0,-1
 -445 750 l 1,1,2
 -391 750 -391 750 -329 721.5 c 128,-1,3
 -267 693 -267 693 -203 640 c 1,4,5
 -198 687 -198 687 -163 718.5 c 128,-1,6
 -128 750 -128 750 -80 750 c 0,7,8
 -58 750 -58 750 -38.5 743.5 c 128,-1,9
 -19 737 -19 737 -5 725 c 1,10,-1
 -35 690 l 1,11,12
 -42 695 -42 695 -55 697.5 c 128,-1,13
 -68 700 -68 700 -85 700 c 0,14,15
 -110 700 -110 700 -127.5 678 c 128,-1,16
 -145 656 -145 656 -145 625 c 0,17,18
 -145 612 -145 612 -139.5 597.5 c 128,-1,19
 -134 583 -134 583 -124 569 c 1,20,-1
 -85 535 l 1,21,-1
 -120 500 l 1,22,-1
 -240 600 l 2,23,24
 -301 651 -301 651 -353.5 678 c 128,-1,25
 -406 705 -406 705 -445 705 c 1,26,-1
 -445 705 l 1,0,-1
EndSplineSet
Ligature2: "'abvs' Above Base Substitutions in Gujarati lookup 9 subtable" u0AC9 u0AB3_u0AE0.rphf
EndChar

StartChar: u0AC9_u0AB3_u0AE0.rphf_u0A85.abvs.abvs
Encoding: 65644 -1 186
Width: 0
GlyphClass: 4
Flags: W
AnchorPoint: "Anchor-0" -114 -8 mark 0
LayerCount: 2
Fore
SplineSet
-55 570 m 1,0,1
 -72 570 -72 570 -83.5 583 c 128,-1,2
 -95 596 -95 596 -95 615 c 256,3,4
 -95 634 -95 634 -83.5 647 c 128,-1,5
 -72 660 -72 660 -55 660 c 256,6,7
 -38 660 -38 660 -26.5 647 c 128,-1,8
 -15 634 -15 634 -15 615 c 256,9,10
 -15 596 -15 596 -26.5 583 c 128,-1,11
 -38 570 -38 570 -55 570 c 1,12,-1
 -55 570 l 1,0,1
-445 705 m 1,13,-1
 -445 750 l 1,14,15
 -391 750 -391 750 -329 721.5 c 128,-1,16
 -267 693 -267 693 -203 640 c 1,17,18
 -198 687 -198 687 -165.5 718.5 c 128,-1,19
 -133 750 -133 750 -90 750 c 0,20,21
 -66 750 -66 750 -44 742.5 c 128,-1,22
 -22 735 -22 735 -5 720 c 1,23,-1
 -35 685 l 1,24,25
 -45 692 -45 692 -59.5 696 c 128,-1,26
 -74 700 -74 700 -90 700 c 0,27,28
 -113 700 -113 700 -129 678 c 128,-1,29
 -145 656 -145 656 -145 625 c 0,30,31
 -145 612 -145 612 -139.5 597.5 c 128,-1,32
 -134 583 -134 583 -124 569 c 1,33,-1
 -85 535 l 1,34,-1
 -120 500 l 1,35,-1
 -240 600 l 2,36,37
 -301 651 -301 651 -353.5 678 c 128,-1,38
 -406 705 -406 705 -445 705 c 1,39,-1
 -445 705 l 1,13,-1
EndSplineSet
Ligature2: "'abvs' Above Base Substitutions in Gujarati lookup 9 subtable" u0AC9 u0AB3_u0AE0.rphf_u0A85.abvs
EndChar

